<svg width="149" height="84" viewBox="0 0 149 84" fill="none" xmlns="http://www.w3.org/2000/svg">
<g clip-path="url(#clip0_401_75)">
<rect width="149" height="83.8125" fill="#090611"/>
<g filter="url(#filter0_f_401_75)">
<rect x="112.517" y="11.8857" width="30.7292" height="24.1275" transform="rotate(0.220227 112.517 11.8857)" fill="#FFCB44"/>
</g>
<g filter="url(#filter1_f_401_75)">
<rect x="96.8965" y="31.1235" width="31.3722" height="24.6324" transform="rotate(0.220227 96.8965 31.1235)" fill="#C15CFF"/>
</g>
<rect width="149" height="83.8125" fill="url(#paint0_diamond_401_75)"/>
<path d="M8.537 38.7935V29.1291H15.1584V30.6701H10.3132V33.4127H14.5707V34.9277H10.3132V38.7935H8.537ZM16.3031 38.7935L16.3162 28.8679H18.0401V38.7935H16.3031ZM22.4993 38.9241C21.9072 38.9241 21.3935 38.8239 20.9582 38.6237C20.5315 38.4147 20.1746 38.1405 19.8873 37.8009C19.6086 37.4526 19.3997 37.0652 19.2604 36.6386C19.1211 36.2119 19.0514 35.7766 19.0514 35.3326C19.0514 34.8885 19.1167 34.4575 19.2473 34.0396C19.3866 33.613 19.5912 33.2255 19.8611 32.8773C20.1397 32.529 20.4924 32.2548 20.919 32.0545C21.3456 31.8455 21.8506 31.7411 22.434 31.7411C23.0608 31.7411 23.6137 31.8804 24.0926 32.159C24.5714 32.4376 24.9458 32.8468 25.2157 33.3866C25.4856 33.9177 25.6206 34.5794 25.6206 35.3717V35.8158H20.8015C20.8276 36.2859 20.9886 36.6952 21.2847 37.0434C21.5807 37.383 21.9856 37.5528 22.4993 37.5528C22.7953 37.5528 23.0391 37.5049 23.2306 37.4091C23.4222 37.3133 23.5702 37.2045 23.6746 37.0826C23.7791 36.952 23.8531 36.8432 23.8967 36.7561C23.9402 36.6603 23.962 36.6124 23.962 36.6124H25.5683C25.5683 36.6124 25.5466 36.6908 25.503 36.8475C25.4595 36.9955 25.3768 37.1871 25.2549 37.4222C25.1417 37.6485 24.9719 37.8793 24.7456 38.1143C24.5192 38.3407 24.2232 38.5323 23.8575 38.689C23.4918 38.8457 23.0391 38.9241 22.4993 38.9241ZM20.8015 34.6796H23.9489C23.9228 34.1397 23.7617 33.7392 23.4657 33.478C23.1697 33.2168 22.8214 33.0862 22.4209 33.0862C21.9769 33.0862 21.6068 33.2299 21.3108 33.5172C21.0148 33.7958 20.845 34.1833 20.8015 34.6796ZM25.8825 38.7935L28.0374 35.3456L25.8694 31.8717H27.6978L29.1997 34.3008L30.7278 31.8717H32.5431L30.3229 35.3456L32.5431 38.7935H30.7147L29.1997 36.3643L27.6978 38.7935H25.8825ZM38.672 31.7411C39.116 31.7411 39.4817 31.8151 39.769 31.9631C40.0564 32.1024 40.2827 32.2591 40.4482 32.4332C40.6136 32.5987 40.7268 32.7336 40.7877 32.8381H40.8661V31.8717H42.6031V38.7935H40.8661V37.827H40.7877C40.7268 37.9315 40.6136 38.0708 40.4482 38.2449C40.2827 38.4191 40.0564 38.5758 39.769 38.7151C39.4817 38.8544 39.116 38.9241 38.672 38.9241C38.1583 38.9241 37.7099 38.8239 37.3268 38.6237C36.9437 38.4147 36.6216 38.1405 36.3604 37.8009C36.1079 37.4526 35.9164 37.0652 35.7858 36.6386C35.6639 36.2119 35.6029 35.7766 35.6029 35.3326C35.6029 34.8885 35.6639 34.4532 35.7858 34.0266C35.9164 33.5999 36.1079 33.2168 36.3604 32.8773C36.6216 32.529 36.9437 32.2548 37.3268 32.0545C37.7099 31.8455 38.1583 31.7411 38.672 31.7411ZM39.1291 33.1646C38.7373 33.1646 38.4065 33.2734 38.1365 33.4911C37.8753 33.7001 37.6794 33.97 37.5488 34.3008C37.4182 34.6317 37.3529 34.9756 37.3529 35.3326C37.3529 35.6895 37.4182 36.0334 37.5488 36.3643C37.6794 36.6952 37.8753 36.9694 38.1365 37.1871C38.4065 37.396 38.7373 37.5005 39.1291 37.5005C39.5209 37.5005 39.8474 37.396 40.1086 37.1871C40.3698 36.9694 40.5657 36.6952 40.6963 36.3643C40.8269 36.0334 40.8922 35.6895 40.8922 35.3326C40.8922 34.9756 40.8269 34.6317 40.6963 34.3008C40.5657 33.97 40.3698 33.7001 40.1086 33.4911C39.8474 33.2734 39.5209 33.1646 39.1291 33.1646ZM50.1232 38.9241C49.6791 38.9241 49.3135 38.8544 49.0261 38.7151C48.7388 38.5671 48.5124 38.406 48.347 38.2319C48.1903 38.0577 48.0815 37.9228 48.0205 37.827H47.9291V38.7935H46.1921V28.8679H47.9291V32.8381H48.0205C48.0815 32.7336 48.1903 32.5943 48.347 32.4202C48.5124 32.246 48.7388 32.0893 49.0261 31.95C49.3135 31.8107 49.6791 31.7411 50.1232 31.7411C50.6456 31.7411 51.0983 31.8455 51.4814 32.0545C51.8645 32.2548 52.1823 32.529 52.4348 32.8773C52.6873 33.2168 52.8745 33.5999 52.9964 34.0266C53.127 34.4532 53.1923 34.8885 53.1923 35.3326C53.1923 35.7766 53.127 36.2119 52.9964 36.6386C52.8745 37.0652 52.6873 37.4526 52.4348 37.8009C52.1823 38.1405 51.8645 38.4147 51.4814 38.6237C51.0983 38.8239 50.6456 38.9241 50.1232 38.9241ZM49.6661 37.5005C50.0666 37.5005 50.3974 37.396 50.6586 37.1871C50.9198 36.9694 51.1157 36.6952 51.2463 36.3643C51.3769 36.0334 51.4422 35.6895 51.4422 35.3326C51.4422 34.9756 51.3769 34.6317 51.2463 34.3008C51.1157 33.97 50.9198 33.7001 50.6586 33.4911C50.3974 33.2734 50.0666 33.1646 49.6661 33.1646C49.2743 33.1646 48.9478 33.2734 48.6866 33.4911C48.4254 33.7001 48.2295 33.97 48.0989 34.3008C47.9683 34.6317 47.903 34.9756 47.903 35.3326C47.903 35.6895 47.9683 36.0334 48.0989 36.3643C48.2295 36.6952 48.4254 36.9694 48.6866 37.1871C48.9478 37.396 49.2743 37.5005 49.6661 37.5005ZM57.4005 38.9241C56.8085 38.9241 56.2948 38.8239 55.8595 38.6237C55.4328 38.4147 55.0759 38.1405 54.7885 37.8009C54.5099 37.4526 54.301 37.0652 54.1617 36.6386C54.0224 36.2119 53.9527 35.7766 53.9527 35.3326C53.9527 34.8885 54.018 34.4575 54.1486 34.0396C54.2879 33.613 54.4925 33.2255 54.7624 32.8773C55.041 32.529 55.3937 32.2548 55.8203 32.0545C56.2469 31.8455 56.7519 31.7411 57.3352 31.7411C57.9621 31.7411 58.515 31.8804 58.9939 32.159C59.4727 32.4376 59.8471 32.8468 60.117 33.3866C60.3869 33.9177 60.5219 34.5794 60.5219 35.3717V35.8158H55.7027C55.7289 36.2859 55.8899 36.6952 56.186 37.0434C56.482 37.383 56.8869 37.5528 57.4005 37.5528C57.6966 37.5528 57.9404 37.5049 58.1319 37.4091C58.3235 37.3133 58.4715 37.2045 58.5759 37.0826C58.6804 36.952 58.7544 36.8432 58.798 36.7561C58.8415 36.6603 58.8633 36.6124 58.8633 36.6124H60.4696C60.4696 36.6124 60.4479 36.6908 60.4043 36.8475C60.3608 36.9955 60.2781 37.1871 60.1562 37.4222C60.043 37.6485 59.8732 37.8793 59.6469 38.1143C59.4205 38.3407 59.1245 38.5323 58.7588 38.689C58.3931 38.8457 57.9404 38.9241 57.4005 38.9241ZM55.7027 34.6796H58.8502C58.8241 34.1397 58.663 33.7392 58.367 33.478C58.071 33.2168 57.7227 33.0862 57.3222 33.0862C56.8781 33.0862 56.5081 33.2299 56.2121 33.5172C55.9161 33.7958 55.7463 34.1833 55.7027 34.6796ZM64.4472 38.9241C63.9771 38.9241 63.5896 38.8544 63.2849 38.7151C62.9802 38.5758 62.7407 38.393 62.5666 38.1666C62.4012 37.9402 62.2836 37.6921 62.214 37.4222C62.1443 37.1523 62.1095 36.8867 62.1095 36.6255V33.2691H60.921V31.8717H62.1095V30.1477H63.8465V31.8717H65.4006V33.2691H63.8465V36.5863C63.8465 37.2045 64.1947 37.5136 64.8913 37.5136C65.0567 37.5136 65.2091 37.5049 65.3484 37.4875C65.4964 37.4613 65.5704 37.4483 65.5704 37.4483V38.8065C65.5704 38.8065 65.4572 38.8239 65.2308 38.8588C65.0132 38.9023 64.752 38.9241 64.4472 38.9241ZM69.4457 38.9241C68.9756 38.9241 68.5881 38.8544 68.2834 38.7151C67.9787 38.5758 67.7392 38.393 67.5651 38.1666C67.3997 37.9402 67.2821 37.6921 67.2125 37.4222C67.1428 37.1523 67.108 36.8867 67.108 36.6255V33.2691H65.9195V31.8717H67.108V30.1477H68.845V31.8717H70.3991V33.2691H68.845V36.5863C68.845 37.2045 69.1932 37.5136 69.8898 37.5136C70.0552 37.5136 70.2076 37.5049 70.3469 37.4875C70.4949 37.4613 70.5689 37.4483 70.5689 37.4483V38.8065C70.5689 38.8065 70.4557 38.8239 70.2293 38.8588C70.0117 38.9023 69.7505 38.9241 69.4457 38.9241ZM74.5897 38.9241C73.9977 38.9241 73.484 38.8239 73.0487 38.6237C72.622 38.4147 72.2651 38.1405 71.9777 37.8009C71.6991 37.4526 71.4902 37.0652 71.3509 36.6386C71.2115 36.2119 71.1419 35.7766 71.1419 35.3326C71.1419 34.8885 71.2072 34.4575 71.3378 34.0396C71.4771 33.613 71.6817 33.2255 71.9516 32.8773C72.2302 32.529 72.5828 32.2548 73.0095 32.0545C73.4361 31.8455 73.9411 31.7411 74.5244 31.7411C75.1513 31.7411 75.7042 31.8804 76.1831 32.159C76.6619 32.4376 77.0363 32.8468 77.3062 33.3866C77.5761 33.9177 77.7111 34.5794 77.7111 35.3717V35.8158H72.8919C72.9181 36.2859 73.0791 36.6952 73.3752 37.0434C73.6712 37.383 74.076 37.5528 74.5897 37.5528C74.8858 37.5528 75.1295 37.5049 75.3211 37.4091C75.5126 37.3133 75.6607 37.2045 75.7651 37.0826C75.8696 36.952 75.9436 36.8432 75.9872 36.7561C76.0307 36.6603 76.0525 36.6124 76.0525 36.6124H77.6588C77.6588 36.6124 77.6371 36.6908 77.5935 36.8475C77.55 36.9955 77.4673 37.1871 77.3454 37.4222C77.2322 37.6485 77.0624 37.8793 76.8361 38.1143C76.6097 38.3407 76.3137 38.5323 75.948 38.689C75.5823 38.8457 75.1295 38.9241 74.5897 38.9241ZM72.8919 34.6796H76.0394C76.0133 34.1397 75.8522 33.7392 75.5562 33.478C75.2601 33.2168 74.9119 33.0862 74.5114 33.0862C74.0673 33.0862 73.6973 33.2299 73.4013 33.5172C73.1052 33.7958 72.9355 34.1833 72.8919 34.6796ZM78.6426 38.7935V31.8717H80.3665V32.825H80.4318C80.5537 32.5551 80.754 32.307 81.0326 32.0806C81.3112 31.8542 81.7291 31.7411 82.2864 31.7411C82.4605 31.7411 82.6041 31.7541 82.7173 31.7802C82.8305 31.7977 82.8871 31.8064 82.8871 31.8064V33.4911C82.8871 33.4911 82.8218 33.4824 82.6912 33.465C82.5693 33.4476 82.4169 33.4389 82.2341 33.4389C81.6246 33.4389 81.1632 33.6086 80.8498 33.9482C80.5363 34.2878 80.3796 34.8363 80.3796 35.5938V38.7935H78.6426ZM10.1173 55.7935L7.9493 48.8717H9.68628L11.0706 53.6255L12.5464 48.8717H14.1267L15.6025 53.6255L16.9868 48.8717H18.7238L16.5428 55.7935H14.7013L13.3431 51.3922L11.9718 55.7935H10.1173ZM22.3217 55.9241C21.7297 55.9241 21.216 55.8239 20.7806 55.6237C20.354 55.4147 19.997 55.1405 19.7097 54.8009C19.4311 54.4526 19.2221 54.0652 19.0828 53.6386C18.9435 53.2119 18.8739 52.7766 18.8739 52.3326C18.8739 51.8885 18.9392 51.4575 19.0698 51.0396C19.2091 50.613 19.4137 50.2255 19.6836 49.8773C19.9622 49.529 20.3148 49.2548 20.7415 49.0545C21.1681 48.8455 21.6731 48.7411 22.2564 48.7411C22.8833 48.7411 23.4362 48.8804 23.915 49.159C24.3939 49.4376 24.7683 49.8468 25.0382 50.3866C25.3081 50.9177 25.4431 51.5794 25.4431 52.3717V52.8158H20.6239C20.65 53.2859 20.8111 53.6952 21.1071 54.0434C21.4032 54.383 21.808 54.5528 22.3217 54.5528C22.6177 54.5528 22.8615 54.5049 23.0531 54.4091C23.2446 54.3133 23.3926 54.2045 23.4971 54.0826C23.6016 53.952 23.6756 53.8432 23.7191 53.7561C23.7627 53.6603 23.7844 53.6124 23.7844 53.6124H25.3908C25.3908 53.6124 25.369 53.6908 25.3255 53.8475C25.282 53.9955 25.1993 54.1871 25.0774 54.4222C24.9642 54.6485 24.7944 54.8793 24.568 55.1143C24.3417 55.3407 24.0456 55.5323 23.68 55.689C23.3143 55.8457 22.8615 55.9241 22.3217 55.9241ZM20.6239 51.6796H23.7714C23.7453 51.1397 23.5842 50.7392 23.2882 50.478C22.9921 50.2168 22.6439 50.0862 22.2434 50.0862C21.7993 50.0862 21.4293 50.2299 21.1333 50.5172C20.8372 50.7958 20.6675 51.1833 20.6239 51.6796ZM30.3852 55.9241C29.9412 55.9241 29.5755 55.8544 29.2882 55.7151C29.0009 55.5671 28.7745 55.406 28.6091 55.2319C28.4524 55.0577 28.3435 54.9228 28.2826 54.827H28.1912V55.7935H26.4542V45.8679H28.1912V49.8381H28.2826C28.3435 49.7336 28.4524 49.5943 28.6091 49.4202C28.7745 49.246 29.0009 49.0893 29.2882 48.95C29.5755 48.8107 29.9412 48.7411 30.3852 48.7411C30.9076 48.7411 31.3604 48.8455 31.7435 49.0545C32.1266 49.2548 32.4444 49.529 32.6969 49.8773C32.9494 50.2168 33.1365 50.5999 33.2584 51.0266C33.389 51.4532 33.4543 51.8885 33.4543 52.3326C33.4543 52.7766 33.389 53.2119 33.2584 53.6386C33.1365 54.0652 32.9494 54.4526 32.6969 54.8009C32.4444 55.1405 32.1266 55.4147 31.7435 55.6237C31.3604 55.8239 30.9076 55.9241 30.3852 55.9241ZM29.9281 54.5005C30.3286 54.5005 30.6595 54.396 30.9207 54.1871C31.1819 53.9694 31.3778 53.6952 31.5084 53.3643C31.639 53.0334 31.7043 52.6895 31.7043 52.3326C31.7043 51.9756 31.639 51.6317 31.5084 51.3008C31.3778 50.97 31.1819 50.7001 30.9207 50.4911C30.6595 50.2734 30.3286 50.1646 29.9281 50.1646C29.5363 50.1646 29.2098 50.2734 28.9486 50.4911C28.6874 50.7001 28.4915 50.97 28.3609 51.3008C28.2303 51.6317 28.165 51.9756 28.165 52.3326C28.165 52.6895 28.2303 53.0334 28.3609 53.3643C28.4915 53.6952 28.6874 53.9694 28.9486 54.1871C29.2098 54.396 29.5363 54.5005 29.9281 54.5005ZM37.1779 55.9241C36.6119 55.9241 36.1461 55.8501 35.7804 55.702C35.4148 55.5453 35.1231 55.3538 34.9054 55.1274C34.6965 54.8923 34.5397 54.6616 34.4353 54.4352C34.3308 54.2088 34.2611 54.0217 34.2263 53.8736C34.2002 53.7169 34.1871 53.6386 34.1871 53.6386H35.8327C35.8327 53.6386 35.8457 53.6864 35.8719 53.7822C35.9067 53.878 35.9676 53.9912 36.0547 54.1218C36.1505 54.2437 36.2941 54.3525 36.4857 54.4483C36.6772 54.5441 36.9297 54.5919 37.2432 54.5919C37.6175 54.5919 37.8875 54.5136 38.0529 54.3569C38.2183 54.1914 38.301 54.0086 38.301 53.8083C38.301 53.6168 38.227 53.4644 38.079 53.3512C37.9397 53.2293 37.7307 53.1379 37.4521 53.077L36.4987 52.8811C36.1156 52.8027 35.7587 52.6895 35.4278 52.5415C35.097 52.3848 34.8271 52.1758 34.6181 51.9146C34.4091 51.6447 34.3047 51.3008 34.3047 50.8829C34.3047 50.2647 34.5397 49.7554 35.0099 49.3549C35.4801 48.9457 36.12 48.7411 36.9297 48.7411C37.4434 48.7411 37.8657 48.8107 38.1965 48.95C38.5361 49.0893 38.806 49.2635 39.0063 49.4724C39.2152 49.6814 39.3676 49.8903 39.4634 50.0993C39.5678 50.3083 39.6331 50.4867 39.6593 50.6348C39.6941 50.7741 39.7115 50.8437 39.7115 50.8437H38.1182C38.1182 50.8437 38.1051 50.8045 38.079 50.7262C38.0529 50.6391 37.9963 50.5433 37.9092 50.4389C37.8309 50.3344 37.709 50.243 37.5435 50.1646C37.3868 50.0775 37.1735 50.034 36.9036 50.034C36.5379 50.034 36.2767 50.1124 36.12 50.2691C35.972 50.4258 35.898 50.5912 35.898 50.7654C35.898 50.9569 35.9807 51.1049 36.1461 51.2094C36.3115 51.3139 36.5249 51.3922 36.7861 51.4445L37.6872 51.6404C38.3315 51.771 38.8582 51.9974 39.2675 52.3195C39.6854 52.6416 39.8943 53.1075 39.8943 53.7169C39.8943 54.1261 39.7855 54.5005 39.5678 54.8401C39.3589 55.1709 39.0498 55.4365 38.6406 55.6367C38.2401 55.8283 37.7525 55.9241 37.1779 55.9241ZM41.7272 47.8007C41.4225 47.8007 41.17 47.7006 40.9698 47.5004C40.7782 47.3001 40.6824 47.0607 40.6824 46.7821C40.6824 46.5035 40.7782 46.264 40.9698 46.0638C41.17 45.8635 41.4225 45.7634 41.7272 45.7634C42.032 45.7634 42.2845 45.8635 42.4847 46.0638C42.685 46.264 42.7851 46.5035 42.7851 46.7821C42.7851 47.0607 42.685 47.3001 42.4847 47.5004C42.2845 47.7006 42.032 47.8007 41.7272 47.8007ZM40.8653 55.7935V48.8717H42.6022V55.7935H40.8653ZM46.9402 55.9241C46.47 55.9241 46.0826 55.8544 45.7779 55.7151C45.4731 55.5758 45.2337 55.393 45.0596 55.1666C44.8941 54.9402 44.7766 54.6921 44.7069 54.4222C44.6373 54.1523 44.6025 53.8867 44.6025 53.6255V50.2691H43.414V48.8717H44.6025V47.1477H46.3394V48.8717H47.8936V50.2691H46.3394V53.5863C46.3394 54.2045 46.6877 54.5136 47.3842 54.5136C47.5497 54.5136 47.702 54.5049 47.8413 54.4875C47.9894 54.4613 48.0634 54.4483 48.0634 54.4483V55.8065C48.0634 55.8065 47.9502 55.8239 47.7238 55.8588C47.5061 55.9023 47.2449 55.9241 46.9402 55.9241ZM52.0842 55.9241C51.4922 55.9241 50.9785 55.8239 50.5431 55.6237C50.1165 55.4147 49.7595 55.1405 49.4722 54.8009C49.1936 54.4526 48.9846 54.0652 48.8453 53.6386C48.706 53.2119 48.6364 52.7766 48.6364 52.3326C48.6364 51.8885 48.7017 51.4575 48.8323 51.0396C48.9716 50.613 49.1762 50.2255 49.4461 49.8773C49.7247 49.529 50.0773 49.2548 50.504 49.0545C50.9306 48.8455 51.4356 48.7411 52.0189 48.7411C52.6458 48.7411 53.1987 48.8804 53.6775 49.159C54.1564 49.4376 54.5308 49.8468 54.8007 50.3866C55.0706 50.9177 55.2055 51.5794 55.2055 52.3717V52.8158H50.3864C50.4125 53.2859 50.5736 53.6952 50.8696 54.0434C51.1657 54.383 51.5705 54.5528 52.0842 54.5528C52.3802 54.5528 52.624 54.5049 52.8156 54.4091C53.0071 54.3133 53.1551 54.2045 53.2596 54.0826C53.3641 53.952 53.4381 53.8432 53.4816 53.7561C53.5252 53.6603 53.5469 53.6124 53.5469 53.6124H55.1533C55.1533 53.6124 55.1315 53.6908 55.088 53.8475C55.0445 53.9955 54.9618 54.1871 54.8399 54.4222C54.7267 54.6485 54.5569 54.8793 54.3305 55.1143C54.1042 55.3407 53.8081 55.5323 53.4424 55.689C53.0768 55.8457 52.624 55.9241 52.0842 55.9241ZM50.3864 51.6796H53.5339C53.5077 51.1397 53.3467 50.7392 53.0506 50.478C52.7546 50.2168 52.4064 50.0862 52.0059 50.0862C51.5618 50.0862 51.1918 50.2299 50.8958 50.5172C50.5997 50.7958 50.4299 51.1833 50.3864 51.6796ZM57.4039 55.9241C57.1079 55.9241 56.8641 55.8239 56.6726 55.6237C56.481 55.4147 56.3852 55.1709 56.3852 54.8923C56.3852 54.6137 56.481 54.3743 56.6726 54.174C56.8641 53.9738 57.1079 53.8736 57.4039 53.8736C57.6999 53.8736 57.9437 53.9738 58.1353 54.174C58.3355 54.3743 58.4357 54.6137 58.4357 54.8923C58.4357 55.1796 58.3355 55.4234 58.1353 55.6237C57.9437 55.8239 57.6999 55.9241 57.4039 55.9241Z" fill="url(#paint1_linear_401_75)"/>
<path fill-rule="evenodd" clip-rule="evenodd" d="M124.283 21.2404L120.414 20.0952L119.466 22.6226H129.023L127.956 20.0952L124.283 21.2404ZM129.125 23.0965H119.364L116.109 24.9131H132.103L129.125 23.0965ZM124.769 27.8295C124.693 27.8154 124.617 27.8035 124.541 27.7938C124.238 27.7554 123.932 27.7521 123.628 27.7841C123.604 27.7866 123.58 27.7894 123.556 27.7923L123.492 27.8002L122.572 27.9141C122.63 28.0438 122.682 28.1773 122.725 28.3142C122.787 28.5074 122.833 28.7074 122.863 28.9127C122.888 29.0897 122.902 29.2706 122.902 29.4546C122.902 31.5266 121.222 33.2063 119.15 33.2063C117.078 33.2063 115.398 31.5266 115.398 29.4546C115.398 27.3827 117.078 25.703 119.15 25.703C120.263 25.703 121.262 26.1873 121.949 26.9566C122.055 27.0757 122.154 27.2017 122.245 27.3337L122.497 27.3063L123.428 27.2049L123.483 27.1992C123.948 27.1533 124.417 27.1676 124.879 27.2417L124.898 27.2448L125.685 27.374L125.879 27.4059C125.962 27.2792 126.052 27.1579 126.149 27.0425C126.837 26.2235 127.869 25.703 129.022 25.703C131.094 25.703 132.774 27.3826 132.774 29.4546C132.774 31.5266 131.094 33.2062 129.022 33.2062C126.95 33.2062 125.271 31.5266 125.271 29.4546C125.271 29.2915 125.281 29.1309 125.301 28.9733C125.328 28.7673 125.371 28.5666 125.429 28.3725C125.47 28.2381 125.517 28.1069 125.572 27.9793L124.801 27.8355L124.769 27.8295ZM121.399 27.9149L121.536 28.1153L121.636 28.3362C121.789 28.6761 121.875 29.054 121.875 29.4546C121.875 30.9595 120.655 32.1795 119.15 32.1795C117.645 32.1795 116.425 30.9595 116.425 29.4546C116.425 27.9497 117.645 26.7298 119.15 26.7298C120.082 26.7298 120.906 27.1971 121.399 27.9149ZM126.516 28.3834L126.609 28.166L126.739 27.9673C127.227 27.22 128.068 26.7297 129.022 26.7297C130.527 26.7297 131.747 27.9497 131.747 29.4546C131.747 30.9595 130.527 32.1795 129.022 32.1795C127.518 32.1795 126.298 30.9595 126.298 29.4546C126.298 29.0723 126.376 28.7109 126.516 28.3834Z" fill="url(#paint2_linear_401_75)"/>
<path fill-rule="evenodd" clip-rule="evenodd" d="M116.498 53.6305C116.086 53.7515 115.65 53.8164 115.199 53.8164C112.657 53.8164 110.596 51.7557 110.596 49.2137C110.596 46.6717 112.657 44.611 115.199 44.611C117.518 44.611 119.437 46.3266 119.755 48.5579L120.112 48.0019C120.161 47.9264 120.278 47.9607 120.278 48.0505V52.0646C120.278 52.1143 120.318 52.1545 120.368 52.1545H121.891C122.287 51.2547 122.507 50.2599 122.507 49.2137C122.507 45.1779 119.235 41.9062 115.199 41.9062C111.163 41.9062 107.892 45.1779 107.892 49.2137C107.892 53.2495 111.163 56.5212 115.199 56.5212C116.5 56.5212 117.721 56.1813 118.779 55.5855H115.408C115.336 55.5855 115.293 55.5068 115.332 55.447L116.498 53.6305Z" fill="url(#paint3_linear_401_75)"/>
<path d="M119.675 54.9338H116.612C116.54 54.9338 116.497 54.8549 116.536 54.795L119.577 50.0956C119.628 50.017 119.75 50.0588 119.742 50.1521L119.486 53.1462C119.481 53.1987 119.522 53.2437 119.575 53.2437H122.786C122.857 53.2437 122.9 53.323 122.861 53.3828L119.671 58.274C119.62 58.3521 119.498 58.3105 119.506 58.2176L119.765 55.031C119.769 54.9786 119.728 54.9338 119.675 54.9338Z" fill="url(#paint4_linear_401_75)"/>
<path d="M16.6298 12.8423V9.1916H17.207V12.8423H16.6298ZM17.5847 12.8423V10.2276H18.1471V10.6075H18.1767C18.1997 10.5614 18.2392 10.5055 18.2951 10.4397C18.351 10.3707 18.4283 10.3098 18.527 10.2572C18.6289 10.2046 18.7572 10.1783 18.9118 10.1783C19.1058 10.1783 19.2686 10.2227 19.4002 10.3115C19.5317 10.4003 19.6304 10.5187 19.6962 10.6667C19.7652 10.8147 19.7998 10.9775 19.7998 11.1551V12.8423H19.2374V11.2143C19.2374 11.0564 19.193 10.9232 19.1042 10.8147C19.0187 10.7061 18.8904 10.6519 18.7194 10.6519C18.5845 10.6519 18.4743 10.6864 18.3888 10.7555C18.3066 10.8213 18.2458 10.9084 18.2063 11.0169C18.1668 11.1222 18.1471 11.2357 18.1471 11.3573V12.8423H17.5847ZM21.3888 12.8916C21.1685 12.8916 20.976 12.8538 20.8116 12.7782C20.6472 12.6992 20.5107 12.5956 20.4021 12.4674C20.2936 12.3358 20.2114 12.1894 20.1555 12.0283C20.1028 11.8671 20.0765 11.7027 20.0765 11.5349C20.0765 11.3672 20.1028 11.2028 20.1555 11.0416C20.2114 10.8805 20.2936 10.7357 20.4021 10.6075C20.5107 10.4759 20.6472 10.3723 20.8116 10.2967C20.976 10.2177 21.1685 10.1783 21.3888 10.1783C21.6059 10.1783 21.7851 10.2112 21.9265 10.2769C22.0713 10.3394 22.1864 10.4184 22.2719 10.5137C22.3574 10.6091 22.4215 10.7045 22.4643 10.7999C22.507 10.8953 22.5333 10.9758 22.5432 11.0416C22.5564 11.1074 22.5629 11.1403 22.5629 11.1403H22.0301C22.0301 11.1403 22.0219 11.1156 22.0055 11.0663C21.9923 11.0169 21.9644 10.9594 21.9216 10.8936C21.8789 10.8278 21.8147 10.7703 21.7292 10.7209C21.647 10.6716 21.5352 10.6469 21.3937 10.6469C21.226 10.6469 21.0862 10.6897 20.9744 10.7752C20.8626 10.8574 20.7771 10.966 20.7179 11.1008C20.662 11.2357 20.634 11.3804 20.634 11.5349C20.634 11.6895 20.662 11.8342 20.7179 11.9691C20.7771 12.1039 20.8626 12.2141 20.9744 12.2996C21.0862 12.3818 21.226 12.423 21.3937 12.423C21.5352 12.423 21.647 12.3983 21.7292 12.3489C21.8147 12.2996 21.8789 12.2421 21.9216 12.1763C21.9644 12.1105 21.9923 12.0529 22.0055 12.0036C22.0219 11.9543 22.0301 11.9296 22.0301 11.9296H22.5629C22.5629 11.9296 22.5564 11.9625 22.5432 12.0283C22.5333 12.0941 22.507 12.1746 22.4643 12.27C22.4215 12.3654 22.3574 12.4608 22.2719 12.5562C22.1864 12.6515 22.0713 12.7321 21.9265 12.7979C21.7851 12.8604 21.6059 12.8916 21.3888 12.8916ZM22.8992 12.8423L22.9042 9.09294H23.4616V12.8423H22.8992ZM24.1899 9.77867C24.088 9.77867 24.0041 9.74414 23.9383 9.67507C23.8725 9.60601 23.8396 9.52543 23.8396 9.43334C23.8396 9.33796 23.8725 9.25738 23.9383 9.1916C24.0041 9.12254 24.088 9.088 24.1899 9.088C24.2919 9.088 24.3757 9.12254 24.4415 9.1916C24.5106 9.25738 24.5451 9.33796 24.5451 9.43334C24.5451 9.52872 24.5106 9.61094 24.4415 9.68001C24.3757 9.74578 24.2919 9.77867 24.1899 9.77867ZM23.9136 12.8423V10.2276H24.476V12.8423H23.9136ZM24.8776 12.8423V10.2276H25.44V10.6075H25.4696C25.4926 10.5614 25.5321 10.5055 25.588 10.4397C25.6439 10.3707 25.7212 10.3098 25.8198 10.2572C25.9218 10.2046 26.0501 10.1783 26.2046 10.1783C26.3987 10.1783 26.5615 10.2227 26.693 10.3115C26.8246 10.4003 26.9233 10.5187 26.989 10.6667C27.0581 10.8147 27.0926 10.9775 27.0926 11.1551V12.8423H26.5302V11.2143C26.5302 11.0564 26.4858 10.9232 26.397 10.8147C26.3115 10.7061 26.1833 10.6519 26.0122 10.6519C25.8774 10.6519 25.7672 10.6864 25.6817 10.7555C25.5995 10.8213 25.5386 10.9084 25.4992 11.0169C25.4597 11.1222 25.44 11.2357 25.44 11.3573V12.8423H24.8776ZM28.6422 12.8916C28.4219 12.8916 28.2311 12.8538 28.07 12.7782C27.9121 12.6992 27.7805 12.5956 27.6753 12.4674C27.5733 12.3358 27.496 12.1894 27.4434 12.0283C27.3941 11.8671 27.3694 11.7027 27.3694 11.5349C27.3694 11.3705 27.3941 11.2077 27.4434 11.0465C27.4928 10.8854 27.5684 10.739 27.6704 10.6075C27.7723 10.4759 27.9022 10.3723 28.0601 10.2967C28.218 10.2177 28.4038 10.1783 28.6176 10.1783C28.8478 10.1783 29.05 10.2309 29.2244 10.3361C29.402 10.4381 29.5401 10.591 29.6388 10.7949C29.7407 10.9956 29.7917 11.2455 29.7917 11.5448V11.6977H27.9368C27.9499 11.8984 28.0173 12.071 28.139 12.2157C28.2607 12.3605 28.4284 12.4328 28.6422 12.4328C28.7639 12.4328 28.8642 12.4131 28.9432 12.3736C29.0221 12.3309 29.0829 12.2832 29.1257 12.2305C29.1684 12.1779 29.198 12.1319 29.2145 12.0924C29.2342 12.0529 29.2441 12.0332 29.2441 12.0332H29.767C29.767 12.0332 29.7588 12.0628 29.7424 12.122C29.7259 12.1779 29.6947 12.2486 29.6486 12.3341C29.6059 12.4197 29.5434 12.5052 29.4612 12.5907C29.3789 12.6762 29.2704 12.7486 29.1356 12.8078C29.0007 12.8637 28.8363 12.8916 28.6422 12.8916ZM27.9417 11.3031H29.249C29.2359 11.0729 29.1668 10.9035 29.0418 10.7949C28.9201 10.6864 28.7771 10.6321 28.6126 10.6321C28.4284 10.6321 28.2755 10.693 28.1538 10.8147C28.0321 10.9331 27.9614 11.0959 27.9417 11.3031Z" fill="white"/>
<g clip-path="url(#clip1_401_75)">
<mask id="mask0_401_75" style="mask-type:luminance" maskUnits="userSpaceOnUse" x="7" y="8" width="7" height="6">
<path d="M13.3995 10.9737C13.3995 9.37127 12.1005 8.07227 10.4981 8.07227C8.89568 8.07227 7.59668 9.37127 7.59668 10.9737C7.59668 12.5761 8.89568 13.8751 10.4981 13.8751C12.1005 13.8751 13.3995 12.5761 13.3995 10.9737Z" fill="white"/>
</mask>
<g mask="url(#mask0_401_75)">
<path d="M13.3995 10.9737C13.3995 9.37127 12.1005 8.07227 10.4981 8.07227C8.89568 8.07227 7.59668 9.37127 7.59668 10.9737C7.59668 12.5761 8.89568 13.8751 10.4981 13.8751C12.1005 13.8751 13.3995 12.5761 13.3995 10.9737Z" fill="#9162FF" fill-opacity="0.2"/>
<path d="M9.80234 8.88477L12.8176 15.587H6.78711L9.80234 8.88477Z" fill="#916DFF"/>
<path d="M9.80355 10.0005L12.5173 16.0934H7.08984L9.80355 10.0005Z" fill="#1A112F"/>
<path d="M9.80313 11.3105L10.9568 13.9958H8.64941L9.80313 11.3105Z" fill="#C7B6FB"/>
</g>
</g>
<g clip-path="url(#clip2_401_75)">
<mask id="mask1_401_75" style="mask-type:luminance" maskUnits="userSpaceOnUse" x="17" y="-23" width="35" height="57">
<path d="M51.1513 -22.4233H17.4609V33.2066H51.1513V-22.4233Z" fill="white"/>
</mask>
<g mask="url(#mask1_401_75)">
<path d="M24.288 26.0495C12.8037 26.0495 3.49394 16.7397 3.49394 5.25547C3.49394 -6.22876 12.8037 -15.5386 24.288 -15.5386C35.7722 -15.5386 45.082 -6.22876 45.082 5.25547C45.082 16.7397 35.7722 26.0495 24.288 26.0495Z" stroke="url(#paint5_radial_401_75)" stroke-width="0.0493921"/>
<path d="M22.5221 32.3572C6.72888 32.3572 -6.07403 19.5543 -6.07403 3.76114C-6.07403 -12.0321 6.72888 -24.835 22.5221 -24.835C38.3153 -24.835 51.1182 -12.0321 51.1182 3.76114C51.1182 19.5543 38.3153 32.3572 22.5221 32.3572Z" stroke="url(#paint6_radial_401_75)" stroke-width="0.0679242"/>
</g>
</g>
<path d="M54.5855 74.4307V72.7043H54.8585V74.4307H54.5855ZM55.1537 74.4307V73.1942H55.4197V73.3738H55.4337C55.4445 73.3521 55.4632 73.3256 55.4896 73.2945C55.5161 73.2619 55.5526 73.2331 55.5993 73.2082C55.6475 73.1833 55.7082 73.1709 55.7813 73.1709C55.873 73.1709 55.95 73.1919 56.0122 73.2339C56.0744 73.2759 56.1211 73.3319 56.1522 73.4018C56.1849 73.4718 56.2012 73.5488 56.2012 73.6328V74.4307H55.9352V73.6608C55.9352 73.5861 55.9142 73.5232 55.8722 73.4718C55.8318 73.4205 55.7711 73.3948 55.6903 73.3948C55.6265 73.3948 55.5744 73.4112 55.534 73.4438C55.4951 73.4749 55.4663 73.5162 55.4476 73.5675C55.429 73.6173 55.4197 73.6709 55.4197 73.7285V74.4307H55.1537ZM57.0693 74.454C56.9651 74.454 56.8741 74.4361 56.7963 74.4003C56.7186 74.363 56.654 74.314 56.6027 74.2534C56.5514 74.1912 56.5125 74.1219 56.486 74.0457C56.4612 73.9695 56.4487 73.8918 56.4487 73.8124C56.4487 73.7331 56.4612 73.6554 56.486 73.5791C56.5125 73.5029 56.5514 73.4345 56.6027 73.3738C56.654 73.3116 56.7186 73.2626 56.7963 73.2269C56.8741 73.1895 56.9651 73.1709 57.0693 73.1709C57.1719 73.1709 57.2567 73.1864 57.3236 73.2175C57.392 73.2471 57.4464 73.2844 57.4869 73.3295C57.5273 73.3746 57.5576 73.4197 57.5778 73.4648C57.5981 73.5099 57.6105 73.548 57.6152 73.5791C57.6214 73.6103 57.6245 73.6258 57.6245 73.6258H57.3726C57.3726 73.6258 57.3687 73.6141 57.3609 73.5908C57.3547 73.5675 57.3414 73.5403 57.3212 73.5092C57.301 73.4781 57.2707 73.4508 57.2302 73.4275C57.1914 73.4042 57.1385 73.3925 57.0716 73.3925C56.9923 73.3925 56.9262 73.4127 56.8733 73.4532C56.8204 73.492 56.78 73.5434 56.752 73.6071C56.7256 73.6709 56.7123 73.7393 56.7123 73.8124C56.7123 73.8855 56.7256 73.954 56.752 74.0177C56.78 74.0815 56.8204 74.1336 56.8733 74.174C56.9262 74.2129 56.9923 74.2324 57.0716 74.2324C57.1385 74.2324 57.1914 74.2207 57.2302 74.1974C57.2707 74.174 57.301 74.1468 57.3212 74.1157C57.3414 74.0846 57.3547 74.0574 57.3609 74.0341C57.3687 74.0107 57.3726 73.9991 57.3726 73.9991H57.6245C57.6245 73.9991 57.6214 74.0146 57.6152 74.0457C57.6105 74.0768 57.5981 74.1149 57.5778 74.16C57.5576 74.2051 57.5273 74.2503 57.4869 74.2954C57.4464 74.3405 57.392 74.3786 57.3236 74.4097C57.2567 74.4392 57.1719 74.454 57.0693 74.454ZM57.9002 74.4307L57.9025 72.6576H58.1661V74.4307H57.9002ZM58.6272 72.9819C58.579 72.9819 58.5393 72.9656 58.5082 72.9329C58.4771 72.9003 58.4615 72.8622 58.4615 72.8186C58.4615 72.7735 58.4771 72.7354 58.5082 72.7043C58.5393 72.6716 58.579 72.6553 58.6272 72.6553C58.6754 72.6553 58.715 72.6716 58.7462 72.7043C58.7788 72.7354 58.7951 72.7735 58.7951 72.8186C58.7951 72.8637 58.7788 72.9026 58.7462 72.9353C58.715 72.9664 58.6754 72.9819 58.6272 72.9819ZM58.4965 74.4307V73.1942H58.7625V74.4307H58.4965ZM59.069 74.4307V73.1942H59.335V73.3738H59.349C59.3598 73.3521 59.3785 73.3256 59.4049 73.2945C59.4314 73.2619 59.4679 73.2331 59.5146 73.2082C59.5628 73.1833 59.6235 73.1709 59.6966 73.1709C59.7883 73.1709 59.8653 73.1919 59.9275 73.2339C59.9897 73.2759 60.0364 73.3319 60.0675 73.4018C60.1002 73.4718 60.1165 73.5488 60.1165 73.6328V74.4307H59.8505V73.6608C59.8505 73.5861 59.8295 73.5232 59.7875 73.4718C59.7471 73.4205 59.6865 73.3948 59.6056 73.3948C59.5418 73.3948 59.4897 73.4112 59.4493 73.4438C59.4104 73.4749 59.3816 73.5162 59.363 73.5675C59.3443 73.6173 59.335 73.6709 59.335 73.7285V74.4307H59.069ZM60.9659 74.454C60.8617 74.454 60.7715 74.4361 60.6953 74.4003C60.6206 74.363 60.5584 74.314 60.5087 74.2534C60.4604 74.1912 60.4239 74.1219 60.399 74.0457C60.3757 73.9695 60.364 73.8918 60.364 73.8124C60.364 73.7347 60.3757 73.6577 60.399 73.5815C60.4223 73.5053 60.4581 73.4361 60.5063 73.3738C60.5545 73.3116 60.616 73.2626 60.6906 73.2269C60.7653 73.1895 60.8532 73.1709 60.9543 73.1709C61.0631 73.1709 61.1588 73.1958 61.2412 73.2455C61.3252 73.2938 61.3905 73.3661 61.4372 73.4625C61.4854 73.5574 61.5095 73.6756 61.5095 73.8171V73.8894H60.6323C60.6385 73.9843 60.6704 74.0659 60.728 74.1344C60.7855 74.2028 60.8648 74.237 60.9659 74.237C61.0235 74.237 61.0709 74.2277 61.1082 74.209C61.1456 74.1888 61.1743 74.1663 61.1945 74.1414C61.2148 74.1165 61.2288 74.0947 61.2365 74.0761C61.2459 74.0574 61.2505 74.0481 61.2505 74.0481H61.4978C61.4978 74.0481 61.4939 74.0621 61.4862 74.0901C61.4784 74.1165 61.4636 74.1499 61.4418 74.1904C61.4216 74.2308 61.3921 74.2712 61.3532 74.3117C61.3143 74.3521 61.263 74.3863 61.1992 74.4143C61.1354 74.4408 61.0577 74.454 60.9659 74.454ZM60.6346 73.7028H61.2529C61.2466 73.5939 61.214 73.5138 61.1549 73.4625C61.0973 73.4112 61.0297 73.3855 60.9519 73.3855C60.8648 73.3855 60.7925 73.4143 60.735 73.4718C60.6774 73.5278 60.644 73.6048 60.6346 73.7028ZM62.7481 74.4307V72.9423H62.2116V72.7043H63.5553V72.9423H63.0187V74.4307H62.7481ZM64.1371 74.454C64.0329 74.454 63.9426 74.4361 63.8664 74.4003C63.7918 74.363 63.7296 74.314 63.6798 74.2534C63.6316 74.1912 63.595 74.1219 63.5702 74.0457C63.5468 73.9695 63.5352 73.8918 63.5352 73.8124C63.5352 73.7347 63.5468 73.6577 63.5702 73.5815C63.5935 73.5053 63.6293 73.4361 63.6775 73.3738C63.7257 73.3116 63.7871 73.2626 63.8618 73.2269C63.9364 73.1895 64.0243 73.1709 64.1254 73.1709C64.2343 73.1709 64.3299 73.1958 64.4123 73.2455C64.4963 73.2938 64.5616 73.3661 64.6083 73.4625C64.6565 73.5574 64.6806 73.6756 64.6806 73.8171V73.8894H63.8034C63.8097 73.9843 63.8416 74.0659 63.8991 74.1344C63.9566 74.2028 64.036 74.237 64.1371 74.237C64.1946 74.237 64.242 74.2277 64.2794 74.209C64.3167 74.1888 64.3455 74.1663 64.3657 74.1414C64.3859 74.1165 64.3999 74.0947 64.4077 74.0761C64.417 74.0574 64.4217 74.0481 64.4217 74.0481H64.669C64.669 74.0481 64.6651 74.0621 64.6573 74.0901C64.6495 74.1165 64.6347 74.1499 64.613 74.1904C64.5928 74.2308 64.5632 74.2712 64.5243 74.3117C64.4854 74.3521 64.4341 74.3863 64.3703 74.4143C64.3066 74.4408 64.2288 74.454 64.1371 74.454ZM63.8058 73.7028H64.424C64.4178 73.5939 64.3851 73.5138 64.326 73.4625C64.2685 73.4112 64.2008 73.3855 64.1231 73.3855C64.036 73.3855 63.9636 73.4143 63.9061 73.4718C63.8486 73.5278 63.8151 73.6048 63.8058 73.7028ZM65.4565 73.1709C65.5343 73.1709 65.5988 73.1833 65.6502 73.2082C65.703 73.2331 65.745 73.2619 65.7761 73.2945C65.8072 73.3272 65.8298 73.3552 65.8438 73.3785H65.8578V73.1942H66.1237V74.4307H65.8578V74.2464H65.8438C65.8298 74.2697 65.8072 74.2977 65.7761 74.3303C65.745 74.363 65.703 74.3918 65.6502 74.4167C65.5988 74.4416 65.5343 74.454 65.4565 74.454C65.3632 74.454 65.2816 74.4361 65.2116 74.4003C65.1431 74.363 65.0856 74.314 65.0389 74.2534C64.9923 74.1912 64.9573 74.1219 64.934 74.0457C64.9122 73.9695 64.9013 73.8918 64.9013 73.8124C64.9013 73.7331 64.9122 73.6554 64.934 73.5791C64.9573 73.5029 64.9923 73.4345 65.0389 73.3738C65.0856 73.3116 65.1431 73.2626 65.2116 73.2269C65.2816 73.1895 65.3632 73.1709 65.4565 73.1709ZM65.5148 73.3925C65.4386 73.3925 65.3749 73.4135 65.3235 73.4555C65.2722 73.4959 65.2333 73.548 65.2069 73.6118C65.182 73.6756 65.1696 73.7425 65.1696 73.8124C65.1696 73.8824 65.182 73.9493 65.2069 74.0131C65.2333 74.0768 65.2722 74.1297 65.3235 74.1717C65.3749 74.2121 65.4386 74.2324 65.5148 74.2324C65.5911 74.2324 65.654 74.2121 65.7038 74.1717C65.7551 74.1297 65.7932 74.0768 65.8181 74.0131C65.8446 73.9493 65.8578 73.8824 65.8578 73.8124C65.8578 73.7425 65.8446 73.6756 65.8181 73.6118C65.7932 73.548 65.7551 73.4959 65.7038 73.4555C65.654 73.4135 65.5911 73.3925 65.5148 73.3925ZM66.4 74.4307V73.1942H66.666V73.3692H66.6753C66.6893 73.3443 66.7096 73.3163 66.736 73.2852C66.764 73.2541 66.8005 73.2277 66.8456 73.2059C66.8907 73.1825 66.9475 73.1709 67.0159 73.1709C67.1077 73.1709 67.1839 73.1927 67.2446 73.2362C67.3052 73.2798 67.3503 73.3373 67.3799 73.4088H67.3845C67.4172 73.3466 67.4646 73.2914 67.5269 73.2432C67.5891 73.195 67.6715 73.1709 67.7741 73.1709C67.8612 73.1709 67.9351 73.1919 67.9958 73.2339C68.0564 73.2743 68.1015 73.3295 68.1311 73.3995C68.1622 73.4679 68.1777 73.5457 68.1777 73.6328V74.4307H67.9118V73.6701C67.9118 73.5893 67.8923 73.5232 67.8535 73.4718C67.8146 73.4205 67.757 73.3948 67.6808 73.3948C67.6186 73.3948 67.5681 73.412 67.5292 73.4462C67.4919 73.4804 67.4646 73.5232 67.4475 73.5745C67.4304 73.6242 67.4219 73.6748 67.4219 73.7261V74.4307H67.1559V73.6701C67.1559 73.5893 67.1365 73.5232 67.0976 73.4718C67.0587 73.4205 67.0012 73.3948 66.925 73.3948C66.8627 73.3948 66.8122 73.412 66.7733 73.4462C66.736 73.4804 66.7088 73.5232 66.6917 73.5745C66.6746 73.6242 66.666 73.6748 66.666 73.7261V74.4307H66.4Z" fill="white"/>
<g clip-path="url(#clip3_401_75)">
<path d="M52.4282 72.4775C52.5127 72.4775 52.5936 72.5111 52.6534 72.5708C52.7131 72.6305 52.7466 72.7115 52.7466 72.796V75.0249C52.7466 75.1093 52.7131 75.1903 52.6534 75.25C52.5936 75.3098 52.5127 75.3433 52.4282 75.3433H50.1993C50.1148 75.3433 50.0338 75.3098 49.9741 75.25C49.9144 75.1903 49.8809 75.1093 49.8809 75.0249V72.796C49.8809 72.7115 49.9144 72.6305 49.9741 72.5708C50.0338 72.5111 50.1148 72.4775 50.1993 72.4775H52.4282ZM52.3486 74.9453V74.1015C52.3486 73.9638 52.2939 73.8318 52.1966 73.7345C52.0992 73.6371 51.9672 73.5824 51.8296 73.5824C51.6942 73.5824 51.5366 73.6652 51.4602 73.7894V73.6127H51.016V74.9453H51.4602V74.1604C51.4602 74.0378 51.5589 73.9375 51.6815 73.9375C51.7406 73.9375 51.7973 73.961 51.8391 74.0028C51.8809 74.0446 51.9044 74.1013 51.9044 74.1604V74.9453H52.3486ZM50.4986 73.3627C50.5695 73.3627 50.6376 73.3346 50.6877 73.2844C50.7379 73.2342 50.7661 73.1662 50.7661 73.0953C50.7661 72.9472 50.6467 72.8262 50.4986 72.8262C50.4272 72.8262 50.3588 72.8546 50.3083 72.905C50.2579 72.9555 50.2295 73.0239 50.2295 73.0953C50.2295 73.2433 50.3505 73.3627 50.4986 73.3627ZM50.7199 74.9453V73.6127H50.2789V74.9453H50.7199Z" fill="url(#paint7_linear_401_75)"/>
</g>
<path d="M77.8179 74.4307V72.7043H78.0909V74.4307H77.8179ZM78.3861 74.4307V73.1942H78.6521V73.3738H78.6661C78.677 73.3521 78.6956 73.3256 78.7221 73.2945C78.7485 73.2619 78.7851 73.2331 78.8317 73.2082C78.8799 73.1833 78.9406 73.1709 79.0137 73.1709C79.1054 73.1709 79.1824 73.1919 79.2446 73.2339C79.3069 73.2759 79.3535 73.3319 79.3846 73.4018C79.4173 73.4718 79.4336 73.5488 79.4336 73.6328V74.4307H79.1677V73.6608C79.1677 73.5861 79.1467 73.5232 79.1047 73.4718C79.0642 73.4205 79.0036 73.3948 78.9227 73.3948C78.8589 73.3948 78.8068 73.4112 78.7664 73.4438C78.7275 73.4749 78.6987 73.5162 78.6801 73.5675C78.6614 73.6173 78.6521 73.6709 78.6521 73.7285V74.4307H78.3861ZM80.3017 74.454C80.1975 74.454 80.1065 74.4361 80.0287 74.4003C79.951 74.363 79.8864 74.314 79.8351 74.2534C79.7838 74.1912 79.7449 74.1219 79.7185 74.0457C79.6936 73.9695 79.6811 73.8918 79.6811 73.8124C79.6811 73.7331 79.6936 73.6554 79.7185 73.5791C79.7449 73.5029 79.7838 73.4345 79.8351 73.3738C79.8864 73.3116 79.951 73.2626 80.0287 73.2269C80.1065 73.1895 80.1975 73.1709 80.3017 73.1709C80.4043 73.1709 80.4891 73.1864 80.556 73.2175C80.6244 73.2471 80.6788 73.2844 80.7193 73.3295C80.7597 73.3746 80.7901 73.4197 80.8103 73.4648C80.8305 73.5099 80.8429 73.548 80.8476 73.5791C80.8538 73.6103 80.8569 73.6258 80.8569 73.6258H80.605C80.605 73.6258 80.6011 73.6141 80.5933 73.5908C80.5871 73.5675 80.5739 73.5403 80.5536 73.5092C80.5334 73.4781 80.5031 73.4508 80.4627 73.4275C80.4238 73.4042 80.3709 73.3925 80.304 73.3925C80.2247 73.3925 80.1586 73.4127 80.1057 73.4532C80.0528 73.492 80.0124 73.5434 79.9844 73.6071C79.958 73.6709 79.9448 73.7393 79.9448 73.8124C79.9448 73.8855 79.958 73.954 79.9844 74.0177C80.0124 74.0815 80.0528 74.1336 80.1057 74.174C80.1586 74.2129 80.2247 74.2324 80.304 74.2324C80.3709 74.2324 80.4238 74.2207 80.4627 74.1974C80.5031 74.174 80.5334 74.1468 80.5536 74.1157C80.5739 74.0846 80.5871 74.0574 80.5933 74.0341C80.6011 74.0107 80.605 73.9991 80.605 73.9991H80.8569C80.8569 73.9991 80.8538 74.0146 80.8476 74.0457C80.8429 74.0768 80.8305 74.1149 80.8103 74.16C80.7901 74.2051 80.7597 74.2503 80.7193 74.2954C80.6788 74.3405 80.6244 74.3786 80.556 74.4097C80.4891 74.4392 80.4043 74.454 80.3017 74.454ZM81.1326 74.4307L81.1349 72.6576H81.3986V74.4307H81.1326ZM81.8596 72.9819C81.8114 72.9819 81.7717 72.9656 81.7406 72.9329C81.7095 72.9003 81.694 72.8622 81.694 72.8186C81.694 72.7735 81.7095 72.7354 81.7406 72.7043C81.7717 72.6716 81.8114 72.6553 81.8596 72.6553C81.9078 72.6553 81.9475 72.6716 81.9786 72.7043C82.0112 72.7354 82.0276 72.7735 82.0276 72.8186C82.0276 72.8637 82.0112 72.9026 81.9786 72.9353C81.9475 72.9664 81.9078 72.9819 81.8596 72.9819ZM81.729 74.4307V73.1942H81.9949V74.4307H81.729ZM82.3014 74.4307V73.1942H82.5674V73.3738H82.5814C82.5923 73.3521 82.6109 73.3256 82.6374 73.2945C82.6638 73.2619 82.7004 73.2331 82.747 73.2082C82.7952 73.1833 82.8559 73.1709 82.929 73.1709C83.0207 73.1709 83.0977 73.1919 83.1599 73.2339C83.2222 73.2759 83.2688 73.3319 83.2999 73.4018C83.3326 73.4718 83.3489 73.5488 83.3489 73.6328V74.4307H83.083V73.6608C83.083 73.5861 83.062 73.5232 83.02 73.4718C82.9795 73.4205 82.9189 73.3948 82.838 73.3948C82.7742 73.3948 82.7221 73.4112 82.6817 73.4438C82.6428 73.4749 82.614 73.5162 82.5954 73.5675C82.5767 73.6173 82.5674 73.6709 82.5674 73.7285V74.4307H82.3014ZM84.1983 74.454C84.0941 74.454 84.0039 74.4361 83.9277 74.4003C83.8531 74.363 83.7909 74.314 83.7411 74.2534C83.6929 74.1912 83.6563 74.1219 83.6314 74.0457C83.6081 73.9695 83.5964 73.8918 83.5964 73.8124C83.5964 73.7347 83.6081 73.6577 83.6314 73.5815C83.6548 73.5053 83.6905 73.4361 83.7388 73.3738C83.787 73.3116 83.8484 73.2626 83.9231 73.2269C83.9977 73.1895 84.0856 73.1709 84.1867 73.1709C84.2955 73.1709 84.3912 73.1958 84.4736 73.2455C84.5576 73.2938 84.6229 73.3661 84.6696 73.4625C84.7178 73.5574 84.7419 73.6756 84.7419 73.8171V73.8894H83.8647C83.8709 73.9843 83.9028 74.0659 83.9604 74.1344C84.0179 74.2028 84.0972 74.237 84.1983 74.237C84.2559 74.237 84.3033 74.2277 84.3406 74.209C84.378 74.1888 84.4067 74.1663 84.427 74.1414C84.4472 74.1165 84.4612 74.0947 84.469 74.0761C84.4783 74.0574 84.483 74.0481 84.483 74.0481H84.7302C84.7302 74.0481 84.7264 74.0621 84.7186 74.0901C84.7108 74.1165 84.696 74.1499 84.6743 74.1904C84.654 74.2308 84.6245 74.2712 84.5856 74.3117C84.5467 74.3521 84.4954 74.3863 84.4316 74.4143C84.3679 74.4408 84.2901 74.454 84.1983 74.454ZM83.8671 73.7028H84.4853C84.4791 73.5939 84.4464 73.5138 84.3873 73.4625C84.3298 73.4112 84.2621 73.3855 84.1843 73.3855C84.0972 73.3855 84.0249 73.4143 83.9674 73.4718C83.9098 73.5278 83.8764 73.6048 83.8671 73.7028ZM85.9805 74.4307V72.9423H85.444V72.7043H86.7877V72.9423H86.2512V74.4307H85.9805ZM87.3695 74.454C87.2653 74.454 87.1751 74.4361 87.0989 74.4003C87.0242 74.363 86.962 74.314 86.9122 74.2534C86.864 74.1912 86.8275 74.1219 86.8026 74.0457C86.7792 73.9695 86.7676 73.8918 86.7676 73.8124C86.7676 73.7347 86.7792 73.6577 86.8026 73.5815C86.8259 73.5053 86.8617 73.4361 86.9099 73.3738C86.9581 73.3116 87.0195 73.2626 87.0942 73.2269C87.1688 73.1895 87.2567 73.1709 87.3578 73.1709C87.4667 73.1709 87.5623 73.1958 87.6448 73.2455C87.7287 73.2938 87.7941 73.3661 87.8407 73.4625C87.8889 73.5574 87.913 73.6756 87.913 73.8171V73.8894H87.0359C87.0421 73.9843 87.074 74.0659 87.1315 74.1344C87.1891 74.2028 87.2684 74.237 87.3695 74.237C87.427 74.237 87.4745 74.2277 87.5118 74.209C87.5491 74.1888 87.5779 74.1663 87.5981 74.1414C87.6183 74.1165 87.6323 74.0947 87.6401 74.0761C87.6494 74.0574 87.6541 74.0481 87.6541 74.0481H87.9014C87.9014 74.0481 87.8975 74.0621 87.8897 74.0901C87.8819 74.1165 87.8672 74.1499 87.8454 74.1904C87.8252 74.2308 87.7956 74.2712 87.7567 74.3117C87.7179 74.3521 87.6665 74.3863 87.6028 74.4143C87.539 74.4408 87.4612 74.454 87.3695 74.454ZM87.0382 73.7028H87.6564C87.6502 73.5939 87.6175 73.5138 87.5584 73.4625C87.5009 73.4112 87.4332 73.3855 87.3555 73.3855C87.2684 73.3855 87.1961 73.4143 87.1385 73.4718C87.081 73.5278 87.0475 73.6048 87.0382 73.7028ZM88.6889 73.1709C88.7667 73.1709 88.8313 73.1833 88.8826 73.2082C88.9355 73.2331 88.9775 73.2619 89.0086 73.2945C89.0397 73.3272 89.0622 73.3552 89.0762 73.3785H89.0902V73.1942H89.3562V74.4307H89.0902V74.2464H89.0762C89.0622 74.2697 89.0397 74.2977 89.0086 74.3303C88.9775 74.363 88.9355 74.3918 88.8826 74.4167C88.8313 74.4416 88.7667 74.454 88.6889 74.454C88.5956 74.454 88.514 74.4361 88.444 74.4003C88.3756 74.363 88.318 74.314 88.2714 74.2534C88.2247 74.1912 88.1897 74.1219 88.1664 74.0457C88.1446 73.9695 88.1337 73.8918 88.1337 73.8124C88.1337 73.7331 88.1446 73.6554 88.1664 73.5791C88.1897 73.5029 88.2247 73.4345 88.2714 73.3738C88.318 73.3116 88.3756 73.2626 88.444 73.2269C88.514 73.1895 88.5956 73.1709 88.6889 73.1709ZM88.7473 73.3925C88.6711 73.3925 88.6073 73.4135 88.556 73.4555C88.5046 73.4959 88.4658 73.548 88.4393 73.6118C88.4144 73.6756 88.402 73.7425 88.402 73.8124C88.402 73.8824 88.4144 73.9493 88.4393 74.0131C88.4658 74.0768 88.5046 74.1297 88.556 74.1717C88.6073 74.2121 88.6711 74.2324 88.7473 74.2324C88.8235 74.2324 88.8865 74.2121 88.9362 74.1717C88.9876 74.1297 89.0257 74.0768 89.0506 74.0131C89.077 73.9493 89.0902 73.8824 89.0902 73.8124C89.0902 73.7425 89.077 73.6756 89.0506 73.6118C89.0257 73.548 88.9876 73.4959 88.9362 73.4555C88.8865 73.4135 88.8235 73.3925 88.7473 73.3925ZM89.6325 74.4307V73.1942H89.8984V73.3692H89.9078C89.9218 73.3443 89.942 73.3163 89.9684 73.2852C89.9964 73.2541 90.033 73.2277 90.0781 73.2059C90.1232 73.1825 90.1799 73.1709 90.2484 73.1709C90.3401 73.1709 90.4163 73.1927 90.477 73.2362C90.5376 73.2798 90.5827 73.3373 90.6123 73.4088H90.617C90.6496 73.3466 90.6971 73.2914 90.7593 73.2432C90.8215 73.195 90.9039 73.1709 91.0066 73.1709C91.0937 73.1709 91.1675 73.1919 91.2282 73.2339C91.2888 73.2743 91.334 73.3295 91.3635 73.3995C91.3946 73.4679 91.4102 73.5457 91.4102 73.6328V74.4307H91.1442V73.6701C91.1442 73.5893 91.1248 73.5232 91.0859 73.4718C91.047 73.4205 90.9895 73.3948 90.9132 73.3948C90.851 73.3948 90.8005 73.412 90.7616 73.4462C90.7243 73.4804 90.6971 73.5232 90.68 73.5745C90.6628 73.6242 90.6543 73.6748 90.6543 73.7261V74.4307H90.3883V73.6701C90.3883 73.5893 90.3689 73.5232 90.33 73.4718C90.2911 73.4205 90.2336 73.3948 90.1574 73.3948C90.0952 73.3948 90.0446 73.412 90.0057 73.4462C89.9684 73.4804 89.9412 73.5232 89.9241 73.5745C89.907 73.6242 89.8984 73.6748 89.8984 73.7261V74.4307H89.6325Z" fill="white"/>
<g clip-path="url(#clip4_401_75)">
<path d="M76.1383 73.9104C76.1383 73.0316 75.425 72.3184 74.5462 72.3184C73.6674 72.3184 72.9541 73.0316 72.9541 73.9104C72.9541 74.681 73.5018 75.3226 74.2278 75.4707V74.3881H73.9094V73.9104H74.2278V73.5124C74.2278 73.2052 74.4777 72.9552 74.785 72.9552H75.183V73.4328H74.8646C74.777 73.4328 74.7054 73.5045 74.7054 73.592V73.9104H75.183V74.3881H74.7054V75.4946C75.5094 75.415 76.1383 74.7367 76.1383 73.9104Z" fill="url(#paint8_linear_401_75)"/>
</g>
<path d="M102.082 74.7759C101.899 74.7759 101.739 74.7464 101.602 74.6873C101.465 74.6297 101.351 74.5512 101.261 74.4517C101.171 74.3521 101.103 74.2401 101.058 74.1157C101.013 73.9913 100.991 73.8645 100.991 73.7355C100.991 73.6033 101.013 73.4742 101.058 73.3482C101.103 73.2222 101.171 73.1087 101.261 73.0076C101.351 72.9065 101.463 72.8264 101.595 72.7673C101.729 72.7066 101.884 72.6763 102.061 72.6763C102.2 72.6763 102.332 72.6989 102.458 72.744C102.584 72.7875 102.696 72.8521 102.794 72.9376C102.892 73.0216 102.969 73.1258 103.025 73.2502C103.083 73.3746 103.111 73.5162 103.111 73.6748C103.111 73.7837 103.095 73.8824 103.062 73.9711C103.031 74.0582 102.983 74.1274 102.918 74.1787C102.854 74.23 102.775 74.2557 102.682 74.2557C102.586 74.2557 102.508 74.2339 102.449 74.1904C102.391 74.1468 102.352 74.0986 102.332 74.0457H102.316C102.31 74.0628 102.293 74.0885 102.267 74.1227C102.24 74.1554 102.202 74.1857 102.152 74.2137C102.103 74.2417 102.04 74.2557 101.964 74.2557C101.864 74.2557 101.782 74.2308 101.716 74.181C101.652 74.1297 101.604 74.0644 101.572 73.9851C101.539 73.9058 101.523 73.8233 101.523 73.7378C101.523 73.6538 101.538 73.5729 101.569 73.4952C101.602 73.4174 101.65 73.3536 101.714 73.3039C101.779 73.2541 101.86 73.2292 101.957 73.2292C102.039 73.2292 102.105 73.2463 102.155 73.2805C102.206 73.3132 102.243 73.3466 102.267 73.3808H102.278V73.2479H102.519V73.6818C102.519 73.7113 102.52 73.7471 102.523 73.7891C102.527 73.8311 102.534 73.8723 102.544 73.9128C102.555 73.9532 102.572 73.9874 102.596 74.0154C102.621 74.0418 102.654 74.0551 102.696 74.0551C102.76 74.0551 102.807 74.0232 102.838 73.9594C102.869 73.8956 102.885 73.8039 102.885 73.6841C102.885 73.5519 102.862 73.4361 102.817 73.3365C102.772 73.237 102.711 73.1538 102.633 73.0869C102.557 73.02 102.469 72.9703 102.369 72.9376C102.271 72.9034 102.169 72.8863 102.061 72.8863C101.923 72.8863 101.802 72.9104 101.698 72.9586C101.593 73.0052 101.506 73.069 101.436 73.1499C101.366 73.2308 101.313 73.3217 101.278 73.4228C101.242 73.5224 101.224 73.625 101.224 73.7308C101.224 73.835 101.241 73.9369 101.275 74.0364C101.311 74.1344 101.364 74.223 101.434 74.3024C101.505 74.3817 101.595 74.4447 101.702 74.4913C101.81 74.5395 101.935 74.5636 102.078 74.5636C102.185 74.5636 102.28 74.5528 102.362 74.531C102.445 74.5092 102.509 74.4874 102.556 74.4657C102.603 74.4454 102.626 74.4353 102.626 74.4353L102.708 74.6313C102.708 74.6313 102.683 74.643 102.633 74.6663C102.585 74.6912 102.514 74.7153 102.421 74.7386C102.327 74.7635 102.215 74.7759 102.082 74.7759ZM102.017 74.0551C102.075 74.0551 102.121 74.0403 102.157 74.0107C102.194 73.9796 102.222 73.94 102.241 73.8918C102.26 73.8435 102.269 73.7938 102.269 73.7425C102.269 73.6911 102.26 73.6421 102.241 73.5955C102.222 73.5473 102.194 73.5076 102.157 73.4765C102.121 73.4454 102.075 73.4298 102.017 73.4298C101.963 73.4298 101.917 73.4454 101.88 73.4765C101.842 73.506 101.814 73.5449 101.796 73.5931C101.777 73.6398 101.768 73.6896 101.768 73.7425C101.768 73.7938 101.777 73.8435 101.796 73.8918C101.814 73.94 101.842 73.9796 101.88 74.0107C101.917 74.0403 101.963 74.0551 102.017 74.0551ZM103.512 72.9819C103.464 72.9819 103.424 72.9656 103.393 72.9329C103.362 72.9003 103.346 72.8622 103.346 72.8186C103.346 72.7735 103.362 72.7354 103.393 72.7043C103.424 72.6716 103.464 72.6553 103.512 72.6553C103.56 72.6553 103.6 72.6716 103.631 72.7043C103.664 72.7354 103.68 72.7735 103.68 72.8186C103.68 72.8637 103.664 72.9026 103.631 72.9353C103.6 72.9664 103.56 72.9819 103.512 72.9819ZM103.381 74.4307V73.1942H103.647V74.4307H103.381ZM103.954 74.4307V73.1942H104.22V73.3738H104.234C104.245 73.3521 104.263 73.3256 104.29 73.2945C104.316 73.2619 104.353 73.2331 104.399 73.2082C104.448 73.1833 104.508 73.1709 104.581 73.1709C104.673 73.1709 104.75 73.1919 104.812 73.2339C104.875 73.2759 104.921 73.3319 104.952 73.4018C104.985 73.4718 105.001 73.5488 105.001 73.6328V74.4307H104.735V73.6608C104.735 73.5861 104.714 73.5232 104.672 73.4718C104.632 73.4205 104.571 73.3948 104.49 73.3948C104.427 73.3948 104.375 73.4112 104.334 73.4438C104.295 73.4749 104.267 73.5162 104.248 73.5675C104.229 73.6173 104.22 73.6709 104.22 73.7285V74.4307H103.954ZM105.869 74.454C105.765 74.454 105.674 74.4361 105.597 74.4003C105.519 74.363 105.454 74.314 105.403 74.2534C105.352 74.1912 105.313 74.1219 105.286 74.0457C105.261 73.9695 105.249 73.8918 105.249 73.8124C105.249 73.7331 105.261 73.6554 105.286 73.5791C105.313 73.5029 105.352 73.4345 105.403 73.3738C105.454 73.3116 105.519 73.2626 105.597 73.2269C105.674 73.1895 105.765 73.1709 105.869 73.1709C105.972 73.1709 106.057 73.1864 106.124 73.2175C106.192 73.2471 106.247 73.2844 106.287 73.3295C106.328 73.3746 106.358 73.4197 106.378 73.4648C106.398 73.5099 106.411 73.548 106.415 73.5791C106.422 73.6103 106.425 73.6258 106.425 73.6258H106.173C106.173 73.6258 106.169 73.6141 106.161 73.5908C106.155 73.5675 106.142 73.5403 106.121 73.5092C106.101 73.4781 106.071 73.4508 106.03 73.4275C105.992 73.4042 105.939 73.3925 105.872 73.3925C105.792 73.3925 105.726 73.4127 105.674 73.4532C105.621 73.492 105.58 73.5434 105.552 73.6071C105.526 73.6709 105.513 73.7393 105.513 73.8124C105.513 73.8855 105.526 73.954 105.552 74.0177C105.58 74.0815 105.621 74.1336 105.674 74.174C105.726 74.2129 105.792 74.2324 105.872 74.2324C105.939 74.2324 105.992 74.2207 106.03 74.1974C106.071 74.174 106.101 74.1468 106.121 74.1157C106.142 74.0846 106.155 74.0574 106.161 74.0341C106.169 74.0107 106.173 73.9991 106.173 73.9991H106.425C106.425 73.9991 106.422 74.0146 106.415 74.0457C106.411 74.0768 106.398 74.1149 106.378 74.16C106.358 74.2051 106.328 74.2503 106.287 74.2954C106.247 74.3405 106.192 74.3786 106.124 74.4097C106.057 74.4392 105.972 74.454 105.869 74.454ZM106.7 74.4307L106.703 72.6576H106.966V74.4307H106.7ZM107.427 72.9819C107.379 72.9819 107.34 72.9656 107.308 72.9329C107.277 72.9003 107.262 72.8622 107.262 72.8186C107.262 72.7735 107.277 72.7354 107.308 72.7043C107.34 72.6716 107.379 72.6553 107.427 72.6553C107.476 72.6553 107.515 72.6716 107.546 72.7043C107.579 72.7354 107.595 72.7735 107.595 72.8186C107.595 72.8637 107.579 72.9026 107.546 72.9353C107.515 72.9664 107.476 72.9819 107.427 72.9819ZM107.297 74.4307V73.1942H107.563V74.4307H107.297ZM107.869 74.4307V73.1942H108.135V73.3738H108.149C108.16 73.3521 108.179 73.3256 108.205 73.2945C108.232 73.2619 108.268 73.2331 108.315 73.2082C108.363 73.1833 108.424 73.1709 108.497 73.1709C108.589 73.1709 108.666 73.1919 108.728 73.2339C108.79 73.2759 108.837 73.3319 108.868 73.4018C108.9 73.4718 108.917 73.5488 108.917 73.6328V74.4307H108.651V73.6608C108.651 73.5861 108.63 73.5232 108.588 73.4718C108.547 73.4205 108.487 73.3948 108.406 73.3948C108.342 73.3948 108.29 73.4112 108.249 73.4438C108.211 73.4749 108.182 73.5162 108.163 73.5675C108.144 73.6173 108.135 73.6709 108.135 73.7285V74.4307H107.869ZM109.766 74.454C109.662 74.454 109.572 74.4361 109.496 74.4003C109.421 74.363 109.359 74.314 109.309 74.2534C109.261 74.1912 109.224 74.1219 109.199 74.0457C109.176 73.9695 109.164 73.8918 109.164 73.8124C109.164 73.7347 109.176 73.6577 109.199 73.5815C109.223 73.5053 109.258 73.4361 109.307 73.3738C109.355 73.3116 109.416 73.2626 109.491 73.2269C109.565 73.1895 109.653 73.1709 109.754 73.1709C109.863 73.1709 109.959 73.1958 110.041 73.2455C110.125 73.2938 110.191 73.3661 110.237 73.4625C110.286 73.5574 110.31 73.6756 110.31 73.8171V73.8894H109.433C109.439 73.9843 109.471 74.0659 109.528 74.1344C109.586 74.2028 109.665 74.237 109.766 74.237C109.824 74.237 109.871 74.2277 109.908 74.209C109.946 74.1888 109.975 74.1663 109.995 74.1414C110.015 74.1165 110.029 74.0947 110.037 74.0761C110.046 74.0574 110.051 74.0481 110.051 74.0481H110.298C110.298 74.0481 110.294 74.0621 110.286 74.0901C110.279 74.1165 110.264 74.1499 110.242 74.1904C110.222 74.2308 110.192 74.2712 110.153 74.3117C110.115 74.3521 110.063 74.3863 109.999 74.4143C109.936 74.4408 109.858 74.454 109.766 74.454ZM109.435 73.7028H110.053C110.047 73.5939 110.014 73.5138 109.955 73.4625C109.898 73.4112 109.83 73.3855 109.752 73.3855C109.665 73.3855 109.593 73.4143 109.535 73.4718C109.478 73.5278 109.444 73.6048 109.435 73.7028ZM111.081 74.454C110.983 74.454 110.905 74.4361 110.846 74.4003C110.786 74.3646 110.744 74.3171 110.717 74.258C110.692 74.1974 110.68 74.132 110.68 74.0621V73.4088H110.463V73.1942H110.68V72.8863H110.946V73.1942H111.235V73.4088H110.946V74.0574C110.946 74.174 111.01 74.2324 111.14 74.2324C111.172 74.2324 111.203 74.23 111.231 74.2254C111.259 74.2207 111.272 74.2184 111.272 74.2184V74.4353C111.272 74.4353 111.253 74.4384 111.214 74.4447C111.177 74.4509 111.133 74.454 111.081 74.454ZM112.054 74.454C111.95 74.454 111.86 74.4361 111.784 74.4003C111.709 74.363 111.647 74.314 111.597 74.2534C111.549 74.1912 111.512 74.1219 111.487 74.0457C111.464 73.9695 111.452 73.8918 111.452 73.8124C111.452 73.7347 111.464 73.6577 111.487 73.5815C111.511 73.5053 111.546 73.4361 111.595 73.3738C111.643 73.3116 111.704 73.2626 111.779 73.2269C111.853 73.1895 111.941 73.1709 112.042 73.1709C112.151 73.1709 112.247 73.1958 112.329 73.2455C112.413 73.2938 112.479 73.3661 112.525 73.4625C112.574 73.5574 112.598 73.6756 112.598 73.8171V73.8894H111.721C111.727 73.9843 111.759 74.0659 111.816 74.1344C111.874 74.2028 111.953 74.237 112.054 74.237C112.112 74.237 112.159 74.2277 112.196 74.209C112.234 74.1888 112.263 74.1663 112.283 74.1414C112.303 74.1165 112.317 74.0947 112.325 74.0761C112.334 74.0574 112.339 74.0481 112.339 74.0481H112.586C112.586 74.0481 112.582 74.0621 112.574 74.0901C112.567 74.1165 112.552 74.1499 112.53 74.1904C112.51 74.2308 112.48 74.2712 112.441 74.3117C112.403 74.3521 112.351 74.3863 112.287 74.4143C112.224 74.4408 112.146 74.454 112.054 74.454ZM111.723 73.7028H112.341C112.335 73.5939 112.302 73.5138 112.243 73.4625C112.186 73.4112 112.118 73.3855 112.04 73.3855C111.953 73.3855 111.881 73.4143 111.823 73.4718C111.766 73.5278 111.732 73.6048 111.723 73.7028ZM113.374 73.1709C113.451 73.1709 113.516 73.1833 113.567 73.2082C113.62 73.2331 113.662 73.2619 113.693 73.2945C113.724 73.3272 113.747 73.3552 113.761 73.3785H113.775V73.1942H114.041V74.4307H113.775V74.2464H113.761C113.747 74.2697 113.724 74.2977 113.693 74.3303C113.662 74.363 113.62 74.3918 113.567 74.4167C113.516 74.4416 113.451 74.454 113.374 74.454C113.28 74.454 113.199 74.4361 113.129 74.4003C113.06 74.363 113.003 74.314 112.956 74.2534C112.909 74.1912 112.874 74.1219 112.851 74.0457C112.829 73.9695 112.818 73.8918 112.818 73.8124C112.818 73.7331 112.829 73.6554 112.851 73.5791C112.874 73.5029 112.909 73.4345 112.956 73.3738C113.003 73.3116 113.06 73.2626 113.129 73.2269C113.199 73.1895 113.28 73.1709 113.374 73.1709ZM113.432 73.3925C113.356 73.3925 113.292 73.4135 113.241 73.4555C113.189 73.4959 113.15 73.548 113.124 73.6118C113.099 73.6756 113.087 73.7425 113.087 73.8124C113.087 73.8824 113.099 73.9493 113.124 74.0131C113.15 74.0768 113.189 74.1297 113.241 74.1717C113.292 74.2121 113.356 74.2324 113.432 74.2324C113.508 74.2324 113.571 74.2121 113.621 74.1717C113.672 74.1297 113.71 74.0768 113.735 74.0131C113.762 73.9493 113.775 73.8824 113.775 73.8124C113.775 73.7425 113.762 73.6756 113.735 73.6118C113.71 73.548 113.672 73.4959 113.621 73.4555C113.571 73.4135 113.508 73.3925 113.432 73.3925ZM114.317 74.4307V73.1942H114.583V73.3692H114.592C114.606 73.3443 114.627 73.3163 114.653 73.2852C114.681 73.2541 114.718 73.2277 114.763 73.2059C114.808 73.1825 114.865 73.1709 114.933 73.1709C115.025 73.1709 115.101 73.1927 115.162 73.2362C115.222 73.2798 115.267 73.3373 115.297 73.4088H115.302C115.334 73.3466 115.382 73.2914 115.444 73.2432C115.506 73.195 115.589 73.1709 115.691 73.1709C115.778 73.1709 115.852 73.1919 115.913 73.2339C115.973 73.2743 116.019 73.3295 116.048 73.3995C116.079 73.4679 116.095 73.5457 116.095 73.6328V74.4307H115.829V73.6701C115.829 73.5893 115.809 73.5232 115.771 73.4718C115.732 73.4205 115.674 73.3948 115.598 73.3948C115.536 73.3948 115.485 73.412 115.446 73.4462C115.409 73.4804 115.382 73.5232 115.365 73.5745C115.347 73.6242 115.339 73.6748 115.339 73.7261V74.4307H115.073V73.6701C115.073 73.5893 115.054 73.5232 115.015 73.4718C114.976 73.4205 114.918 73.3948 114.842 73.3948C114.78 73.3948 114.729 73.412 114.69 73.4462C114.653 73.4804 114.626 73.5232 114.609 73.5745C114.592 73.6242 114.583 73.6748 114.583 73.7261V74.4307H114.317ZM116.486 74.6336V74.4307H117.603V74.6336H116.486Z" fill="white"/>
<g clip-path="url(#clip5_401_75)">
<path d="M99.4449 72.9551C99.3223 73.0109 99.1902 73.0475 99.0533 73.065C99.1934 72.9806 99.3016 72.8469 99.3526 72.6861C99.2204 72.7657 99.074 72.8214 98.9195 72.8532C98.7937 72.7163 98.617 72.6367 98.4164 72.6367C98.0423 72.6367 97.7366 72.9424 97.7366 73.3197C97.7366 73.3739 97.743 73.4264 97.7541 73.4757C97.1873 73.4471 96.6826 73.1748 96.3467 72.7625C96.2878 72.8628 96.2544 72.9806 96.2544 73.1048C96.2544 73.342 96.3738 73.5522 96.5585 73.6716C96.4454 73.6716 96.3403 73.6397 96.248 73.592V73.5967C96.248 73.9279 96.4836 74.2049 96.7957 74.267C96.6955 74.2944 96.5903 74.2982 96.4884 74.2782C96.5316 74.4139 96.6163 74.5326 96.7306 74.6177C96.8448 74.7028 96.9828 74.75 97.1252 74.7526C96.8838 74.9437 96.5846 75.047 96.2767 75.0455C96.2225 75.0455 96.1684 75.0424 96.1143 75.036C96.4168 75.2302 96.7766 75.3433 97.1619 75.3433C98.4164 75.3433 99.1058 74.302 99.1058 73.3993C99.1058 73.3691 99.1058 73.3404 99.1042 73.3102C99.2379 73.2146 99.3526 73.0936 99.4449 72.9551Z" fill="url(#paint9_linear_401_75)"/>
</g>
<path d="M128.426 72.9819C128.378 72.9819 128.338 72.9656 128.307 72.9329C128.276 72.9003 128.26 72.8622 128.26 72.8186C128.26 72.7735 128.276 72.7354 128.307 72.7043C128.338 72.6716 128.378 72.6553 128.426 72.6553C128.474 72.6553 128.514 72.6716 128.545 72.7043C128.578 72.7354 128.594 72.7735 128.594 72.8186C128.594 72.8637 128.578 72.9026 128.545 72.9353C128.514 72.9664 128.474 72.9819 128.426 72.9819ZM128.295 74.4307V73.1942H128.561V74.4307H128.295ZM128.868 74.4307V73.1942H129.134V73.3738H129.148C129.159 73.3521 129.177 73.3256 129.204 73.2945C129.23 73.2619 129.267 73.2331 129.313 73.2082C129.362 73.1833 129.422 73.1709 129.495 73.1709C129.587 73.1709 129.664 73.1919 129.726 73.2339C129.789 73.2759 129.835 73.3319 129.866 73.4018C129.899 73.4718 129.915 73.5488 129.915 73.6328V74.4307H129.649V73.6608C129.649 73.5861 129.628 73.5232 129.586 73.4718C129.546 73.4205 129.485 73.3948 129.404 73.3948C129.341 73.3948 129.289 73.4112 129.248 73.4438C129.209 73.4749 129.181 73.5162 129.162 73.5675C129.143 73.6173 129.134 73.6709 129.134 73.7285V74.4307H128.868ZM130.783 74.454C130.679 74.454 130.588 74.4361 130.511 74.4003C130.433 74.363 130.368 74.314 130.317 74.2534C130.266 74.1912 130.227 74.1219 130.2 74.0457C130.175 73.9695 130.163 73.8918 130.163 73.8124C130.163 73.7331 130.175 73.6554 130.2 73.5791C130.227 73.5029 130.266 73.4345 130.317 73.3738C130.368 73.3116 130.433 73.2626 130.511 73.2269C130.588 73.1895 130.679 73.1709 130.783 73.1709C130.886 73.1709 130.971 73.1864 131.038 73.2175C131.106 73.2471 131.161 73.2844 131.201 73.3295C131.241 73.3746 131.272 73.4197 131.292 73.4648C131.312 73.5099 131.325 73.548 131.329 73.5791C131.336 73.6103 131.339 73.6258 131.339 73.6258H131.087C131.087 73.6258 131.083 73.6141 131.075 73.5908C131.069 73.5675 131.056 73.5403 131.035 73.5092C131.015 73.4781 130.985 73.4508 130.944 73.4275C130.906 73.4042 130.853 73.3925 130.786 73.3925C130.706 73.3925 130.64 73.4127 130.587 73.4532C130.535 73.492 130.494 73.5434 130.466 73.6071C130.44 73.6709 130.427 73.7393 130.427 73.8124C130.427 73.8855 130.44 73.954 130.466 74.0177C130.494 74.0815 130.535 74.1336 130.587 74.174C130.64 74.2129 130.706 74.2324 130.786 74.2324C130.853 74.2324 130.906 74.2207 130.944 74.1974C130.985 74.174 131.015 74.1468 131.035 74.1157C131.056 74.0846 131.069 74.0574 131.075 74.0341C131.083 74.0107 131.087 73.9991 131.087 73.9991H131.339C131.339 73.9991 131.336 74.0146 131.329 74.0457C131.325 74.0768 131.312 74.1149 131.292 74.16C131.272 74.2051 131.241 74.2503 131.201 74.2954C131.161 74.3405 131.106 74.3786 131.038 74.4097C130.971 74.4392 130.886 74.454 130.783 74.454ZM131.614 74.4307L131.617 72.6576H131.88V74.4307H131.614ZM132.341 72.9819C132.293 72.9819 132.253 72.9656 132.222 72.9329C132.191 72.9003 132.176 72.8622 132.176 72.8186C132.176 72.7735 132.191 72.7354 132.222 72.7043C132.253 72.6716 132.293 72.6553 132.341 72.6553C132.39 72.6553 132.429 72.6716 132.46 72.7043C132.493 72.7354 132.509 72.7735 132.509 72.8186C132.509 72.8637 132.493 72.9026 132.46 72.9353C132.429 72.9664 132.39 72.9819 132.341 72.9819ZM132.211 74.4307V73.1942H132.477V74.4307H132.211ZM132.783 74.4307V73.1942H133.049V73.3738H133.063C133.074 73.3521 133.093 73.3256 133.119 73.2945C133.146 73.2619 133.182 73.2331 133.229 73.2082C133.277 73.1833 133.338 73.1709 133.411 73.1709C133.503 73.1709 133.58 73.1919 133.642 73.2339C133.704 73.2759 133.751 73.3319 133.782 73.4018C133.814 73.4718 133.831 73.5488 133.831 73.6328V74.4307H133.565V73.6608C133.565 73.5861 133.544 73.5232 133.502 73.4718C133.461 73.4205 133.401 73.3948 133.32 73.3948C133.256 73.3948 133.204 73.4112 133.163 73.4438C133.125 73.4749 133.096 73.5162 133.077 73.5675C133.058 73.6173 133.049 73.6709 133.049 73.7285V74.4307H132.783ZM134.68 74.454C134.576 74.454 134.486 74.4361 134.409 74.4003C134.335 74.363 134.273 74.314 134.223 74.2534C134.175 74.1912 134.138 74.1219 134.113 74.0457C134.09 73.9695 134.078 73.8918 134.078 73.8124C134.078 73.7347 134.09 73.6577 134.113 73.5815C134.137 73.5053 134.172 73.4361 134.221 73.3738C134.269 73.3116 134.33 73.2626 134.405 73.2269C134.479 73.1895 134.567 73.1709 134.668 73.1709C134.777 73.1709 134.873 73.1958 134.955 73.2455C135.039 73.2938 135.105 73.3661 135.151 73.4625C135.2 73.5574 135.224 73.6756 135.224 73.8171V73.8894H134.346C134.353 73.9843 134.385 74.0659 134.442 74.1344C134.5 74.2028 134.579 74.237 134.68 74.237C134.738 74.237 134.785 74.2277 134.822 74.209C134.86 74.1888 134.889 74.1663 134.909 74.1414C134.929 74.1165 134.943 74.0947 134.951 74.0761C134.96 74.0574 134.965 74.0481 134.965 74.0481H135.212C135.212 74.0481 135.208 74.0621 135.2 74.0901C135.193 74.1165 135.178 74.1499 135.156 74.1904C135.136 74.2308 135.106 74.2712 135.067 74.3117C135.028 74.3521 134.977 74.3863 134.913 74.4143C134.85 74.4408 134.772 74.454 134.68 74.454ZM134.349 73.7028H134.967C134.961 73.5939 134.928 73.5138 134.869 73.4625C134.812 73.4112 134.744 73.3855 134.666 73.3855C134.579 73.3855 134.507 73.4143 134.449 73.4718C134.392 73.5278 134.358 73.6048 134.349 73.7028ZM135.995 74.454C135.897 74.454 135.819 74.4361 135.76 74.4003C135.7 74.3646 135.658 74.3171 135.631 74.258C135.606 74.1974 135.594 74.132 135.594 74.0621V73.4088H135.377V73.1942H135.594V72.8863H135.86V73.1942H136.149V73.4088H135.86V74.0574C135.86 74.174 135.924 74.2324 136.054 74.2324C136.086 74.2324 136.116 74.23 136.144 74.2254C136.172 74.2207 136.186 74.2184 136.186 74.2184V74.4353C136.186 74.4353 136.167 74.4384 136.128 74.4447C136.091 74.4509 136.047 74.454 135.995 74.454ZM136.968 74.454C136.864 74.454 136.774 74.4361 136.697 74.4003C136.623 74.363 136.561 74.314 136.511 74.2534C136.463 74.1912 136.426 74.1219 136.401 74.0457C136.378 73.9695 136.366 73.8918 136.366 73.8124C136.366 73.7347 136.378 73.6577 136.401 73.5815C136.425 73.5053 136.46 73.4361 136.509 73.3738C136.557 73.3116 136.618 73.2626 136.693 73.2269C136.767 73.1895 136.855 73.1709 136.956 73.1709C137.065 73.1709 137.161 73.1958 137.243 73.2455C137.327 73.2938 137.393 73.3661 137.439 73.4625C137.488 73.5574 137.512 73.6756 137.512 73.8171V73.8894H136.634C136.641 73.9843 136.673 74.0659 136.73 74.1344C136.788 74.2028 136.867 74.237 136.968 74.237C137.026 74.237 137.073 74.2277 137.11 74.209C137.148 74.1888 137.177 74.1663 137.197 74.1414C137.217 74.1165 137.231 74.0947 137.239 74.0761C137.248 74.0574 137.253 74.0481 137.253 74.0481H137.5C137.5 74.0481 137.496 74.0621 137.488 74.0901C137.481 74.1165 137.466 74.1499 137.444 74.1904C137.424 74.2308 137.394 74.2712 137.355 74.3117C137.316 74.3521 137.265 74.3863 137.201 74.4143C137.138 74.4408 137.06 74.454 136.968 74.454ZM136.637 73.7028H137.255C137.249 73.5939 137.216 73.5138 137.157 73.4625C137.1 73.4112 137.032 73.3855 136.954 73.3855C136.867 73.3855 136.795 73.4143 136.737 73.4718C136.68 73.5278 136.646 73.6048 136.637 73.7028ZM138.288 73.1709C138.365 73.1709 138.43 73.1833 138.481 73.2082C138.534 73.2331 138.576 73.2619 138.607 73.2945C138.638 73.3272 138.661 73.3552 138.675 73.3785H138.689V73.1942H138.955V74.4307H138.689V74.2464H138.675C138.661 74.2697 138.638 74.2977 138.607 74.3303C138.576 74.363 138.534 74.3918 138.481 74.4167C138.43 74.4416 138.365 74.454 138.288 74.454C138.194 74.454 138.113 74.4361 138.043 74.4003C137.974 74.363 137.917 74.314 137.87 74.2534C137.823 74.1912 137.788 74.1219 137.765 74.0457C137.743 73.9695 137.732 73.8918 137.732 73.8124C137.732 73.7331 137.743 73.6554 137.765 73.5791C137.788 73.5029 137.823 73.4345 137.87 73.3738C137.917 73.3116 137.974 73.2626 138.043 73.2269C138.113 73.1895 138.194 73.1709 138.288 73.1709ZM138.346 73.3925C138.27 73.3925 138.206 73.4135 138.155 73.4555C138.103 73.4959 138.064 73.548 138.038 73.6118C138.013 73.6756 138.001 73.7425 138.001 73.8124C138.001 73.8824 138.013 73.9493 138.038 74.0131C138.064 74.0768 138.103 74.1297 138.155 74.1717C138.206 74.2121 138.27 74.2324 138.346 74.2324C138.422 74.2324 138.485 74.2121 138.535 74.1717C138.586 74.1297 138.624 74.0768 138.649 74.0131C138.676 73.9493 138.689 73.8824 138.689 73.8124C138.689 73.7425 138.676 73.6756 138.649 73.6118C138.624 73.548 138.586 73.4959 138.535 73.4555C138.485 73.4135 138.422 73.3925 138.346 73.3925ZM139.231 74.4307V73.1942H139.497V73.3692H139.506C139.52 73.3443 139.541 73.3163 139.567 73.2852C139.595 73.2541 139.632 73.2277 139.677 73.2059C139.722 73.1825 139.779 73.1709 139.847 73.1709C139.939 73.1709 140.015 73.1927 140.076 73.2362C140.136 73.2798 140.181 73.3373 140.211 73.4088H140.216C140.248 73.3466 140.296 73.2914 140.358 73.2432C140.42 73.195 140.503 73.1709 140.605 73.1709C140.692 73.1709 140.766 73.1919 140.827 73.2339C140.887 73.2743 140.933 73.3295 140.962 73.3995C140.993 73.4679 141.009 73.5457 141.009 73.6328V74.4307H140.743V73.6701C140.743 73.5893 140.723 73.5232 140.685 73.4718C140.646 73.4205 140.588 73.3948 140.512 73.3948C140.45 73.3948 140.399 73.412 140.36 73.4462C140.323 73.4804 140.296 73.5232 140.279 73.5745C140.261 73.6242 140.253 73.6748 140.253 73.7261V74.4307H139.987V73.6701C139.987 73.5893 139.968 73.5232 139.929 73.4718C139.89 73.4205 139.832 73.3948 139.756 73.3948C139.694 73.3948 139.643 73.412 139.604 73.4462C139.567 73.4804 139.54 73.5232 139.523 73.5745C139.506 73.6242 139.497 73.6748 139.497 73.7261V74.4307H139.231Z" fill="white"/>
<g clip-path="url(#clip6_401_75)">
<path d="M125.012 72.3188C124.803 72.3188 124.596 72.36 124.403 72.44C124.21 72.52 124.034 72.6373 123.886 72.7852C123.588 73.0837 123.42 73.4887 123.42 73.9109C123.42 74.6146 123.877 75.2117 124.509 75.4234C124.589 75.4362 124.614 75.3868 124.614 75.3438V75.0748C124.173 75.1703 124.079 74.8614 124.079 74.8614C124.006 74.6767 123.902 74.6274 123.902 74.6274C123.757 74.5287 123.913 74.5319 123.913 74.5319C124.073 74.543 124.157 74.6958 124.157 74.6958C124.296 74.9378 124.53 74.8662 124.62 74.828C124.635 74.7245 124.676 74.6544 124.721 74.6146C124.367 74.5748 123.996 74.4379 123.996 73.8313C123.996 73.6546 124.057 73.5129 124.16 73.3999C124.144 73.3601 124.089 73.1945 124.176 72.9796C124.176 72.9796 124.31 72.9366 124.614 73.142C124.74 73.1069 124.877 73.0894 125.012 73.0894C125.147 73.0894 125.284 73.1069 125.41 73.142C125.714 72.9366 125.848 72.9796 125.848 72.9796C125.935 73.1945 125.88 73.3601 125.864 73.3999C125.967 73.5129 126.028 73.6546 126.028 73.8313C126.028 74.4395 125.655 74.5732 125.3 74.613C125.357 74.6624 125.41 74.7595 125.41 74.9076V75.3438C125.41 75.3868 125.436 75.4377 125.517 75.4234C126.149 75.2101 126.604 74.6146 126.604 73.9109C126.604 73.7019 126.563 73.4948 126.483 73.3017C126.403 73.1085 126.286 72.933 126.138 72.7852C125.99 72.6373 125.814 72.52 125.621 72.44C125.428 72.36 125.221 72.3188 125.012 72.3188Z" fill="url(#paint10_linear_401_75)"/>
</g>
<path d="M10.8352 73.397C10.787 73.397 10.7474 73.3806 10.7163 73.348C10.6852 73.3153 10.6696 73.2772 10.6696 73.2337C10.6696 73.1885 10.6852 73.1504 10.7163 73.1193C10.7474 73.0867 10.787 73.0703 10.8352 73.0703C10.8834 73.0703 10.9231 73.0867 10.9542 73.1193C10.9869 73.1504 11.0032 73.1885 11.0032 73.2337C11.0032 73.2788 10.9869 73.3176 10.9542 73.3503C10.9231 73.3814 10.8834 73.397 10.8352 73.397ZM10.7046 74.8457V73.6093H10.9705V74.8457H10.7046ZM11.2771 74.8457V73.6093H11.543V73.7889H11.557C11.5679 73.7671 11.5866 73.7407 11.613 73.7096C11.6395 73.6769 11.676 73.6481 11.7227 73.6232C11.7709 73.5984 11.8315 73.5859 11.9046 73.5859C11.9964 73.5859 12.0734 73.6069 12.1356 73.6489C12.1978 73.6909 12.2445 73.7469 12.2756 73.8169C12.3082 73.8869 12.3246 73.9639 12.3246 74.0478V74.8457H12.0586V74.0758C12.0586 74.0012 12.0376 73.9382 11.9956 73.8869C11.9552 73.8355 11.8945 73.8099 11.8136 73.8099C11.7499 73.8099 11.6978 73.8262 11.6573 73.8589C11.6185 73.89 11.5897 73.9312 11.571 73.9825C11.5524 74.0323 11.543 74.0859 11.543 74.1435V74.8457H11.2771ZM13.1926 74.869C13.0884 74.869 12.9975 74.8511 12.9197 74.8154C12.8419 74.778 12.7774 74.7291 12.7261 74.6684C12.6747 74.6062 12.6358 74.537 12.6094 74.4608C12.5845 74.3846 12.5721 74.3068 12.5721 74.2275C12.5721 74.1482 12.5845 74.0704 12.6094 73.9942C12.6358 73.918 12.6747 73.8495 12.7261 73.7889C12.7774 73.7267 12.8419 73.6777 12.9197 73.6419C12.9975 73.6046 13.0884 73.5859 13.1926 73.5859C13.2953 73.5859 13.3801 73.6015 13.4469 73.6326C13.5154 73.6621 13.5698 73.6995 13.6102 73.7446C13.6507 73.7897 13.681 73.8348 13.7012 73.8799C13.7214 73.925 13.7339 73.9631 13.7385 73.9942C13.7448 74.0253 13.7479 74.0408 13.7479 74.0408H13.4959C13.4959 74.0408 13.492 74.0292 13.4843 74.0058C13.478 73.9825 13.4648 73.9553 13.4446 73.9242C13.4244 73.8931 13.394 73.8659 13.3536 73.8425C13.3147 73.8192 13.2619 73.8076 13.195 73.8076C13.1157 73.8076 13.0496 73.8278 12.9967 73.8682C12.9438 73.9071 12.9034 73.9584 12.8754 74.0222C12.8489 74.0859 12.8357 74.1544 12.8357 74.2275C12.8357 74.3006 12.8489 74.369 12.8754 74.4328C12.9034 74.4965 12.9438 74.5486 12.9967 74.5891C13.0496 74.628 13.1157 74.6474 13.195 74.6474C13.2619 74.6474 13.3147 74.6357 13.3536 74.6124C13.394 74.5891 13.4244 74.5619 13.4446 74.5308C13.4648 74.4997 13.478 74.4724 13.4843 74.4491C13.492 74.4258 13.4959 74.4141 13.4959 74.4141H13.7479C13.7479 74.4141 13.7448 74.4297 13.7385 74.4608C13.7339 74.4919 13.7214 74.53 13.7012 74.5751C13.681 74.6202 13.6507 74.6653 13.6102 74.7104C13.5698 74.7555 13.5154 74.7936 13.4469 74.8247C13.3801 74.8543 13.2953 74.869 13.1926 74.869ZM14.0235 74.8457L14.0259 73.0727H14.2895V74.8457H14.0235ZM14.7505 73.397C14.7023 73.397 14.6627 73.3806 14.6316 73.348C14.6005 73.3153 14.5849 73.2772 14.5849 73.2337C14.5849 73.1885 14.6005 73.1504 14.6316 73.1193C14.6627 73.0867 14.7023 73.0703 14.7505 73.0703C14.7988 73.0703 14.8384 73.0867 14.8695 73.1193C14.9022 73.1504 14.9185 73.1885 14.9185 73.2337C14.9185 73.2788 14.9022 73.3176 14.8695 73.3503C14.8384 73.3814 14.7988 73.397 14.7505 73.397ZM14.6199 74.8457V73.6093H14.8859V74.8457H14.6199ZM15.1924 74.8457V73.6093H15.4583V73.7889H15.4723C15.4832 73.7671 15.5019 73.7407 15.5283 73.7096C15.5548 73.6769 15.5913 73.6481 15.638 73.6232C15.6862 73.5984 15.7468 73.5859 15.8199 73.5859C15.9117 73.5859 15.9887 73.6069 16.0509 73.6489C16.1131 73.6909 16.1598 73.7469 16.1909 73.8169C16.2235 73.8869 16.2399 73.9639 16.2399 74.0478V74.8457H15.9739V74.0758C15.9739 74.0012 15.9529 73.9382 15.9109 73.8869C15.8705 73.8355 15.8098 73.8099 15.729 73.8099C15.6652 73.8099 15.6131 73.8262 15.5726 73.8589C15.5338 73.89 15.505 73.9312 15.4863 73.9825C15.4677 74.0323 15.4583 74.0859 15.4583 74.1435V74.8457H15.1924ZM17.0893 74.869C16.9851 74.869 16.8949 74.8511 16.8187 74.8154C16.744 74.778 16.6818 74.7291 16.632 74.6684C16.5838 74.6062 16.5473 74.537 16.5224 74.4608C16.4991 74.3846 16.4874 74.3068 16.4874 74.2275C16.4874 74.1497 16.4991 74.0727 16.5224 73.9965C16.5457 73.9203 16.5815 73.8511 16.6297 73.7889C16.6779 73.7267 16.7393 73.6777 16.814 73.6419C16.8887 73.6046 16.9765 73.5859 17.0776 73.5859C17.1865 73.5859 17.2821 73.6108 17.3646 73.6606C17.4486 73.7088 17.5139 73.7811 17.5605 73.8775C17.6087 73.9724 17.6329 74.0906 17.6329 74.2321V74.3045H16.7557C16.7619 74.3993 16.7938 74.481 16.8513 74.5494C16.9089 74.6179 16.9882 74.6521 17.0893 74.6521C17.1468 74.6521 17.1943 74.6427 17.2316 74.6241C17.2689 74.6039 17.2977 74.5813 17.3179 74.5564C17.3381 74.5315 17.3521 74.5098 17.3599 74.4911C17.3692 74.4724 17.3739 74.4631 17.3739 74.4631H17.6212C17.6212 74.4631 17.6173 74.4771 17.6095 74.5051C17.6018 74.5315 17.587 74.565 17.5652 74.6054C17.545 74.6458 17.5154 74.6863 17.4766 74.7267C17.4377 74.7672 17.3863 74.8014 17.3226 74.8294C17.2588 74.8558 17.181 74.869 17.0893 74.869ZM16.758 74.1178H17.3762C17.37 74.009 17.3374 73.9289 17.2783 73.8775C17.2207 73.8262 17.1531 73.8006 17.0753 73.8006C16.9882 73.8006 16.9159 73.8293 16.8583 73.8869C16.8008 73.9429 16.7673 74.0198 16.758 74.1178ZM18.4044 74.869C18.3064 74.869 18.2278 74.8511 18.1687 74.8154C18.1096 74.7796 18.0669 74.7322 18.0404 74.6731C18.0155 74.6124 18.0031 74.5471 18.0031 74.4771V73.8239H17.7861V73.6093H18.0031V73.3013H18.2691V73.6093H18.5583V73.8239H18.2691V74.4724C18.2691 74.5891 18.3336 74.6474 18.4627 74.6474C18.4953 74.6474 18.5257 74.6451 18.5537 74.6404C18.5817 74.6357 18.5957 74.6334 18.5957 74.6334V74.8504C18.5957 74.8504 18.5762 74.8535 18.5373 74.8597C18.5 74.8659 18.4557 74.869 18.4044 74.869ZM19.3773 74.869C19.2731 74.869 19.1829 74.8511 19.1067 74.8154C19.032 74.778 18.9698 74.7291 18.92 74.6684C18.8718 74.6062 18.8353 74.537 18.8104 74.4608C18.7871 74.3846 18.7754 74.3068 18.7754 74.2275C18.7754 74.1497 18.7871 74.0727 18.8104 73.9965C18.8337 73.9203 18.8695 73.8511 18.9177 73.7889C18.9659 73.7267 19.0273 73.6777 19.102 73.6419C19.1767 73.6046 19.2645 73.5859 19.3656 73.5859C19.4745 73.5859 19.5701 73.6108 19.6526 73.6606C19.7366 73.7088 19.8019 73.7811 19.8485 73.8775C19.8967 73.9724 19.9209 74.0906 19.9209 74.2321V74.3045H19.0437C19.0499 74.3993 19.0818 74.481 19.1393 74.5494C19.1969 74.6179 19.2762 74.6521 19.3773 74.6521C19.4348 74.6521 19.4823 74.6427 19.5196 74.6241C19.5569 74.6039 19.5857 74.5813 19.6059 74.5564C19.6261 74.5315 19.6401 74.5098 19.6479 74.4911C19.6572 74.4724 19.6619 74.4631 19.6619 74.4631H19.9092C19.9092 74.4631 19.9053 74.4771 19.8975 74.5051C19.8898 74.5315 19.875 74.565 19.8532 74.6054C19.833 74.6458 19.8034 74.6863 19.7646 74.7267C19.7257 74.7672 19.6743 74.8014 19.6106 74.8294C19.5468 74.8558 19.469 74.869 19.3773 74.869ZM19.046 74.1178H19.6642C19.658 74.009 19.6254 73.9289 19.5663 73.8775C19.5087 73.8262 19.4411 73.8006 19.3633 73.8006C19.2762 73.8006 19.2039 73.8293 19.1463 73.8869C19.0888 73.9429 19.0553 74.0198 19.046 74.1178ZM20.6968 73.5859C20.7745 73.5859 20.8391 73.5984 20.8904 73.6232C20.9433 73.6481 20.9853 73.6769 21.0164 73.7096C21.0475 73.7422 21.07 73.7702 21.084 73.7936H21.098V73.6093H21.364V74.8457H21.098V74.6614H21.084C21.07 74.6847 21.0475 74.7127 21.0164 74.7454C20.9853 74.778 20.9433 74.8068 20.8904 74.8317C20.8391 74.8566 20.7745 74.869 20.6968 74.869C20.6034 74.869 20.5218 74.8511 20.4518 74.8154C20.3834 74.778 20.3258 74.7291 20.2792 74.6684C20.2325 74.6062 20.1975 74.537 20.1742 74.4608C20.1524 74.3846 20.1415 74.3068 20.1415 74.2275C20.1415 74.1482 20.1524 74.0704 20.1742 73.9942C20.1975 73.918 20.2325 73.8495 20.2792 73.7889C20.3258 73.7267 20.3834 73.6777 20.4518 73.6419C20.5218 73.6046 20.6034 73.5859 20.6968 73.5859ZM20.7551 73.8076C20.6789 73.8076 20.6151 73.8285 20.5638 73.8705C20.5125 73.911 20.4736 73.9631 20.4471 74.0268C20.4222 74.0906 20.4098 74.1575 20.4098 74.2275C20.4098 74.2975 20.4222 74.3643 20.4471 74.4281C20.4736 74.4919 20.5125 74.5448 20.5638 74.5867C20.6151 74.6272 20.6789 74.6474 20.7551 74.6474C20.8313 74.6474 20.8943 74.6272 20.944 74.5867C20.9954 74.5448 21.0335 74.4919 21.0584 74.4281C21.0848 74.3643 21.098 74.2975 21.098 74.2275C21.098 74.1575 21.0848 74.0906 21.0584 74.0268C21.0335 73.9631 20.9954 73.911 20.944 73.8705C20.8943 73.8285 20.8313 73.8076 20.7551 73.8076ZM21.6403 74.8457V73.6093H21.9062V73.7842H21.9156C21.9296 73.7593 21.9498 73.7313 21.9762 73.7002C22.0042 73.6691 22.0408 73.6427 22.0859 73.6209C22.131 73.5976 22.1877 73.5859 22.2562 73.5859C22.3479 73.5859 22.4241 73.6077 22.4848 73.6512C22.5455 73.6948 22.5906 73.7523 22.6201 73.8239H22.6248C22.6574 73.7617 22.7049 73.7065 22.7671 73.6582C22.8293 73.61 22.9117 73.5859 23.0144 73.5859C23.1015 73.5859 23.1753 73.6069 23.236 73.6489C23.2967 73.6893 23.3418 73.7446 23.3713 73.8145C23.4024 73.883 23.418 73.9607 23.418 74.0478V74.8457H23.152V74.0852C23.152 74.0043 23.1326 73.9382 23.0937 73.8869C23.0548 73.8355 22.9973 73.8099 22.9211 73.8099C22.8588 73.8099 22.8083 73.827 22.7694 73.8612C22.7321 73.8954 22.7049 73.9382 22.6878 73.9895C22.6707 74.0393 22.6621 74.0898 22.6621 74.1412V74.8457H22.3961V74.0852C22.3961 74.0043 22.3767 73.9382 22.3378 73.8869C22.2989 73.8355 22.2414 73.8099 22.1652 73.8099C22.103 73.8099 22.0524 73.827 22.0135 73.8612C21.9762 73.8954 21.949 73.9382 21.9319 73.9895C21.9148 74.0393 21.9062 74.0898 21.9062 74.1412V74.8457H21.6403ZM23.8882 74.869C23.84 74.869 23.7995 74.8527 23.7669 74.82C23.7358 74.7858 23.7202 74.7462 23.7202 74.7011C23.7202 74.6544 23.7358 74.6147 23.7669 74.5821C23.7995 74.5494 23.84 74.5331 23.8882 74.5331C23.9364 74.5331 23.9761 74.5494 24.0072 74.5821C24.0398 74.6147 24.0562 74.6544 24.0562 74.7011C24.0562 74.7477 24.0398 74.7874 24.0072 74.82C23.9761 74.8527 23.9364 74.869 23.8882 74.869ZM24.7415 74.8457L24.2772 73.6093H24.5502L24.8861 74.5354L25.2151 73.6093H25.4903L25.0238 74.8457H24.7415ZM26.2102 74.869C26.106 74.869 26.0158 74.8511 25.9396 74.8154C25.8649 74.778 25.8027 74.7291 25.753 74.6684C25.7047 74.6062 25.6682 74.537 25.6433 74.4608C25.62 74.3846 25.6083 74.3068 25.6083 74.2275C25.6083 74.1497 25.62 74.0727 25.6433 73.9965C25.6666 73.9203 25.7024 73.8511 25.7506 73.7889C25.7988 73.7267 25.8603 73.6777 25.9349 73.6419C26.0096 73.6046 26.0975 73.5859 26.1985 73.5859C26.3074 73.5859 26.4031 73.6108 26.4855 73.6606C26.5695 73.7088 26.6348 73.7811 26.6815 73.8775C26.7297 73.9724 26.7538 74.0906 26.7538 74.2321V74.3045H25.8766C25.8828 74.3993 25.9147 74.481 25.9723 74.5494C26.0298 74.6179 26.1091 74.6521 26.2102 74.6521C26.2678 74.6521 26.3152 74.6427 26.3525 74.6241C26.3898 74.6039 26.4186 74.5813 26.4388 74.5564C26.4591 74.5315 26.4731 74.5098 26.4808 74.4911C26.4902 74.4724 26.4948 74.4631 26.4948 74.4631H26.7421C26.7421 74.4631 26.7382 74.4771 26.7305 74.5051C26.7227 74.5315 26.7079 74.565 26.6861 74.6054C26.6659 74.6458 26.6364 74.6863 26.5975 74.7267C26.5586 74.7672 26.5073 74.8014 26.4435 74.8294C26.3797 74.8558 26.302 74.869 26.2102 74.869ZM25.8789 74.1178H26.4972C26.4909 74.009 26.4583 73.9289 26.3992 73.8775C26.3416 73.8262 26.274 73.8006 26.1962 73.8006C26.1091 73.8006 26.0368 73.8293 25.9792 73.8869C25.9217 73.9429 25.8883 74.0198 25.8789 74.1178ZM27.0068 74.8457V73.6093H27.2728V73.7726H27.2821C27.3054 73.7243 27.342 73.6816 27.3918 73.6442C27.4431 73.6054 27.517 73.5859 27.6134 73.5859C27.6429 73.5859 27.6678 73.5875 27.688 73.5906C27.7098 73.5937 27.7207 73.5953 27.7207 73.5953V73.8519C27.7207 73.8519 27.709 73.8503 27.6857 73.8472C27.6624 73.8441 27.6359 73.8425 27.6064 73.8425C27.4975 73.8425 27.4143 73.8737 27.3568 73.9359C27.3008 73.9965 27.2728 74.0953 27.2728 74.2321V74.8457H27.0068ZM28.4349 74.869C28.3307 74.869 28.2397 74.8511 28.1619 74.8154C28.0841 74.778 28.0196 74.7291 27.9683 74.6684C27.9169 74.6062 27.8781 74.537 27.8516 74.4608C27.8267 74.3846 27.8143 74.3068 27.8143 74.2275C27.8143 74.1482 27.8267 74.0704 27.8516 73.9942C27.8781 73.918 27.9169 73.8495 27.9683 73.7889C28.0196 73.7267 28.0841 73.6777 28.1619 73.6419C28.2397 73.6046 28.3307 73.5859 28.4349 73.5859C28.5375 73.5859 28.6223 73.6015 28.6891 73.6326C28.7576 73.6621 28.812 73.6995 28.8524 73.7446C28.8929 73.7897 28.9232 73.8348 28.9434 73.8799C28.9637 73.925 28.9761 73.9631 28.9808 73.9942C28.987 74.0253 28.9901 74.0408 28.9901 74.0408H28.7381C28.7381 74.0408 28.7342 74.0292 28.7265 74.0058C28.7203 73.9825 28.707 73.9553 28.6868 73.9242C28.6666 73.8931 28.6363 73.8659 28.5958 73.8425C28.5569 73.8192 28.5041 73.8076 28.4372 73.8076C28.3579 73.8076 28.2918 73.8278 28.2389 73.8682C28.186 73.9071 28.1456 73.9584 28.1176 74.0222C28.0911 74.0859 28.0779 74.1544 28.0779 74.2275C28.0779 74.3006 28.0911 74.369 28.1176 74.4328C28.1456 74.4965 28.186 74.5486 28.2389 74.5891C28.2918 74.628 28.3579 74.6474 28.4372 74.6474C28.5041 74.6474 28.5569 74.6357 28.5958 74.6124C28.6363 74.5891 28.6666 74.5619 28.6868 74.5308C28.707 74.4997 28.7203 74.4724 28.7265 74.4491C28.7342 74.4258 28.7381 74.4141 28.7381 74.4141H28.9901C28.9901 74.4141 28.987 74.4297 28.9808 74.4608C28.9761 74.4919 28.9637 74.53 28.9434 74.5751C28.9232 74.6202 28.8929 74.6653 28.8524 74.7104C28.812 74.7555 28.7576 74.7936 28.6891 74.8247C28.6223 74.8543 28.5375 74.869 28.4349 74.869ZM29.8188 74.869C29.7146 74.869 29.6244 74.8511 29.5482 74.8154C29.4735 74.778 29.4113 74.7291 29.3615 74.6684C29.3133 74.6062 29.2768 74.537 29.2519 74.4608C29.2285 74.3846 29.2169 74.3068 29.2169 74.2275C29.2169 74.1497 29.2285 74.0727 29.2519 73.9965C29.2752 73.9203 29.311 73.8511 29.3592 73.7889C29.4074 73.7267 29.4688 73.6777 29.5435 73.6419C29.6181 73.6046 29.706 73.5859 29.8071 73.5859C29.916 73.5859 30.0116 73.6108 30.0941 73.6606C30.178 73.7088 30.2434 73.7811 30.29 73.8775C30.3382 73.9724 30.3623 74.0906 30.3623 74.2321V74.3045H29.4852C29.4914 74.3993 29.5233 74.481 29.5808 74.5494C29.6384 74.6179 29.7177 74.6521 29.8188 74.6521C29.8763 74.6521 29.9238 74.6427 29.9611 74.6241C29.9984 74.6039 30.0272 74.5813 30.0474 74.5564C30.0676 74.5315 30.0816 74.5098 30.0894 74.4911C30.0987 74.4724 30.1034 74.4631 30.1034 74.4631H30.3507C30.3507 74.4631 30.3468 74.4771 30.339 74.5051C30.3312 74.5315 30.3165 74.565 30.2947 74.6054C30.2745 74.6458 30.2449 74.6863 30.206 74.7267C30.1672 74.7672 30.1158 74.8014 30.0521 74.8294C29.9883 74.8558 29.9105 74.869 29.8188 74.869ZM29.4875 74.1178H30.1057C30.0995 74.009 30.0668 73.9289 30.0077 73.8775C29.9502 73.8262 29.8825 73.8006 29.8048 73.8006C29.7177 73.8006 29.6454 73.8293 29.5878 73.8869C29.5303 73.9429 29.4968 74.0198 29.4875 74.1178ZM30.6342 74.8457L30.6365 73.0727H30.9001V74.8457H30.6342ZM31.3938 74.869C31.3456 74.869 31.3052 74.8527 31.2725 74.82C31.2414 74.7858 31.2259 74.7462 31.2259 74.7011C31.2259 74.6544 31.2414 74.6147 31.2725 74.5821C31.3052 74.5494 31.3456 74.5331 31.3938 74.5331C31.442 74.5331 31.4817 74.5494 31.5128 74.5821C31.5455 74.6147 31.5618 74.6544 31.5618 74.7011C31.5618 74.7477 31.5455 74.7874 31.5128 74.82C31.4817 74.8527 31.442 74.869 31.3938 74.869ZM32.3988 73.5859C32.4765 73.5859 32.5411 73.5984 32.5924 73.6232C32.6453 73.6481 32.6873 73.6769 32.7184 73.7096C32.7495 73.7422 32.772 73.7702 32.786 73.7936H32.8V73.6093H33.066V74.8457H32.8V74.6614H32.786C32.772 74.6847 32.7495 74.7127 32.7184 74.7454C32.6873 74.778 32.6453 74.8068 32.5924 74.8317C32.5411 74.8566 32.4765 74.869 32.3988 74.869C32.3054 74.869 32.2238 74.8511 32.1538 74.8154C32.0854 74.778 32.0278 74.7291 31.9812 74.6684C31.9345 74.6062 31.8995 74.537 31.8762 74.4608C31.8544 74.3846 31.8435 74.3068 31.8435 74.2275C31.8435 74.1482 31.8544 74.0704 31.8762 73.9942C31.8995 73.918 31.9345 73.8495 31.9812 73.7889C32.0278 73.7267 32.0854 73.6777 32.1538 73.6419C32.2238 73.6046 32.3054 73.5859 32.3988 73.5859ZM32.4571 73.8076C32.3809 73.8076 32.3171 73.8285 32.2658 73.8705C32.2145 73.911 32.1756 73.9631 32.1491 74.0268C32.1242 74.0906 32.1118 74.1575 32.1118 74.2275C32.1118 74.2975 32.1242 74.3643 32.1491 74.4281C32.1756 74.4919 32.2145 74.5448 32.2658 74.5867C32.3171 74.6272 32.3809 74.6474 32.4571 74.6474C32.5333 74.6474 32.5963 74.6272 32.646 74.5867C32.6974 74.5448 32.7355 74.4919 32.7604 74.4281C32.7868 74.3643 32.8 74.2975 32.8 74.2275C32.8 74.1575 32.7868 74.0906 32.7604 74.0268C32.7355 73.9631 32.6974 73.911 32.646 73.8705C32.5963 73.8285 32.5333 73.8076 32.4571 73.8076ZM33.3656 75.303V73.6093H33.6316V73.7936H33.6456C33.6611 73.7702 33.6837 73.7422 33.7132 73.7096C33.7443 73.6769 33.7855 73.6481 33.8369 73.6232C33.8897 73.5984 33.9558 73.5859 34.0352 73.5859C34.1269 73.5859 34.2078 73.6046 34.2778 73.6419C34.3478 73.6777 34.4053 73.7267 34.4504 73.7889C34.4971 73.8495 34.5313 73.918 34.5531 73.9942C34.5764 74.0704 34.5881 74.1482 34.5881 74.2275C34.5881 74.3068 34.5764 74.3846 34.5531 74.4608C34.5313 74.537 34.4971 74.6062 34.4504 74.6684C34.4053 74.7291 34.3478 74.778 34.2778 74.8154C34.2078 74.8511 34.1269 74.869 34.0352 74.869C33.9558 74.869 33.8897 74.8566 33.8369 74.8317C33.7855 74.8068 33.7443 74.778 33.7132 74.7454C33.6837 74.7127 33.6611 74.6847 33.6456 74.6614H33.6316V75.303H33.3656ZM33.6316 74.2275C33.6316 74.2975 33.644 74.3643 33.6689 74.4281C33.6953 74.4919 33.7334 74.5448 33.7832 74.5867C33.8345 74.6272 33.8983 74.6474 33.9745 74.6474C34.0523 74.6474 34.116 74.6272 34.1658 74.5867C34.2171 74.5448 34.2552 74.4919 34.2801 74.4281C34.3066 74.3643 34.3198 74.2975 34.3198 74.2275C34.3198 74.1575 34.3066 74.0906 34.2801 74.0268C34.2552 73.9631 34.2171 73.911 34.1658 73.8705C34.116 73.8285 34.0523 73.8076 33.9745 73.8076C33.8983 73.8076 33.8345 73.8285 33.7832 73.8705C33.7334 73.911 33.6953 73.9631 33.6689 74.0268C33.644 74.0906 33.6316 74.1575 33.6316 74.2275ZM34.8593 75.303V73.6093H35.1253V73.7936H35.1393C35.1548 73.7702 35.1774 73.7422 35.2069 73.7096C35.238 73.6769 35.2792 73.6481 35.3306 73.6232C35.3834 73.5984 35.4495 73.5859 35.5289 73.5859C35.6206 73.5859 35.7015 73.6046 35.7715 73.6419C35.8415 73.6777 35.899 73.7267 35.9441 73.7889C35.9908 73.8495 36.025 73.918 36.0468 73.9942C36.0701 74.0704 36.0818 74.1482 36.0818 74.2275C36.0818 74.3068 36.0701 74.3846 36.0468 74.4608C36.025 74.537 35.9908 74.6062 35.9441 74.6684C35.899 74.7291 35.8415 74.778 35.7715 74.8154C35.7015 74.8511 35.6206 74.869 35.5289 74.869C35.4495 74.869 35.3834 74.8566 35.3306 74.8317C35.2792 74.8068 35.238 74.778 35.2069 74.7454C35.1774 74.7127 35.1548 74.6847 35.1393 74.6614H35.1253V75.303H34.8593ZM35.1253 74.2275C35.1253 74.2975 35.1377 74.3643 35.1626 74.4281C35.189 74.4919 35.2271 74.5448 35.2769 74.5867C35.3282 74.6272 35.392 74.6474 35.4682 74.6474C35.546 74.6474 35.6097 74.6272 35.6595 74.5867C35.7108 74.5448 35.7489 74.4919 35.7738 74.4281C35.8003 74.3643 35.8135 74.2975 35.8135 74.2275C35.8135 74.1575 35.8003 74.0906 35.7738 74.0268C35.7489 73.9631 35.7108 73.911 35.6595 73.8705C35.6097 73.8285 35.546 73.8076 35.4682 73.8076C35.392 73.8076 35.3282 73.8285 35.2769 73.8705C35.2271 73.911 35.189 73.9631 35.1626 74.0268C35.1377 74.0906 35.1253 74.1575 35.1253 74.2275Z" fill="white"/>
<g clip-path="url(#clip7_401_75)">
<path d="M7.43344 75.5324C8.09297 75.5324 8.62763 74.9978 8.62763 74.3382C8.62763 73.6787 8.09297 73.144 7.43344 73.144C6.77391 73.144 6.23926 73.6787 6.23926 74.3382C6.23926 74.9978 6.77391 75.5324 7.43344 75.5324Z" stroke="url(#paint11_linear_401_75)" stroke-width="0.245066" stroke-linecap="round" stroke-linejoin="round"/>
<path d="M6.23926 74.3382H8.62763M7.43344 73.144C7.73214 73.4711 7.90189 73.8954 7.91112 74.3382C7.90189 74.781 7.73214 75.2054 7.43344 75.5324C7.13474 75.2054 6.96499 74.781 6.95577 74.3382C6.96499 73.8954 7.13474 73.4711 7.43344 73.144Z" stroke="url(#paint12_linear_401_75)" stroke-width="0.245066" stroke-linecap="round" stroke-linejoin="round"/>
</g>
<rect width="0.122533" height="3.73725" transform="matrix(-1 0 0 1 43.9277 72.478)" fill="#382E56"/>
</g>
<defs>
<filter id="filter0_f_401_75" x="74.6922" y="-25.8459" width="106.285" height="99.7089" filterUnits="userSpaceOnUse" color-interpolation-filters="sRGB">
<feFlood flood-opacity="0" result="BackgroundImageFix"/>
<feBlend mode="normal" in="SourceGraphic" in2="BackgroundImageFix" result="shape"/>
<feGaussianBlur stdDeviation="18.8658" result="effect1_foregroundBlur_401_75"/>
</filter>
<filter id="filter1_f_401_75" x="58.2805" y="-7.39774" width="108.509" height="101.795" filterUnits="userSpaceOnUse" color-interpolation-filters="sRGB">
<feFlood flood-opacity="0" result="BackgroundImageFix"/>
<feBlend mode="normal" in="SourceGraphic" in2="BackgroundImageFix" result="shape"/>
<feGaussianBlur stdDeviation="19.2606" result="effect1_foregroundBlur_401_75"/>
</filter>
<radialGradient id="paint0_diamond_401_75" cx="0" cy="0" r="1" gradientUnits="userSpaceOnUse" gradientTransform="translate(74.5 -3.34689e-06) rotate(90) scale(83.8125 149)">
<stop stop-color="#2A1663" stop-opacity="0.35"/>
<stop offset="1" stop-color="#2A1663" stop-opacity="0.21"/>
</radialGradient>
<linearGradient id="paint1_linear_401_75" x1="16.2965" y1="33.4749" x2="68.3134" y2="31.5398" gradientUnits="userSpaceOnUse">
<stop stop-color="white" stop-opacity="0.75"/>
<stop offset="1" stop-color="white"/>
</linearGradient>
<linearGradient id="paint2_linear_401_75" x1="124.086" y1="20.0952" x2="124.086" y2="33.2063" gradientUnits="userSpaceOnUse">
<stop stop-color="white"/>
<stop offset="1" stop-color="white" stop-opacity="0.74"/>
</linearGradient>
<linearGradient id="paint3_linear_401_75" x1="115.199" y1="41.9062" x2="115.199" y2="56.5212" gradientUnits="userSpaceOnUse">
<stop stop-color="white"/>
<stop offset="1" stop-color="white" stop-opacity="0.51"/>
</linearGradient>
<linearGradient id="paint4_linear_401_75" x1="119.699" y1="49.793" x2="119.699" y2="58.5709" gradientUnits="userSpaceOnUse">
<stop stop-color="white"/>
<stop offset="1" stop-color="white" stop-opacity="0.51"/>
</linearGradient>
<radialGradient id="paint5_radial_401_75" cx="0" cy="0" r="1" gradientUnits="userSpaceOnUse" gradientTransform="translate(37.9408 17.6856) rotate(-110.104) scale(15.1173)">
<stop stop-color="white"/>
<stop offset="1" stop-color="#A181FF" stop-opacity="0"/>
</radialGradient>
<radialGradient id="paint6_radial_401_75" cx="0" cy="0" r="1" gradientUnits="userSpaceOnUse" gradientTransform="translate(43.8503 6.85168) rotate(129.865) scale(33.274)">
<stop stop-color="white"/>
<stop offset="1" stop-color="#A181FF" stop-opacity="0"/>
</radialGradient>
<linearGradient id="paint7_linear_401_75" x1="51.3137" y1="72.4775" x2="51.3137" y2="75.3433" gradientUnits="userSpaceOnUse">
<stop stop-color="#7E84FF"/>
<stop offset="1" stop-color="#4937B1"/>
</linearGradient>
<linearGradient id="paint8_linear_401_75" x1="74.5462" y1="72.3184" x2="74.5462" y2="75.4946" gradientUnits="userSpaceOnUse">
<stop stop-color="#73A2FF"/>
<stop offset="1" stop-color="#4881EF"/>
</linearGradient>
<linearGradient id="paint9_linear_401_75" x1="97.7796" y1="72.6367" x2="97.7796" y2="75.3433" gradientUnits="userSpaceOnUse">
<stop stop-color="#85F8FF"/>
<stop offset="1" stop-color="#2E989E"/>
</linearGradient>
<linearGradient id="paint10_linear_401_75" x1="125.012" y1="72.3188" x2="125.012" y2="75.4259" gradientUnits="userSpaceOnUse">
<stop stop-color="#F2F2F2"/>
<stop offset="1" stop-color="#50555C"/>
</linearGradient>
<linearGradient id="paint11_linear_401_75" x1="7.43344" y1="73.144" x2="7.43344" y2="75.5324" gradientUnits="userSpaceOnUse">
<stop stop-color="#FFDBB9"/>
<stop offset="1" stop-color="#CCA542"/>
</linearGradient>
<linearGradient id="paint12_linear_401_75" x1="7.43344" y1="73.144" x2="7.43344" y2="75.5324" gradientUnits="userSpaceOnUse">
<stop stop-color="#FFDBB9"/>
<stop offset="1" stop-color="#CCA542"/>
</linearGradient>
<clipPath id="clip0_401_75">
<rect width="149" height="83.8125" fill="white"/>
</clipPath>
<clipPath id="clip1_401_75">
<rect width="5.80281" height="5.80281" fill="white" transform="translate(7.59668 8.07227)"/>
</clipPath>
<clipPath id="clip2_401_75">
<rect width="33.6904" height="55.6299" fill="white" transform="translate(17.4609 -22.4233)"/>
</clipPath>
<clipPath id="clip3_401_75">
<rect width="3.82101" height="3.82101" fill="white" transform="translate(49.4033 72)"/>
</clipPath>
<clipPath id="clip4_401_75">
<rect width="3.82101" height="3.82101" fill="white" transform="translate(72.6357 72)"/>
</clipPath>
<clipPath id="clip5_401_75">
<rect width="3.82101" height="3.82101" fill="white" transform="translate(95.8691 72)"/>
</clipPath>
<clipPath id="clip6_401_75">
<rect width="3.82101" height="3.82101" fill="white" transform="translate(123.102 72)"/>
</clipPath>
<clipPath id="clip7_401_75">
<rect width="2.86604" height="2.86604" fill="white" transform="translate(6 72.9053)"/>
</clipPath>
</defs>
</svg>
