<svg width="355" height="260" viewBox="0 0 355 260" fill="none" xmlns="http://www.w3.org/2000/svg">
<path d="M197.093 12.7539L279.399 168.912C279.931 169.92 279.536 171.168 278.522 171.688V171.688C277.507 172.208 276.264 171.799 275.756 170.778L197.093 12.7539Z" fill="url(#paint0_linear_7_9)"/>
<path d="M90.3586 170.916L120.897 101.375C121.289 100.484 122.337 100.089 123.219 100.501V100.501C124.102 100.913 124.472 101.97 124.041 102.842L90.3586 170.916Z" fill="url(#paint1_linear_7_9)"/>
<g filter="url(#filter0_d_7_9)">
<path d="M177.5 11L331.22 352.688H23.7805L177.5 11Z" fill="url(#paint2_linear_7_9)"/>
<path d="M24.4736 352.239L177.5 12.0925L330.526 352.239H24.4736Z" stroke="url(#paint3_linear_7_9)" stroke-opacity="0.6" stroke-width="0.896465"/>
</g>
<path d="M177.5 52.4167L315.847 363.042H39.1519L177.5 52.4167Z" fill="url(#paint4_linear_7_9)"/>
<path d="M39.8423 362.593L177.5 53.5184L315.157 362.593H39.8423Z" stroke="url(#paint5_linear_7_9)" stroke-opacity="0.6" stroke-width="0.896465"/>
<path d="M177.501 93.833L259.484 284.646H95.5169L177.501 93.833Z" fill="url(#paint6_linear_7_9)"/>
<path d="M96.1974 284.197L177.501 94.9685L258.804 284.197H96.1974Z" stroke="url(#paint7_linear_7_9)" stroke-opacity="0.6" stroke-width="0.896465"/>
<defs>
<filter id="filter0_d_7_9" x="19.2982" y="0.242424" width="316.404" height="352.445" filterUnits="userSpaceOnUse" color-interpolation-filters="sRGB">
<feFlood flood-opacity="0" result="BackgroundImageFix"/>
<feColorMatrix in="SourceAlpha" type="matrix" values="0 0 0 0 0 0 0 0 0 0 0 0 0 0 0 0 0 0 127 0" result="hardAlpha"/>
<feOffset dy="-6.27525"/>
<feGaussianBlur stdDeviation="2.24116"/>
<feComposite in2="hardAlpha" operator="out"/>
<feColorMatrix type="matrix" values="0 0 0 0 0 0 0 0 0 0 0 0 0 0 0 0 0 0 0.25 0"/>
<feBlend mode="normal" in2="BackgroundImageFix" result="effect1_dropShadow_7_9"/>
<feBlend mode="normal" in="SourceGraphic" in2="effect1_dropShadow_7_9" result="shape"/>
</filter>
<linearGradient id="paint0_linear_7_9" x1="197.093" y1="12.7539" x2="278.522" y2="171.688" gradientUnits="userSpaceOnUse">
<stop stop-color="#C2ADFF"/>
<stop offset="1" stop-color="#8D65FF"/>
</linearGradient>
<linearGradient id="paint1_linear_7_9" x1="90.3586" y1="170.916" x2="123.219" y2="100.501" gradientUnits="userSpaceOnUse">
<stop stop-color="#BBA3FF"/>
<stop offset="1" stop-color="#8D65FF"/>
</linearGradient>
<linearGradient id="paint2_linear_7_9" x1="177.5" y1="11" x2="178.331" y2="279.443" gradientUnits="userSpaceOnUse">
<stop stop-color="#5A40A4"/>
<stop offset="1" stop-color="#190C3E"/>
</linearGradient>
<linearGradient id="paint3_linear_7_9" x1="216.397" y1="100.064" x2="125.014" y2="181.681" gradientUnits="userSpaceOnUse">
<stop stop-color="#E6DDFF"/>
<stop offset="1" stop-color="#E6DDFF" stop-opacity="0"/>
</linearGradient>
<linearGradient id="paint4_linear_7_9" x1="177.5" y1="52.4167" x2="178.263" y2="296.456" gradientUnits="userSpaceOnUse">
<stop stop-color="#8F67FF"/>
<stop offset="1" stop-color="#4318BC" stop-opacity="0"/>
</linearGradient>
<linearGradient id="paint5_linear_7_9" x1="214.199" y1="125.824" x2="142.937" y2="211.747" gradientUnits="userSpaceOnUse">
<stop stop-color="#9779ED"/>
<stop offset="1" stop-color="#9779ED" stop-opacity="0"/>
</linearGradient>
<linearGradient id="paint6_linear_7_9" x1="177.501" y1="93.833" x2="171.253" y2="259.742" gradientUnits="userSpaceOnUse">
<stop stop-color="#EFEAFF"/>
<stop offset="1" stop-color="#BEA7FF" stop-opacity="0.4"/>
</linearGradient>
<linearGradient id="paint7_linear_7_9" x1="206.588" y1="156.529" x2="139.154" y2="215.948" gradientUnits="userSpaceOnUse">
<stop stop-color="white"/>
<stop offset="1" stop-color="#E6DDFF" stop-opacity="0"/>
</linearGradient>
</defs>
</svg>
