<svg width="52" height="53" viewBox="0 0 52 53" fill="none" xmlns="http://www.w3.org/2000/svg">
<rect width="52" height="52" transform="translate(0 0.5)" fill="#1C113D"/>
<path fill-rule="evenodd" clip-rule="evenodd" d="M26.7477 15.4167L18.5836 13L16.5836 18.3333H36.7503L34.5003 13L26.7477 15.4167ZM36.9659 19.3333H16.3681L9.50029 23.1667H43.2504L36.9659 19.3333ZM27.7738 29.3207C27.6143 29.2909 27.4541 29.2658 27.2933 29.2454C26.6542 29.1643 26.0074 29.1573 25.3659 29.2248C25.3152 29.2301 25.2645 29.2359 25.2139 29.2422L25.0795 29.2588L23.1372 29.4992C23.2605 29.7727 23.3688 30.0545 23.4609 30.3435C23.5908 30.7511 23.6886 31.173 23.7513 31.6064C23.8054 31.9798 23.8334 32.3617 23.8334 32.7502C23.8334 37.1224 20.2889 40.6669 15.9167 40.6669C11.5444 40.6669 8 37.1224 8 32.7502C8 28.3779 11.5444 24.8335 15.9167 24.8335C18.2643 24.8335 20.3733 25.8554 21.8231 27.4786C22.0476 27.73 22.2562 27.9957 22.4476 28.2743L22.9784 28.2165L24.9427 28.0026C24.9814 27.9984 25.0202 27.9944 25.059 27.9905C26.0407 27.8937 27.031 27.9238 28.0053 28.0802L28.0457 28.0868L29.7075 28.3596L30.1172 28.4269C30.2918 28.1596 30.482 27.9036 30.6867 27.66C32.1389 25.9319 34.3163 24.8334 36.7503 24.8334C41.1226 24.8334 44.667 28.3779 44.667 32.7501C44.667 37.1224 41.1226 40.6668 36.7503 40.6668C32.3781 40.6668 28.8336 37.1224 28.8336 32.7501C28.8336 32.406 28.8556 32.067 28.8982 31.7345C28.9538 31.2999 29.0447 30.8763 29.1679 30.4667C29.2532 30.1831 29.354 29.9062 29.4692 29.637L27.8411 29.3332L27.7738 29.3207ZM20.6614 29.5008L20.9519 29.9238L21.1621 30.3899C21.4856 31.1073 21.6667 31.9046 21.6667 32.7502C21.6667 35.9258 19.0923 38.5002 15.9167 38.5002C12.741 38.5002 10.1667 35.9258 10.1667 32.7502C10.1667 29.5745 12.741 27.0002 15.9167 27.0002C17.8839 27.0002 19.6214 27.9862 20.6614 29.5008ZM31.461 30.4897L31.6575 30.0309L31.9313 29.6116C32.9612 28.0346 34.7355 27.0001 36.7503 27.0001C39.926 27.0001 42.5003 29.5745 42.5003 32.7501C42.5003 35.9258 39.926 38.5001 36.7503 38.5001C33.5747 38.5001 31.0003 35.9258 31.0003 32.7501C31.0003 31.9434 31.1652 31.1807 31.461 30.4897Z" fill="white"/>
</svg>
