<svg width="118" height="117" viewBox="0 0 118 117" fill="none" xmlns="http://www.w3.org/2000/svg">
<g filter="url(#filter0_di_162_240)">
<g clip-path="url(#clip0_162_240)">
<rect x="9.41667" y="5.41667" width="99.1667" height="99.1667" rx="24.5833" fill="url(#paint0_linear_162_240)" stroke="url(#paint1_radial_162_240)" stroke-width="0.833333"/>
<path fill-rule="evenodd" clip-rule="evenodd" d="M16.9167 13.3333H9V12.9167H16.9167V5H17.3333V12.9167H25.25V5H25.6667V12.9167H33.5833V5H34V12.9167H41.9167V5H42.3333V12.9167H50.25V5H50.6667V12.9167H58.5833V5H59V12.9167H66.9167V5H67.3333V12.9167H75.25V5H75.6667V12.9167H83.5833V5H84V12.9167H91.9167V5H92.3333V12.9167H100.25V5H100.667V12.9167H108.583V5H109V12.9167V13.3333V21.25V21.6667V29.5833V30V37.9167V38.3333V46.25V46.6667V54.5833V55V62.9167V63.3333V71.25V71.6667V79.5833V80V87.9167V88.3333V96.25V96.6667V104.583V105V112.917V113.333H108.583H100.667H100.25H92.3333H91.9167H84H83.5833H75.6667H75.25H67.3333H66.9167H59H58.5833H50.6667H50.25H42.3333H41.9167H34H33.5833H25.6667H25.25H17.3333H16.9167H9V112.917H16.9167V105H9V104.583H16.9167V96.6667H9V96.25H16.9167V88.3333H9V87.9167H16.9167V80H9V79.5833H16.9167V71.6667H9V71.25H16.9167V63.3333H9V62.9167H16.9167V55H9V54.5833H16.9167V46.6667H9V46.25H16.9167V38.3333H9V37.9167H16.9167V30H9V29.5833H16.9167V21.6667H9V21.25H16.9167V13.3333ZM108.583 105H100.667V112.917H108.583V105ZM92.3333 105H100.25V112.917H92.3333V105ZM91.9167 105H84V112.917H91.9167V105ZM75.6667 105H83.5833V112.917H75.6667V105ZM75.25 105H67.3333V112.917H75.25V105ZM59 105H66.9167V112.917H59V105ZM58.5833 105H50.6667V112.917H58.5833V105ZM42.3333 105H50.25V112.917H42.3333V105ZM41.9167 105H34V112.917H41.9167V105ZM25.6667 105H33.5833V112.917H25.6667V105ZM25.25 105H17.3333V112.917H25.25V105ZM108.583 96.6667H100.667V104.583H108.583V96.6667ZM92.3333 96.6667H100.25V104.583H92.3333V96.6667ZM91.9167 96.6667H84V104.583H91.9167V96.6667ZM75.6667 96.6667H83.5833V104.583H75.6667V96.6667ZM75.25 96.6667H67.3333V104.583H75.25V96.6667ZM59 96.6667H66.9167V104.583H59V96.6667ZM58.5833 96.6667H50.6667V104.583H58.5833V96.6667ZM42.3333 96.6667H50.25V104.583H42.3333V96.6667ZM41.9167 96.6667H34V104.583H41.9167V96.6667ZM25.6667 96.6667H33.5833V104.583H25.6667V96.6667ZM25.25 96.6667L17.3333 96.6667V104.583L25.25 104.583V96.6667ZM108.583 88.3333H100.667V96.25H108.583V88.3333ZM92.3333 88.3333H100.25V96.25H92.3333V88.3333ZM91.9167 88.3333H84V96.25H91.9167V88.3333ZM75.6667 88.3333H83.5833V96.25H75.6667V88.3333ZM75.25 88.3333H67.3333V96.25H75.25V88.3333ZM59 88.3333H66.9167V96.25H59V88.3333ZM58.5833 88.3333H50.6667V96.25H58.5833V88.3333ZM42.3333 88.3333H50.25V96.25H42.3333V88.3333ZM41.9167 88.3333H34V96.25H41.9167V88.3333ZM25.6667 88.3333H33.5833V96.25H25.6667V88.3333ZM25.25 88.3333H17.3333V96.25H25.25V88.3333ZM108.583 80H100.667V87.9167H108.583V80ZM92.3333 80H100.25V87.9167H92.3333V80ZM91.9167 80H84V87.9167H91.9167V80ZM75.6667 80H83.5833V87.9167H75.6667V80ZM75.25 80H67.3333V87.9167H75.25V80ZM59 80H66.9167V87.9167H59V80ZM58.5833 80H50.6667V87.9167H58.5833V80ZM42.3333 80H50.25V87.9167H42.3333V80ZM41.9167 80H34V87.9167H41.9167V80ZM25.6667 80H33.5833V87.9167H25.6667V80ZM25.25 80H17.3333V87.9167H25.25V80ZM108.583 71.6667H100.667V79.5833H108.583V71.6667ZM92.3333 71.6667H100.25V79.5833H92.3333V71.6667ZM91.9167 71.6667H84V79.5833H91.9167V71.6667ZM75.6667 71.6667H83.5833V79.5833H75.6667V71.6667ZM75.25 71.6667H67.3333V79.5833H75.25V71.6667ZM59 71.6667H66.9167V79.5833H59V71.6667ZM58.5833 71.6667H50.6667V79.5833H58.5833V71.6667ZM42.3333 71.6667H50.25V79.5833H42.3333V71.6667ZM41.9167 71.6667H34V79.5833H41.9167V71.6667ZM25.6667 71.6667H33.5833V79.5833H25.6667V71.6667ZM25.25 71.6667H17.3333V79.5833L25.25 79.5833V71.6667ZM108.583 63.3333H100.667V71.25H108.583V63.3333ZM92.3333 63.3333H100.25V71.25H92.3333V63.3333ZM91.9167 63.3333H84V71.25H91.9167V63.3333ZM75.6667 63.3333H83.5833V71.25H75.6667V63.3333ZM75.25 63.3333H67.3333V71.25H75.25V63.3333ZM59 63.3333H66.9167V71.25H59V63.3333ZM58.5833 63.3333H50.6667V71.25H58.5833V63.3333ZM42.3333 63.3333H50.25V71.25H42.3333V63.3333ZM41.9167 63.3333H34V71.25H41.9167V63.3333ZM25.6667 63.3333H33.5833V71.25H25.6667V63.3333ZM25.25 63.3333H17.3333V71.25H25.25V63.3333ZM108.583 55H100.667V62.9167H108.583V55ZM92.3333 55H100.25V62.9167H92.3333V55ZM91.9167 55H84V62.9167H91.9167V55ZM75.6667 55H83.5833V62.9167H75.6667V55ZM75.25 55H67.3333V62.9167H75.25V55ZM59 55H66.9167V62.9167H59V55ZM58.5833 55H50.6667V62.9167H58.5833V55ZM42.3333 55H50.25V62.9167H42.3333V55ZM41.9167 55H34V62.9167H41.9167V55ZM25.6667 55H33.5833V62.9167H25.6667V55ZM25.25 55H17.3333V62.9167H25.25V55ZM108.583 46.6667H100.667V54.5833H108.583V46.6667ZM92.3333 46.6667H100.25V54.5833H92.3333V46.6667ZM91.9167 46.6667H84V54.5833H91.9167V46.6667ZM75.6667 46.6667H83.5833V54.5833H75.6667V46.6667ZM75.25 46.6667H67.3333V54.5833H75.25V46.6667ZM59 46.6667H66.9167V54.5833H59V46.6667ZM58.5833 46.6667H50.6667V54.5833H58.5833V46.6667ZM42.3333 46.6667H50.25V54.5833H42.3333V46.6667ZM41.9167 46.6667H34V54.5833H41.9167V46.6667ZM25.6667 46.6667H33.5833V54.5833H25.6667V46.6667ZM25.25 46.6667L17.3333 46.6667V54.5833L25.25 54.5833V46.6667ZM108.583 38.3333H100.667V46.25H108.583V38.3333ZM92.3333 38.3333H100.25V46.25H92.3333V38.3333ZM91.9167 38.3333H84V46.25H91.9167V38.3333ZM75.6667 38.3333H83.5833V46.25H75.6667V38.3333ZM75.25 38.3333H67.3333V46.25H75.25V38.3333ZM59 38.3333H66.9167V46.25H59V38.3333ZM58.5833 38.3333H50.6667V46.25H58.5833V38.3333ZM42.3333 38.3333H50.25V46.25H42.3333V38.3333ZM41.9167 38.3333H34V46.25H41.9167V38.3333ZM25.6667 38.3333H33.5833V46.25H25.6667V38.3333ZM25.25 38.3333H17.3333V46.25H25.25V38.3333ZM108.583 30H100.667V37.9167H108.583V30ZM92.3333 30H100.25V37.9167H92.3333V30ZM91.9167 30H84V37.9167H91.9167V30ZM75.6667 30H83.5833V37.9167H75.6667V30ZM75.25 30H67.3333V37.9167H75.25V30ZM59 30H66.9167V37.9167H59V30ZM58.5833 30H50.6667V37.9167H58.5833V30ZM42.3333 30H50.25V37.9167H42.3333V30ZM41.9167 30H34V37.9167H41.9167V30ZM25.6667 30H33.5833V37.9167H25.6667V30ZM25.25 30L17.3333 30V37.9167H25.25V30ZM108.583 21.6667H100.667V29.5833H108.583V21.6667ZM92.3333 21.6667H100.25V29.5833H92.3333V21.6667ZM91.9167 21.6667H84V29.5833H91.9167V21.6667ZM75.6667 21.6667H83.5833V29.5833H75.6667V21.6667ZM75.25 21.6667H67.3333V29.5833H75.25V21.6667ZM59 21.6667H66.9167V29.5833H59V21.6667ZM58.5833 21.6667H50.6667V29.5833H58.5833V21.6667ZM42.3333 21.6667H50.25V29.5833H42.3333V21.6667ZM41.9167 21.6667H34V29.5833H41.9167V21.6667ZM25.6667 21.6667H33.5833V29.5833H25.6667V21.6667ZM25.25 21.6667L17.3333 21.6667V29.5833L25.25 29.5833V21.6667ZM108.583 13.3333H100.667V21.25H108.583V13.3333ZM92.3333 13.3333H100.25V21.25H92.3333V13.3333ZM91.9167 13.3333H84V21.25H91.9167V13.3333ZM75.6667 13.3333H83.5833V21.25H75.6667V13.3333ZM75.25 13.3333H67.3333V21.25H75.25V13.3333ZM59 13.3333H66.9167V21.25H59V13.3333ZM58.5833 13.3333H50.6667V21.25H58.5833V13.3333ZM42.3333 13.3333H50.25V21.25H42.3333V13.3333ZM41.9167 13.3333H34V21.25H41.9167V13.3333ZM25.6667 13.3333H33.5833V21.25H25.6667V13.3333ZM25.25 13.3333H17.3333V21.25H25.25V13.3333Z" fill="url(#paint2_radial_162_240)" fill-opacity="0.3"/>
<g filter="url(#filter1_f_162_240)">
<path d="M118.455 96.3286L92.8299 111.548L38.8585 38.4064L43.2082 37.0445L118.455 96.3286Z" fill="url(#paint3_linear_162_240)"/>
</g>
<g clip-path="url(#clip1_162_240)">
<g filter="url(#filter2_d_162_240)">
<path d="M43.5753 36.8082C43.4302 36.3725 43.1517 35.9936 42.7792 35.7251C42.4067 35.4565 41.9591 35.312 41.4999 35.312C41.0407 35.312 40.5932 35.4565 40.2207 35.7251C39.8482 35.9936 39.5696 36.3725 39.4245 36.8082L28.487 69.6207C28.3774 69.9496 28.3475 70.2997 28.3998 70.6424C28.4521 70.9851 28.585 71.3104 28.7877 71.5916C28.9904 71.8728 29.257 72.1018 29.5656 72.2597C29.8741 72.4177 30.2158 72.5 30.5624 72.5H52.4374C52.784 72.5 53.1257 72.4177 53.4343 72.2597C53.7428 72.1018 54.0095 71.8728 54.2121 71.5916C54.4148 71.3104 54.5478 70.9851 54.6001 70.6424C54.6523 70.2997 54.6224 69.9496 54.5128 69.6207L43.5753 36.8082ZM33.5976 68.125L41.4999 44.418L49.4023 68.125H33.5976ZM80.8749 40.7813C80.8749 37.9691 80.041 35.22 78.4786 32.8817C76.9163 30.5435 74.6956 28.721 72.0974 27.6448C69.4993 26.5687 66.6404 26.2871 63.8822 26.8357C61.1241 27.3843 58.5905 28.7386 56.602 30.7271C54.6135 32.7156 53.2593 35.2491 52.7106 38.0073C52.162 40.7655 52.4436 43.6244 53.5198 46.2225C54.5959 48.8207 56.4184 51.0413 58.7567 52.6037C61.0949 54.1661 63.844 55 66.6562 55C70.4259 54.9957 74.04 53.4962 76.7055 50.8306C79.3711 48.165 80.8706 44.551 80.8749 40.7813ZM56.8124 40.7813C56.8124 38.8343 57.3897 36.9312 58.4714 35.3124C59.553 33.6936 61.0904 32.4319 62.8891 31.6868C64.6878 30.9418 66.6671 30.7468 68.5766 31.1267C70.4861 31.5065 72.2401 32.444 73.6167 33.8207C74.9934 35.1973 75.931 36.9513 76.3108 38.8608C76.6906 40.7703 76.4957 42.7496 75.7506 44.5483C75.0056 46.347 73.7439 47.8844 72.1251 48.966C70.5063 50.0477 68.6031 50.625 66.6562 50.625C64.0454 50.625 61.5416 49.5879 59.6956 47.7418C57.8495 45.8958 56.8124 43.392 56.8124 40.7813ZM85.2499 59.375H61.1874C60.6073 59.375 60.0509 59.6055 59.6406 60.0157C59.2304 60.4259 58.9999 60.9823 58.9999 61.5625V76.875C58.9999 77.4552 59.2304 78.0116 59.6406 78.4218C60.0509 78.832 60.6073 79.0625 61.1874 79.0625H85.2499C85.8301 79.0625 86.3865 78.832 86.7967 78.4218C87.207 78.0116 87.4374 77.4552 87.4374 76.875V61.5625C87.4374 60.9823 87.207 60.4259 86.7967 60.0157C86.3865 59.6055 85.8301 59.375 85.2499 59.375ZM83.0624 74.6875H63.3749V63.75H83.0624V74.6875Z" fill="url(#paint4_linear_162_240)"/>
</g>
</g>
</g>
</g>
<defs>
<filter id="filter0_di_162_240" x="0.666666" y="-4.76837e-07" width="116.667" height="116.667" filterUnits="userSpaceOnUse" color-interpolation-filters="sRGB">
<feFlood flood-opacity="0" result="BackgroundImageFix"/>
<feColorMatrix in="SourceAlpha" type="matrix" values="0 0 0 0 0 0 0 0 0 0 0 0 0 0 0 0 0 0 127 0" result="hardAlpha"/>
<feOffset dy="3.33333"/>
<feGaussianBlur stdDeviation="4.16667"/>
<feComposite in2="hardAlpha" operator="out"/>
<feColorMatrix type="matrix" values="0 0 0 0 0.0913145 0 0 0 0 0.0498264 0 0 0 0 0.170833 0 0 0 0.3 0"/>
<feBlend mode="normal" in2="BackgroundImageFix" result="effect1_dropShadow_162_240"/>
<feBlend mode="normal" in="SourceGraphic" in2="effect1_dropShadow_162_240" result="shape"/>
<feColorMatrix in="SourceAlpha" type="matrix" values="0 0 0 0 0 0 0 0 0 0 0 0 0 0 0 0 0 0 127 0" result="hardAlpha"/>
<feOffset/>
<feGaussianBlur stdDeviation="3.33333"/>
<feComposite in2="hardAlpha" operator="arithmetic" k2="-1" k3="1"/>
<feColorMatrix type="matrix" values="0 0 0 0 0.231351 0 0 0 0 0.151424 0 0 0 0 0.408333 0 0 0 1 0"/>
<feBlend mode="normal" in2="shape" result="effect2_innerShadow_162_240"/>
</filter>
<filter id="filter1_f_162_240" x="13.0253" y="11.2111" width="131.263" height="126.171" filterUnits="userSpaceOnUse" color-interpolation-filters="sRGB">
<feFlood flood-opacity="0" result="BackgroundImageFix"/>
<feBlend mode="normal" in="SourceGraphic" in2="BackgroundImageFix" result="shape"/>
<feGaussianBlur stdDeviation="12.9167" result="effect1_foregroundBlur_162_240"/>
</filter>
<filter id="filter2_d_162_240" x="14.2048" y="12.3925" width="87.4027" height="80.84" filterUnits="userSpaceOnUse" color-interpolation-filters="sRGB">
<feFlood flood-opacity="0" result="BackgroundImageFix"/>
<feColorMatrix in="SourceAlpha" type="matrix" values="0 0 0 0 0 0 0 0 0 0 0 0 0 0 0 0 0 0 127 0" result="hardAlpha"/>
<feOffset/>
<feGaussianBlur stdDeviation="7.085"/>
<feComposite in2="hardAlpha" operator="out"/>
<feColorMatrix type="matrix" values="0 0 0 0 0.0981598 0 0 0 0 0.0578125 0 0 0 0 0.1875 0 0 0 1 0"/>
<feBlend mode="normal" in2="BackgroundImageFix" result="effect1_dropShadow_162_240"/>
<feBlend mode="normal" in="SourceGraphic" in2="effect1_dropShadow_162_240" result="shape"/>
</filter>
<linearGradient id="paint0_linear_162_240" x1="59" y1="5" x2="59" y2="105" gradientUnits="userSpaceOnUse">
<stop stop-color="#2D1F4A"/>
<stop offset="1" stop-color="#1C0E3C"/>
</linearGradient>
<radialGradient id="paint1_radial_162_240" cx="0" cy="0" r="1" gradientUnits="userSpaceOnUse" gradientTransform="translate(103 95.5) rotate(-138.608) scale(39.3224)">
<stop stop-color="#DCCCFF"/>
<stop offset="1" stop-color="#BAA3EC" stop-opacity="0.27"/>
</radialGradient>
<radialGradient id="paint2_radial_162_240" cx="0" cy="0" r="1" gradientUnits="userSpaceOnUse" gradientTransform="translate(101.5 94) rotate(-129.611) scale(75.2861 69.4949)">
<stop stop-color="#9076C9"/>
<stop offset="1" stop-color="#9076C9" stop-opacity="0"/>
</radialGradient>
<linearGradient id="paint3_linear_162_240" x1="114.668" y1="121.824" x2="44.6885" y2="38.1149" gradientUnits="userSpaceOnUse">
<stop stop-color="#462D7C"/>
<stop offset="1" stop-color="#9162FF" stop-opacity="0.3"/>
</linearGradient>
<linearGradient id="paint4_linear_162_240" x1="57.9061" y1="26.5625" x2="57.9061" y2="79.0625" gradientUnits="userSpaceOnUse">
<stop stop-color="#E2C16B"/>
<stop offset="1" stop-color="#A348C2"/>
</linearGradient>
<clipPath id="clip0_162_240">
<path d="M9 30C9 16.1929 20.1929 5 34 5H84C97.8071 5 109 16.1929 109 30V80C109 93.8071 97.8071 105 84 105H34C20.1929 105 9 93.8071 9 80V30Z" fill="white"/>
</clipPath>
<clipPath id="clip1_162_240">
<rect width="70" height="70" fill="white" transform="translate(24 20)"/>
</clipPath>
</defs>
</svg>
