<svg width="53" height="53" viewBox="0 0 53 53" fill="none" xmlns="http://www.w3.org/2000/svg">
<rect width="52" height="52" transform="translate(0.5 0.5)" fill="#7241FF"/>
<path fill-rule="evenodd" clip-rule="evenodd" d="M28.9845 36.3751C28.0337 36.6546 27.0274 36.8045 25.9862 36.8045C20.1235 36.8045 15.3709 32.0519 15.3709 26.1893C15.3709 20.3267 20.1235 15.5741 25.9862 15.5741C31.336 15.5741 35.7616 19.5317 36.4948 24.679L37.3195 23.3945C37.4314 23.2203 37.7013 23.2996 37.7013 23.5066V32.7644C37.7013 32.8789 37.7942 32.9718 37.9087 32.9718H41.4191C42.3325 30.8965 42.8395 28.6021 42.8395 26.1893C42.8395 16.8814 35.294 9.33594 25.9862 9.33594C16.6783 9.33594 9.13281 16.8814 9.13281 26.1893C9.13281 35.4971 16.6783 43.0426 25.9862 43.0426C28.9862 43.0426 31.8032 42.2587 34.2435 40.8846H26.4685C26.3045 40.8846 26.2054 40.7032 26.294 40.5652L28.9845 36.3751Z" fill="white"/>
<path d="M36.3112 39.3817H29.2449C29.0806 39.3817 28.9816 39.1997 29.0708 39.0617L36.0844 28.2233C36.2017 28.042 36.4835 28.1385 36.4651 28.3537L35.8734 35.2589C35.863 35.38 35.9585 35.484 36.08 35.484H43.4846C43.6492 35.484 43.7482 35.6667 43.6582 35.8046L36.3007 47.0853C36.1832 47.2654 35.9029 47.1696 35.9203 46.9552L36.5178 39.6059C36.5277 39.4851 36.4323 39.3817 36.3112 39.3817Z" fill="white"/>
</svg>
