<svg width="118" height="117" viewBox="0 0 118 117" fill="none" xmlns="http://www.w3.org/2000/svg">
<g filter="url(#filter0_di_106_20)">
<g clip-path="url(#clip0_106_20)">
<rect x="9.41667" y="5.41667" width="99.1667" height="99.1667" rx="24.5833" fill="url(#paint0_linear_106_20)" stroke="url(#paint1_radial_106_20)" stroke-width="0.833333"/>
<path fill-rule="evenodd" clip-rule="evenodd" d="M16.9167 13.3333H9V12.9167H16.9167V5H17.3333V12.9167H25.25V5H25.6667V12.9167H33.5833V5H34V12.9167H41.9167V5H42.3333V12.9167H50.25V5H50.6667V12.9167H58.5833V5H59V12.9167H66.9167V5H67.3333V12.9167H75.25V5H75.6667V12.9167H83.5833V5H84V12.9167H91.9167V5H92.3333V12.9167H100.25V5H100.667V12.9167H108.583V5H109V12.9167V13.3333V21.25V21.6667V29.5833V30V37.9167V38.3333V46.25V46.6667V54.5833V55V62.9167V63.3333V71.25V71.6667V79.5833V80V87.9167V88.3333V96.25V96.6667V104.583V105V112.917V113.333H108.583H100.667H100.25H92.3333H91.9167H84H83.5833H75.6667H75.25H67.3333H66.9167H59H58.5833H50.6667H50.25H42.3333H41.9167H34H33.5833H25.6667H25.25H17.3333H16.9167H9V112.917H16.9167V105H9V104.583H16.9167V96.6667H9V96.25H16.9167V88.3333H9V87.9167H16.9167V80H9V79.5833H16.9167V71.6667H9V71.25H16.9167V63.3333H9V62.9167H16.9167V55H9V54.5833H16.9167V46.6667H9V46.25H16.9167V38.3333H9V37.9167H16.9167V30H9V29.5833H16.9167V21.6667H9V21.25H16.9167V13.3333ZM108.583 105H100.667V112.917H108.583V105ZM92.3333 105H100.25V112.917H92.3333V105ZM91.9167 105H84V112.917H91.9167V105ZM75.6667 105H83.5833V112.917H75.6667V105ZM75.25 105H67.3333V112.917H75.25V105ZM59 105H66.9167V112.917H59V105ZM58.5833 105H50.6667V112.917H58.5833V105ZM42.3333 105H50.25V112.917H42.3333V105ZM41.9167 105H34V112.917H41.9167V105ZM25.6667 105H33.5833V112.917H25.6667V105ZM25.25 105H17.3333V112.917H25.25V105ZM108.583 96.6667H100.667V104.583H108.583V96.6667ZM92.3333 96.6667H100.25V104.583H92.3333V96.6667ZM91.9167 96.6667H84V104.583H91.9167V96.6667ZM75.6667 96.6667H83.5833V104.583H75.6667V96.6667ZM75.25 96.6667H67.3333V104.583H75.25V96.6667ZM59 96.6667H66.9167V104.583H59V96.6667ZM58.5833 96.6667H50.6667V104.583H58.5833V96.6667ZM42.3333 96.6667H50.25V104.583H42.3333V96.6667ZM41.9167 96.6667H34V104.583H41.9167V96.6667ZM25.6667 96.6667H33.5833V104.583H25.6667V96.6667ZM25.25 96.6667L17.3333 96.6667V104.583L25.25 104.583V96.6667ZM108.583 88.3333H100.667V96.25H108.583V88.3333ZM92.3333 88.3333H100.25V96.25H92.3333V88.3333ZM91.9167 88.3333H84V96.25H91.9167V88.3333ZM75.6667 88.3333H83.5833V96.25H75.6667V88.3333ZM75.25 88.3333H67.3333V96.25H75.25V88.3333ZM59 88.3333H66.9167V96.25H59V88.3333ZM58.5833 88.3333H50.6667V96.25H58.5833V88.3333ZM42.3333 88.3333H50.25V96.25H42.3333V88.3333ZM41.9167 88.3333H34V96.25H41.9167V88.3333ZM25.6667 88.3333H33.5833V96.25H25.6667V88.3333ZM25.25 88.3333H17.3333V96.25H25.25V88.3333ZM108.583 80H100.667V87.9167H108.583V80ZM92.3333 80H100.25V87.9167H92.3333V80ZM91.9167 80H84V87.9167H91.9167V80ZM75.6667 80H83.5833V87.9167H75.6667V80ZM75.25 80H67.3333V87.9167H75.25V80ZM59 80H66.9167V87.9167H59V80ZM58.5833 80H50.6667V87.9167H58.5833V80ZM42.3333 80H50.25V87.9167H42.3333V80ZM41.9167 80H34V87.9167H41.9167V80ZM25.6667 80H33.5833V87.9167H25.6667V80ZM25.25 80H17.3333V87.9167H25.25V80ZM108.583 71.6667H100.667V79.5833H108.583V71.6667ZM92.3333 71.6667H100.25V79.5833H92.3333V71.6667ZM91.9167 71.6667H84V79.5833H91.9167V71.6667ZM75.6667 71.6667H83.5833V79.5833H75.6667V71.6667ZM75.25 71.6667H67.3333V79.5833H75.25V71.6667ZM59 71.6667H66.9167V79.5833H59V71.6667ZM58.5833 71.6667H50.6667V79.5833H58.5833V71.6667ZM42.3333 71.6667H50.25V79.5833H42.3333V71.6667ZM41.9167 71.6667H34V79.5833H41.9167V71.6667ZM25.6667 71.6667H33.5833V79.5833H25.6667V71.6667ZM25.25 71.6667H17.3333V79.5833L25.25 79.5833V71.6667ZM108.583 63.3333H100.667V71.25H108.583V63.3333ZM92.3333 63.3333H100.25V71.25H92.3333V63.3333ZM91.9167 63.3333H84V71.25H91.9167V63.3333ZM75.6667 63.3333H83.5833V71.25H75.6667V63.3333ZM75.25 63.3333H67.3333V71.25H75.25V63.3333ZM59 63.3333H66.9167V71.25H59V63.3333ZM58.5833 63.3333H50.6667V71.25H58.5833V63.3333ZM42.3333 63.3333H50.25V71.25H42.3333V63.3333ZM41.9167 63.3333H34V71.25H41.9167V63.3333ZM25.6667 63.3333H33.5833V71.25H25.6667V63.3333ZM25.25 63.3333H17.3333V71.25H25.25V63.3333ZM108.583 55H100.667V62.9167H108.583V55ZM92.3333 55H100.25V62.9167H92.3333V55ZM91.9167 55H84V62.9167H91.9167V55ZM75.6667 55H83.5833V62.9167H75.6667V55ZM75.25 55H67.3333V62.9167H75.25V55ZM59 55H66.9167V62.9167H59V55ZM58.5833 55H50.6667V62.9167H58.5833V55ZM42.3333 55H50.25V62.9167H42.3333V55ZM41.9167 55H34V62.9167H41.9167V55ZM25.6667 55H33.5833V62.9167H25.6667V55ZM25.25 55H17.3333V62.9167H25.25V55ZM108.583 46.6667H100.667V54.5833H108.583V46.6667ZM92.3333 46.6667H100.25V54.5833H92.3333V46.6667ZM91.9167 46.6667H84V54.5833H91.9167V46.6667ZM75.6667 46.6667H83.5833V54.5833H75.6667V46.6667ZM75.25 46.6667H67.3333V54.5833H75.25V46.6667ZM59 46.6667H66.9167V54.5833H59V46.6667ZM58.5833 46.6667H50.6667V54.5833H58.5833V46.6667ZM42.3333 46.6667H50.25V54.5833H42.3333V46.6667ZM41.9167 46.6667H34V54.5833H41.9167V46.6667ZM25.6667 46.6667H33.5833V54.5833H25.6667V46.6667ZM25.25 46.6667L17.3333 46.6667V54.5833L25.25 54.5833V46.6667ZM108.583 38.3333H100.667V46.25H108.583V38.3333ZM92.3333 38.3333H100.25V46.25H92.3333V38.3333ZM91.9167 38.3333H84V46.25H91.9167V38.3333ZM75.6667 38.3333H83.5833V46.25H75.6667V38.3333ZM75.25 38.3333H67.3333V46.25H75.25V38.3333ZM59 38.3333H66.9167V46.25H59V38.3333ZM58.5833 38.3333H50.6667V46.25H58.5833V38.3333ZM42.3333 38.3333H50.25V46.25H42.3333V38.3333ZM41.9167 38.3333H34V46.25H41.9167V38.3333ZM25.6667 38.3333H33.5833V46.25H25.6667V38.3333ZM25.25 38.3333H17.3333V46.25H25.25V38.3333ZM108.583 30H100.667V37.9167H108.583V30ZM92.3333 30H100.25V37.9167H92.3333V30ZM91.9167 30H84V37.9167H91.9167V30ZM75.6667 30H83.5833V37.9167H75.6667V30ZM75.25 30H67.3333V37.9167H75.25V30ZM59 30H66.9167V37.9167H59V30ZM58.5833 30H50.6667V37.9167H58.5833V30ZM42.3333 30H50.25V37.9167H42.3333V30ZM41.9167 30H34V37.9167H41.9167V30ZM25.6667 30H33.5833V37.9167H25.6667V30ZM25.25 30L17.3333 30V37.9167H25.25V30ZM108.583 21.6667H100.667V29.5833H108.583V21.6667ZM92.3333 21.6667H100.25V29.5833H92.3333V21.6667ZM91.9167 21.6667H84V29.5833H91.9167V21.6667ZM75.6667 21.6667H83.5833V29.5833H75.6667V21.6667ZM75.25 21.6667H67.3333V29.5833H75.25V21.6667ZM59 21.6667H66.9167V29.5833H59V21.6667ZM58.5833 21.6667H50.6667V29.5833H58.5833V21.6667ZM42.3333 21.6667H50.25V29.5833H42.3333V21.6667ZM41.9167 21.6667H34V29.5833H41.9167V21.6667ZM25.6667 21.6667H33.5833V29.5833H25.6667V21.6667ZM25.25 21.6667L17.3333 21.6667V29.5833L25.25 29.5833V21.6667ZM108.583 13.3333H100.667V21.25H108.583V13.3333ZM92.3333 13.3333H100.25V21.25H92.3333V13.3333ZM91.9167 13.3333H84V21.25H91.9167V13.3333ZM75.6667 13.3333H83.5833V21.25H75.6667V13.3333ZM75.25 13.3333H67.3333V21.25H75.25V13.3333ZM59 13.3333H66.9167V21.25H59V13.3333ZM58.5833 13.3333H50.6667V21.25H58.5833V13.3333ZM42.3333 13.3333H50.25V21.25H42.3333V13.3333ZM41.9167 13.3333H34V21.25H41.9167V13.3333ZM25.6667 13.3333H33.5833V21.25H25.6667V13.3333ZM25.25 13.3333H17.3333V21.25H25.25V13.3333Z" fill="url(#paint2_radial_106_20)" fill-opacity="0.3"/>
<g filter="url(#filter1_f_106_20)">
<path d="M98.5273 -2.79297L114.81 22.1702L44 79.1665L42.4566 74.8779L98.5273 -2.79297Z" fill="url(#paint3_linear_106_20)"/>
</g>
<g filter="url(#filter2_d_106_20)">
<path d="M84.3 38.2557L61.0308 25.5237C60.409 25.1802 59.7103 25 59 25C58.2897 25 57.591 25.1802 56.9692 25.5237L33.7 38.261C33.0355 38.6246 32.4808 39.1599 32.0938 39.8111C31.7068 40.4623 31.5017 41.2054 31.5 41.9629V67.2523C31.5017 68.0098 31.7068 68.753 32.0938 69.4041C32.4808 70.0553 33.0355 70.5907 33.7 70.9543L56.9692 83.6915C57.591 84.035 58.2897 84.2152 59 84.2152C59.7103 84.2152 60.409 84.035 61.0308 83.6915L84.3 70.9543C84.9645 70.5907 85.5192 70.0553 85.9062 69.4041C86.2932 68.753 86.4983 68.0098 86.5 67.2523V41.9656C86.4997 41.2067 86.2953 40.4619 85.9082 39.8092C85.5212 39.1565 84.9657 38.6199 84.3 38.2557ZM59 29.2257L80.2437 40.8603L72.3719 45.1704L51.1255 33.5357L59 29.2257ZM59 52.4949L37.7562 40.8603L46.7202 35.9526L67.9639 47.5872L59 52.4949ZM35.7308 44.5622L56.8846 56.1386V78.8235L35.7308 67.255V44.5622ZM82.2692 67.2444L61.1154 78.8235V56.1492L69.5769 51.5192V60.9564C69.5769 61.5175 69.7998 62.0555 70.1965 62.4522C70.5932 62.8489 71.1313 63.0718 71.6923 63.0718C72.2533 63.0718 72.7914 62.8489 73.1881 62.4522C73.5848 62.0555 73.8077 61.5175 73.8077 60.9564V49.2028L82.2692 44.5622V67.2418V67.2444Z" fill="url(#paint4_linear_106_20)"/>
</g>
</g>
</g>
<defs>
<filter id="filter0_di_106_20" x="0.666666" y="-4.76837e-07" width="116.667" height="116.667" filterUnits="userSpaceOnUse" color-interpolation-filters="sRGB">
<feFlood flood-opacity="0" result="BackgroundImageFix"/>
<feColorMatrix in="SourceAlpha" type="matrix" values="0 0 0 0 0 0 0 0 0 0 0 0 0 0 0 0 0 0 127 0" result="hardAlpha"/>
<feOffset dy="3.33333"/>
<feGaussianBlur stdDeviation="4.16667"/>
<feComposite in2="hardAlpha" operator="out"/>
<feColorMatrix type="matrix" values="0 0 0 0 0.0913145 0 0 0 0 0.0498264 0 0 0 0 0.170833 0 0 0 0.3 0"/>
<feBlend mode="normal" in2="BackgroundImageFix" result="effect1_dropShadow_106_20"/>
<feBlend mode="normal" in="SourceGraphic" in2="effect1_dropShadow_106_20" result="shape"/>
<feColorMatrix in="SourceAlpha" type="matrix" values="0 0 0 0 0 0 0 0 0 0 0 0 0 0 0 0 0 0 127 0" result="hardAlpha"/>
<feOffset/>
<feGaussianBlur stdDeviation="3.33333"/>
<feComposite in2="hardAlpha" operator="arithmetic" k2="-1" k3="1"/>
<feColorMatrix type="matrix" values="0 0 0 0 0.231351 0 0 0 0 0.151424 0 0 0 0 0.408333 0 0 0 1 0"/>
<feBlend mode="normal" in2="shape" result="effect2_innerShadow_106_20"/>
</filter>
<filter id="filter1_f_106_20" x="16.6232" y="-28.6263" width="124.02" height="133.626" filterUnits="userSpaceOnUse" color-interpolation-filters="sRGB">
<feFlood flood-opacity="0" result="BackgroundImageFix"/>
<feBlend mode="normal" in="SourceGraphic" in2="BackgroundImageFix" result="shape"/>
<feGaussianBlur stdDeviation="12.9167" result="effect1_foregroundBlur_106_20"/>
</filter>
<filter id="filter2_d_106_20" x="17.3333" y="10.8333" width="83.3333" height="87.5487" filterUnits="userSpaceOnUse" color-interpolation-filters="sRGB">
<feFlood flood-opacity="0" result="BackgroundImageFix"/>
<feColorMatrix in="SourceAlpha" type="matrix" values="0 0 0 0 0 0 0 0 0 0 0 0 0 0 0 0 0 0 127 0" result="hardAlpha"/>
<feOffset/>
<feGaussianBlur stdDeviation="7.08333"/>
<feComposite in2="hardAlpha" operator="out"/>
<feColorMatrix type="matrix" values="0 0 0 0 0.0981598 0 0 0 0 0.0578125 0 0 0 0 0.1875 0 0 0 1 0"/>
<feBlend mode="normal" in2="BackgroundImageFix" result="effect1_dropShadow_106_20"/>
<feBlend mode="normal" in="SourceGraphic" in2="effect1_dropShadow_106_20" result="shape"/>
</filter>
<linearGradient id="paint0_linear_106_20" x1="59" y1="5" x2="59" y2="105" gradientUnits="userSpaceOnUse">
<stop stop-color="#2D1F4A"/>
<stop offset="1" stop-color="#1C0E3C"/>
</linearGradient>
<radialGradient id="paint1_radial_106_20" cx="0" cy="0" r="1" gradientUnits="userSpaceOnUse" gradientTransform="translate(102.75 12.5) rotate(136.488) scale(45.388)">
<stop stop-color="#DCCCFF"/>
<stop offset="1" stop-color="#BAA3EC" stop-opacity="0.27"/>
</radialGradient>
<radialGradient id="paint2_radial_106_20" cx="0" cy="0" r="1" gradientUnits="userSpaceOnUse" gradientTransform="translate(94.8333 20) rotate(131.845) scale(74.9491 69.1837)">
<stop stop-color="#9076C9"/>
<stop offset="1" stop-color="#9076C9" stop-opacity="0"/>
</radialGradient>
<linearGradient id="paint3_linear_106_20" x1="124.159" y1="-0.0798124" x2="43.4638" y2="73.354" gradientUnits="userSpaceOnUse">
<stop stop-color="#462D7C"/>
<stop offset="1" stop-color="#9162FF" stop-opacity="0.3"/>
</linearGradient>
<linearGradient id="paint4_linear_106_20" x1="59" y1="25" x2="59" y2="84.2152" gradientUnits="userSpaceOnUse">
<stop stop-color="#E2C16B"/>
<stop offset="1" stop-color="#A348C2"/>
</linearGradient>
<clipPath id="clip0_106_20">
<path d="M9 30C9 16.1929 20.1929 5 34 5H84C97.8071 5 109 16.1929 109 30V80C109 93.8071 97.8071 105 84 105H34C20.1929 105 9 93.8071 9 80V30Z" fill="white"/>
</clipPath>
</defs>
</svg>
