<svg width="118" height="117" viewBox="0 0 118 117" fill="none" xmlns="http://www.w3.org/2000/svg">
<g filter="url(#filter0_di_131_19)">
<g clip-path="url(#clip0_131_19)">
<rect x="9.41667" y="5.41667" width="99.1667" height="99.1667" rx="24.5833" fill="url(#paint0_linear_131_19)" stroke="url(#paint1_radial_131_19)" stroke-width="0.833333"/>
<path fill-rule="evenodd" clip-rule="evenodd" d="M16.9167 13.3333H9V12.9167H16.9167V5H17.3333V12.9167H25.25V5H25.6667V12.9167H33.5833V5H34V12.9167H41.9167V5H42.3333V12.9167H50.25V5H50.6667V12.9167H58.5833V5H59V12.9167H66.9167V5H67.3333V12.9167H75.25V5H75.6667V12.9167H83.5833V5H84V12.9167H91.9167V5H92.3333V12.9167H100.25V5H100.667V12.9167H108.583V5H109V12.9167V13.3333V21.25V21.6667V29.5833V30V37.9167V38.3333V46.25V46.6667V54.5833V55V62.9167V63.3333V71.25V71.6667V79.5833V80V87.9167V88.3333V96.25V96.6667V104.583V105V112.917V113.333H108.583H100.667H100.25H92.3333H91.9167H84H83.5833H75.6667H75.25H67.3333H66.9167H59H58.5833H50.6667H50.25H42.3333H41.9167H34H33.5833H25.6667H25.25H17.3333H16.9167H9V112.917H16.9167V105H9V104.583H16.9167V96.6667H9V96.25H16.9167V88.3333H9V87.9167H16.9167V80H9V79.5833H16.9167V71.6667H9V71.25H16.9167V63.3333H9V62.9167H16.9167V55H9V54.5833H16.9167V46.6667H9V46.25H16.9167V38.3333H9V37.9167H16.9167V30H9V29.5833H16.9167V21.6667H9V21.25H16.9167V13.3333ZM108.583 105H100.667V112.917H108.583V105ZM92.3333 105H100.25V112.917H92.3333V105ZM91.9167 105H84V112.917H91.9167V105ZM75.6667 105H83.5833V112.917H75.6667V105ZM75.25 105H67.3333V112.917H75.25V105ZM59 105H66.9167V112.917H59V105ZM58.5833 105H50.6667V112.917H58.5833V105ZM42.3333 105H50.25V112.917H42.3333V105ZM41.9167 105H34V112.917H41.9167V105ZM25.6667 105H33.5833V112.917H25.6667V105ZM25.25 105H17.3333V112.917H25.25V105ZM108.583 96.6667H100.667V104.583H108.583V96.6667ZM92.3333 96.6667H100.25V104.583H92.3333V96.6667ZM91.9167 96.6667H84V104.583H91.9167V96.6667ZM75.6667 96.6667H83.5833V104.583H75.6667V96.6667ZM75.25 96.6667H67.3333V104.583H75.25V96.6667ZM59 96.6667H66.9167V104.583H59V96.6667ZM58.5833 96.6667H50.6667V104.583H58.5833V96.6667ZM42.3333 96.6667H50.25V104.583H42.3333V96.6667ZM41.9167 96.6667H34V104.583H41.9167V96.6667ZM25.6667 96.6667H33.5833V104.583H25.6667V96.6667ZM25.25 96.6667L17.3333 96.6667V104.583L25.25 104.583V96.6667ZM108.583 88.3333H100.667V96.25H108.583V88.3333ZM92.3333 88.3333H100.25V96.25H92.3333V88.3333ZM91.9167 88.3333H84V96.25H91.9167V88.3333ZM75.6667 88.3333H83.5833V96.25H75.6667V88.3333ZM75.25 88.3333H67.3333V96.25H75.25V88.3333ZM59 88.3333H66.9167V96.25H59V88.3333ZM58.5833 88.3333H50.6667V96.25H58.5833V88.3333ZM42.3333 88.3333H50.25V96.25H42.3333V88.3333ZM41.9167 88.3333H34V96.25H41.9167V88.3333ZM25.6667 88.3333H33.5833V96.25H25.6667V88.3333ZM25.25 88.3333H17.3333V96.25H25.25V88.3333ZM108.583 80H100.667V87.9167H108.583V80ZM92.3333 80H100.25V87.9167H92.3333V80ZM91.9167 80H84V87.9167H91.9167V80ZM75.6667 80H83.5833V87.9167H75.6667V80ZM75.25 80H67.3333V87.9167H75.25V80ZM59 80H66.9167V87.9167H59V80ZM58.5833 80H50.6667V87.9167H58.5833V80ZM42.3333 80H50.25V87.9167H42.3333V80ZM41.9167 80H34V87.9167H41.9167V80ZM25.6667 80H33.5833V87.9167H25.6667V80ZM25.25 80H17.3333V87.9167H25.25V80ZM108.583 71.6667H100.667V79.5833H108.583V71.6667ZM92.3333 71.6667H100.25V79.5833H92.3333V71.6667ZM91.9167 71.6667H84V79.5833H91.9167V71.6667ZM75.6667 71.6667H83.5833V79.5833H75.6667V71.6667ZM75.25 71.6667H67.3333V79.5833H75.25V71.6667ZM59 71.6667H66.9167V79.5833H59V71.6667ZM58.5833 71.6667H50.6667V79.5833H58.5833V71.6667ZM42.3333 71.6667H50.25V79.5833H42.3333V71.6667ZM41.9167 71.6667H34V79.5833H41.9167V71.6667ZM25.6667 71.6667H33.5833V79.5833H25.6667V71.6667ZM25.25 71.6667H17.3333V79.5833L25.25 79.5833V71.6667ZM108.583 63.3333H100.667V71.25H108.583V63.3333ZM92.3333 63.3333H100.25V71.25H92.3333V63.3333ZM91.9167 63.3333H84V71.25H91.9167V63.3333ZM75.6667 63.3333H83.5833V71.25H75.6667V63.3333ZM75.25 63.3333H67.3333V71.25H75.25V63.3333ZM59 63.3333H66.9167V71.25H59V63.3333ZM58.5833 63.3333H50.6667V71.25H58.5833V63.3333ZM42.3333 63.3333H50.25V71.25H42.3333V63.3333ZM41.9167 63.3333H34V71.25H41.9167V63.3333ZM25.6667 63.3333H33.5833V71.25H25.6667V63.3333ZM25.25 63.3333H17.3333V71.25H25.25V63.3333ZM108.583 55H100.667V62.9167H108.583V55ZM92.3333 55H100.25V62.9167H92.3333V55ZM91.9167 55H84V62.9167H91.9167V55ZM75.6667 55H83.5833V62.9167H75.6667V55ZM75.25 55H67.3333V62.9167H75.25V55ZM59 55H66.9167V62.9167H59V55ZM58.5833 55H50.6667V62.9167H58.5833V55ZM42.3333 55H50.25V62.9167H42.3333V55ZM41.9167 55H34V62.9167H41.9167V55ZM25.6667 55H33.5833V62.9167H25.6667V55ZM25.25 55H17.3333V62.9167H25.25V55ZM108.583 46.6667H100.667V54.5833H108.583V46.6667ZM92.3333 46.6667H100.25V54.5833H92.3333V46.6667ZM91.9167 46.6667H84V54.5833H91.9167V46.6667ZM75.6667 46.6667H83.5833V54.5833H75.6667V46.6667ZM75.25 46.6667H67.3333V54.5833H75.25V46.6667ZM59 46.6667H66.9167V54.5833H59V46.6667ZM58.5833 46.6667H50.6667V54.5833H58.5833V46.6667ZM42.3333 46.6667H50.25V54.5833H42.3333V46.6667ZM41.9167 46.6667H34V54.5833H41.9167V46.6667ZM25.6667 46.6667H33.5833V54.5833H25.6667V46.6667ZM25.25 46.6667L17.3333 46.6667V54.5833L25.25 54.5833V46.6667ZM108.583 38.3333H100.667V46.25H108.583V38.3333ZM92.3333 38.3333H100.25V46.25H92.3333V38.3333ZM91.9167 38.3333H84V46.25H91.9167V38.3333ZM75.6667 38.3333H83.5833V46.25H75.6667V38.3333ZM75.25 38.3333H67.3333V46.25H75.25V38.3333ZM59 38.3333H66.9167V46.25H59V38.3333ZM58.5833 38.3333H50.6667V46.25H58.5833V38.3333ZM42.3333 38.3333H50.25V46.25H42.3333V38.3333ZM41.9167 38.3333H34V46.25H41.9167V38.3333ZM25.6667 38.3333H33.5833V46.25H25.6667V38.3333ZM25.25 38.3333H17.3333V46.25H25.25V38.3333ZM108.583 30H100.667V37.9167H108.583V30ZM92.3333 30H100.25V37.9167H92.3333V30ZM91.9167 30H84V37.9167H91.9167V30ZM75.6667 30H83.5833V37.9167H75.6667V30ZM75.25 30H67.3333V37.9167H75.25V30ZM59 30H66.9167V37.9167H59V30ZM58.5833 30H50.6667V37.9167H58.5833V30ZM42.3333 30H50.25V37.9167H42.3333V30ZM41.9167 30H34V37.9167H41.9167V30ZM25.6667 30H33.5833V37.9167H25.6667V30ZM25.25 30L17.3333 30V37.9167H25.25V30ZM108.583 21.6667H100.667V29.5833H108.583V21.6667ZM92.3333 21.6667H100.25V29.5833H92.3333V21.6667ZM91.9167 21.6667H84V29.5833H91.9167V21.6667ZM75.6667 21.6667H83.5833V29.5833H75.6667V21.6667ZM75.25 21.6667H67.3333V29.5833H75.25V21.6667ZM59 21.6667H66.9167V29.5833H59V21.6667ZM58.5833 21.6667H50.6667V29.5833H58.5833V21.6667ZM42.3333 21.6667H50.25V29.5833H42.3333V21.6667ZM41.9167 21.6667H34V29.5833H41.9167V21.6667ZM25.6667 21.6667H33.5833V29.5833H25.6667V21.6667ZM25.25 21.6667L17.3333 21.6667V29.5833L25.25 29.5833V21.6667ZM108.583 13.3333H100.667V21.25H108.583V13.3333ZM92.3333 13.3333H100.25V21.25H92.3333V13.3333ZM91.9167 13.3333H84V21.25H91.9167V13.3333ZM75.6667 13.3333H83.5833V21.25H75.6667V13.3333ZM75.25 13.3333H67.3333V21.25H75.25V13.3333ZM59 13.3333H66.9167V21.25H59V13.3333ZM58.5833 13.3333H50.6667V21.25H58.5833V13.3333ZM42.3333 13.3333H50.25V21.25H42.3333V13.3333ZM41.9167 13.3333H34V21.25H41.9167V13.3333ZM25.6667 13.3333H33.5833V21.25H25.6667V13.3333ZM25.25 13.3333H17.3333V21.25H25.25V13.3333Z" fill="url(#paint2_radial_131_19)" fill-opacity="0.3"/>
<g filter="url(#filter1_f_131_19)">
<path d="M11 6.91748L39.8301 -0.639627L71.5216 84.5559L66.965 84.6646L11 6.91748Z" fill="url(#paint3_linear_131_19)"/>
</g>
<g filter="url(#filter2_d_131_19)">
<path d="M88.1941 58.595C87.984 58.7525 87.7449 58.8672 87.4905 58.9323C87.2361 58.9975 86.9714 59.012 86.7114 58.9748C86.4514 58.9377 86.2013 58.8497 85.9753 58.7159C85.7494 58.5821 85.552 58.4051 85.3944 58.195C84.1891 56.5748 82.6202 55.2603 80.814 54.3572C79.0079 53.4542 77.0149 52.9878 74.9956 52.9956C74.6023 52.9956 74.2178 52.8796 73.8901 52.6622C73.5625 52.4447 73.3062 52.1355 73.1533 51.7732C73.0495 51.5272 72.996 51.2629 72.996 50.9958C72.996 50.7288 73.0495 50.4644 73.1533 50.2184C73.3062 49.8561 73.5625 49.5469 73.8901 49.3295C74.2178 49.1121 74.6023 48.9961 74.9956 48.996C76.1176 48.9959 77.2172 48.6812 78.1693 48.0875C79.1214 47.4938 79.888 46.645 80.3819 45.6375C80.8758 44.63 81.0773 43.5042 80.9634 42.3879C80.8495 41.2717 80.4249 40.2097 79.7378 39.3227C79.0506 38.4357 78.1285 37.7591 77.0761 37.3699C76.0237 36.9807 74.8833 36.8944 73.7843 37.1208C72.6853 37.3473 71.6719 37.8774 70.8591 38.6509C70.0463 39.4245 69.4667 40.4105 69.1862 41.4969C69.1206 41.7513 69.0054 41.9903 68.8474 42.2002C68.6894 42.4101 68.4916 42.5869 68.2653 42.7203C68.039 42.8538 67.7886 42.9414 67.5284 42.9781C67.2683 43.0148 67.0034 42.9999 66.749 42.9342C66.4946 42.8686 66.2556 42.7534 66.0457 42.5954C65.8358 42.4374 65.659 42.2396 65.5256 42.0133C65.3921 41.787 65.3045 41.5366 65.2678 41.2764C65.2311 41.0163 65.246 40.7514 65.3117 40.497C65.701 38.9905 66.4366 37.5956 67.4599 36.4233C68.4832 35.2511 69.766 34.3339 71.2061 33.7446C72.6463 33.1554 74.2041 32.9104 75.7556 33.0292C77.3071 33.1479 78.8095 33.6271 80.1432 34.4287C81.4769 35.2303 82.6051 36.332 83.4381 37.6464C84.271 38.9607 84.7858 40.4513 84.9413 41.9995C85.0968 43.5478 84.8888 45.111 84.3339 46.5647C83.779 48.0184 82.8924 49.3226 81.7448 50.3734C84.464 51.5507 86.8279 53.4191 88.6015 55.7928C88.7591 56.0034 88.8736 56.243 88.9384 56.498C89.0032 56.7529 89.017 57.0181 88.9792 57.2784C88.9413 57.5387 88.8525 57.789 88.7178 58.0149C88.5831 58.2408 88.4051 58.4379 88.1941 58.595ZM74.7256 73.9932C74.8703 74.2208 74.9674 74.4754 75.0112 74.7415C75.055 75.0076 75.0445 75.2799 74.9803 75.5418C74.9161 75.8038 74.7997 76.0501 74.6378 76.2658C74.476 76.4816 74.2722 76.6624 74.0387 76.7974C73.8052 76.9324 73.5468 77.0187 73.2791 77.0512C73.0114 77.0838 72.7398 77.0618 72.4808 76.9866C72.2218 76.9115 71.9806 76.7847 71.7718 76.614C71.5631 76.4432 71.391 76.232 71.266 75.993C70.0062 73.8599 68.2121 72.0921 66.0606 70.8641C63.9092 69.636 61.4747 68.9901 58.9974 68.9901C56.5201 68.9901 54.0856 69.636 51.9341 70.8641C49.7826 72.0921 47.9885 73.8599 46.7288 75.993C46.6037 76.232 46.4317 76.4432 46.2229 76.614C46.0141 76.7847 45.773 76.9115 45.514 76.9866C45.2549 77.0618 44.9834 77.0838 44.7156 77.0512C44.4479 77.0187 44.1895 76.9324 43.956 76.7974C43.7225 76.6624 43.5187 76.4816 43.3569 76.2658C43.1951 76.0501 43.0786 75.8038 43.0144 75.5418C42.9503 75.2799 42.9397 75.0076 42.9835 74.7415C43.0273 74.4754 43.1245 74.2208 43.2691 73.9932C45.2079 70.662 48.1641 68.0406 51.7032 66.5141C49.7117 64.9893 48.2482 62.8789 47.5182 60.4793C46.7882 58.0798 46.8285 55.5118 47.6334 53.1363C48.4384 50.7609 49.9675 48.6974 52.0058 47.2359C54.0442 45.7745 56.4892 44.9885 58.9974 44.9885C61.5055 44.9885 63.9506 45.7745 65.9889 47.2359C68.0272 48.6974 69.5564 50.7609 70.3613 53.1363C71.1663 55.5118 71.2066 58.0798 70.4766 60.4793C69.7466 62.8789 68.283 64.9893 66.2915 66.5141C69.8307 68.0406 72.7868 70.662 74.7256 73.9932ZM58.9974 64.9942C60.5794 64.9942 62.126 64.5251 63.4414 63.6461C64.7569 62.7672 65.7821 61.5179 66.3876 60.0563C66.993 58.5946 67.1514 56.9863 66.8428 55.4346C66.5341 53.8829 65.7723 52.4576 64.6536 51.3389C63.5349 50.2202 62.1096 49.4584 60.5579 49.1497C59.0062 48.8411 57.3979 48.9995 55.9362 49.6049C54.4746 50.2104 53.2253 51.2356 52.3464 52.5511C51.4674 53.8665 50.9983 55.4131 50.9983 56.9951C50.9983 59.1166 51.841 61.1512 53.3412 62.6514C54.8413 64.1515 56.8759 64.9942 58.9974 64.9942ZM44.9989 50.9958C44.9989 50.4654 44.7883 49.9568 44.4132 49.5818C44.0382 49.2067 43.5295 48.996 42.9992 48.996C41.8771 48.9959 40.7776 48.6812 39.8255 48.0875C38.8733 47.4938 38.1068 46.645 37.6129 45.6375C37.1189 44.63 36.9175 43.5042 37.0313 42.3879C37.1452 41.2717 37.5698 40.2097 38.257 39.3227C38.9441 38.4357 39.8663 37.7591 40.9187 37.3699C41.971 36.9807 43.1115 36.8944 44.2105 37.1208C45.3094 37.3473 46.3229 37.8774 47.1356 38.6509C47.9484 39.4245 48.528 40.4105 48.8085 41.4969C48.9411 42.0107 49.2724 42.4508 49.7294 42.7203C50.1865 42.9899 50.7319 43.0668 51.2457 42.9342C51.7595 42.8016 52.1996 42.4704 52.4692 42.0133C52.7387 41.5562 52.8157 41.0108 52.6831 40.497C52.2937 38.9905 51.5581 37.5956 50.5349 36.4233C49.5116 35.2511 48.2288 34.3339 46.7886 33.7446C45.3485 33.1554 43.7907 32.9104 42.2392 33.0292C40.6876 33.1479 39.1853 33.6271 37.8516 34.4287C36.5179 35.2303 35.3896 36.332 34.5567 37.6464C33.7237 38.9607 33.209 40.4513 33.0535 41.9995C32.8979 43.5478 33.1059 45.111 33.6608 46.5647C34.2158 48.0184 35.1023 49.3226 36.2499 50.3734C33.5334 51.5519 31.1723 53.4201 29.4007 55.7928C29.243 56.0029 29.1282 56.242 29.0628 56.4964C28.9975 56.7509 28.9829 57.0157 29.02 57.2758C29.057 57.5359 29.1449 57.7862 29.2786 58.0123C29.4124 58.2384 29.5893 58.436 29.7994 58.5937C30.0095 58.7514 30.2486 58.8662 30.5031 58.9316C30.7575 58.9969 31.0224 59.0115 31.2825 58.9744C31.5425 58.9374 31.7928 58.8495 32.0189 58.7158C32.245 58.5821 32.4426 58.4051 32.6003 58.195C33.8057 56.5748 35.3746 55.2603 37.1807 54.3572C38.9869 53.4542 40.9798 52.9878 42.9992 52.9956C43.5295 52.9956 44.0382 52.7849 44.4132 52.4099C44.7883 52.0348 44.9989 51.5262 44.9989 50.9958Z" fill="url(#paint4_linear_131_19)"/>
</g>
</g>
</g>
<defs>
<filter id="filter0_di_131_19" x="0.666666" y="-4.76837e-07" width="116.667" height="116.667" filterUnits="userSpaceOnUse" color-interpolation-filters="sRGB">
<feFlood flood-opacity="0" result="BackgroundImageFix"/>
<feColorMatrix in="SourceAlpha" type="matrix" values="0 0 0 0 0 0 0 0 0 0 0 0 0 0 0 0 0 0 127 0" result="hardAlpha"/>
<feOffset dy="3.33333"/>
<feGaussianBlur stdDeviation="4.16667"/>
<feComposite in2="hardAlpha" operator="out"/>
<feColorMatrix type="matrix" values="0 0 0 0 0.0913145 0 0 0 0 0.0498264 0 0 0 0 0.170833 0 0 0 0.3 0"/>
<feBlend mode="normal" in2="BackgroundImageFix" result="effect1_dropShadow_131_19"/>
<feBlend mode="normal" in="SourceGraphic" in2="effect1_dropShadow_131_19" result="shape"/>
<feColorMatrix in="SourceAlpha" type="matrix" values="0 0 0 0 0 0 0 0 0 0 0 0 0 0 0 0 0 0 127 0" result="hardAlpha"/>
<feOffset/>
<feGaussianBlur stdDeviation="3.33333"/>
<feComposite in2="hardAlpha" operator="arithmetic" k2="-1" k3="1"/>
<feColorMatrix type="matrix" values="0 0 0 0 0.231351 0 0 0 0 0.151424 0 0 0 0 0.408333 0 0 0 1 0"/>
<feBlend mode="normal" in2="shape" result="effect2_innerShadow_131_19"/>
</filter>
<filter id="filter1_f_131_19" x="-14.8333" y="-26.473" width="112.188" height="136.971" filterUnits="userSpaceOnUse" color-interpolation-filters="sRGB">
<feFlood flood-opacity="0" result="BackgroundImageFix"/>
<feBlend mode="normal" in="SourceGraphic" in2="BackgroundImageFix" result="shape"/>
<feGaussianBlur stdDeviation="12.9167" result="effect1_foregroundBlur_131_19"/>
</filter>
<filter id="filter2_d_131_19" x="14.83" y="22.83" width="88.34" height="72.4059" filterUnits="userSpaceOnUse" color-interpolation-filters="sRGB">
<feFlood flood-opacity="0" result="BackgroundImageFix"/>
<feColorMatrix in="SourceAlpha" type="matrix" values="0 0 0 0 0 0 0 0 0 0 0 0 0 0 0 0 0 0 127 0" result="hardAlpha"/>
<feOffset dy="4"/>
<feGaussianBlur stdDeviation="7.085"/>
<feComposite in2="hardAlpha" operator="out"/>
<feColorMatrix type="matrix" values="0 0 0 0 0.0981598 0 0 0 0 0.0578125 0 0 0 0 0.1875 0 0 0 1 0"/>
<feBlend mode="normal" in2="BackgroundImageFix" result="effect1_dropShadow_131_19"/>
<feBlend mode="normal" in="SourceGraphic" in2="effect1_dropShadow_131_19" result="shape"/>
</filter>
<linearGradient id="paint0_linear_131_19" x1="59" y1="5" x2="59" y2="105" gradientUnits="userSpaceOnUse">
<stop stop-color="#2D1F4A"/>
<stop offset="1" stop-color="#1C0E3C"/>
</linearGradient>
<radialGradient id="paint1_radial_131_19" cx="0" cy="0" r="1" gradientUnits="userSpaceOnUse" gradientTransform="translate(18 9) rotate(47.2546) scale(44.9361)">
<stop stop-color="#DCCCFF"/>
<stop offset="1" stop-color="#BAA3EC" stop-opacity="0.27"/>
</radialGradient>
<radialGradient id="paint2_radial_131_19" cx="0" cy="0" r="1" gradientUnits="userSpaceOnUse" gradientTransform="translate(31.5 19.5) rotate(48.8655) scale(52.4452 48.411)">
<stop stop-color="#9076C9"/>
<stop offset="1" stop-color="#9076C9" stop-opacity="0"/>
</radialGradient>
<linearGradient id="paint3_linear_131_19" x1="21.676" y1="-16.5424" x2="65.8376" y2="83.2273" gradientUnits="userSpaceOnUse">
<stop stop-color="#462D7C"/>
<stop offset="1" stop-color="#9162FF" stop-opacity="0.3"/>
</linearGradient>
<linearGradient id="paint4_linear_131_19" x1="59" y1="33" x2="59" y2="77.0658" gradientUnits="userSpaceOnUse">
<stop stop-color="#E2C16B"/>
<stop offset="1" stop-color="#A348C2"/>
</linearGradient>
<clipPath id="clip0_131_19">
<path d="M9 30C9 16.1929 20.1929 5 34 5H84C97.8071 5 109 16.1929 109 30V80C109 93.8071 97.8071 105 84 105H34C20.1929 105 9 93.8071 9 80V30Z" fill="white"/>
</clipPath>
</defs>
</svg>
